<mxfile host="app.diagrams.net" modified="2021-06-02T16:12:29.199Z" agent="5.0 (Macintosh; Intel Mac OS X 10_15_7) AppleWebKit/605.1.15 (KHTML, like Gecko) Version/14.1.1 Safari/605.1.15" etag="AhebUBqX-OF1-w8l5z_O" version="14.7.3" type="github" pages="3">
  <diagram id="r7PWwXPoRvqIp_1exUgx" name="SDKs">
    <mxGraphModel dx="1095" dy="1075" grid="1" gridSize="10" guides="1" tooltips="1" connect="1" arrows="1" fold="1" page="1" pageScale="1" pageWidth="850" pageHeight="1100" math="0" shadow="0">
      <root>
        <mxCell id="0" />
        <mxCell id="1" parent="0" />
        <mxCell id="bQUlo2BlX72oAqUSooij-2" value="" style="shape=image;verticalLabelPosition=bottom;labelBackgroundColor=#ffffff;verticalAlign=top;aspect=fixed;imageAspect=0;image=data:image/png,iVBORw0KGgoAAAANSUhEUgAAAggAAAGBCAYAAAADq0nuAAAAAXNSR0IArs4c6QAAAERlWElmTU0AKgAAAAgAAYdpAAQAAAABAAAAGgAAAAAAA6ABAAMAAAABAAEAAKACAAQAAAABAAACCKADAAQAAAABAAABgQAAAADn+hGXAABAAElEQVR4Aey9B3xdx3Xuu9CI3kGAIHph771IokSq2ZJly723OL6J4yR26s0v79777rs3vTjViR333m1JtiWrV4piFXsnUVhAovde3vefgw0cHB6AAEVRgLmHPNht2l4ze9Y3a61ZE7F2/Yah5pZmi4iIMD+8vhSIsAiLjY21iMjI17cgP3efAj4FfAr4FPApcI0UGBoaspzZmRa9ZOVaa2vv8AHCNRJysskgeGREpM2Zm2dRMTFmuvaDTwGfAj4FfAr4FJhuFOgfGLD779xi0YODgzaoC1+C8Po2EQDBIgdtoL/fRGwfILy+5PZz9yngU8CngE+Ba6TAgDBBb2+vRZs/kb1GEvrJfAr4FLjZKeCA/xSJgKqR/9MhTMfh/2qkmZTw9XUmcYBuV6vp2BaOmIDZXks/Gpv7tV9NJByI1lT22nP2U/oU8CngU+AmpIA3oEfKnmiiAXY80gzYoEbewfEeX7f7EUOCI/qFBkZ97kqEPF2wykgVB0TTQRj8OKwpKmoyNB8yZsHhkBj0GJQ0d2i8AoZrEjUYGZY7Dip9lNJHRfZPmnYDg1HWr/wiw5RJX5qF2vnKZhqhyet2Ihr39vWN24cFEN6IWr1ur+tn7FPAp4BPgdeVAgzoUZFRtnjRAlu+dLElJSZOujzAREtfm32l4vu2v/moGNA4XHDSOU4UcciSuxKt7GKBJXUljEQcUh0ABuuqLtj8ugaLGXj9gcpI4Vc5iRRtGxLi7bnyYmtMjB8TG83sUtG8uLDAoqKixjwLvvAkNKfOVNjxU6etvx+gEAiAg474LjuRX2Edsd3jsr+hiEHLacp0tIsSc/fC4FCkpcS12/uWPW75qbUWHkJ4sYePAgUt3Un2vQP32sW2HN0cbXNAzB23brLbNq23SAGfSUlHQrK/1kvoiV3cSzt321PPvmiA3dAQPTE+GBKKU+fhfZTbkDIj8IEEo2YPTXNvvHOXMMwfbCBIF5xfmGj+LZ8CPgV8CkwbCsyKnWXzykutrKRYzIpxcXjQHx4r3XimcTIUADAgx3bPsqFas66u7iueX88XpCo90f2WGzvbErviNdQHJoPcj9WssbCxxbLaO68ockhjMq8TEan4cJEbHJJ6eiyjq8uaE+IkSRius2gZEzPL8ubmWmpKykiNQvmGx3+ixOzyFfdMReUYgBApgNAW32FNSa3WHzUqPRmEpylXLz+kC7VpjVZYm2tRvcEAIcJyEhqtbHalJUX3jNTDnUQKiCAhUBkWBCp4lp7UYAVpl+1Ca84YksKUly1ZZNmzs4w6XM8AiIIe8NjxQrTirFq2xJ55fnvYKOPbIJBxdIy1pRZa36wki+uqt6SWi0IcetmMdGtpbRshfEJCgvX19erXb3FxcU6006cOyDkV7FGDe4QPrUXunBxra2u3js7OceOEpvGvx1IAGo9H37Exw18p+ZhOGz6Wf9engE8BjwLe9zY4yOx0dGBnUGZW2N7e7ma5icPSBW+QdrxjmAHDSALsz2xgKDDLBUCM3g2UBsgY1EQNBhIVEaUxOJCqf7DfzQAjlGbAnY8+G6ln8MloNd1dxPgeA+bGEJIElRMtxgo4GJB0YUhj+pDuuaXZ1wIW9K5ufGJ2qvKHBgJG2hFIALz8GIAIHhhQvUKqGniuv4OD0CLAzLkJXTx6QSfvnDiUO14+nuoFShI3OSZRcYesq19SheEQTjXDI1e6JAnGj+BAgVl1Y4HVtqdbZkKrFaZddGoIBxaI4+IG2o3L4EDfGBimU/B97zw6WvN40QaeGhrob15f7McAfjgAWi9evGhJyUmWmJA4LkgYUL6UPV6QiiFcABzE2vnSLRY1IEbf2Wh1eautM3GO5V3ebwXqQKBfAAHkWjCvzDo7u+z4yZO2fu1qq6uvt6PHT9rqlSussqraqs+dGxFf8EIQhMbjfNGCeYYoqKW11V3zsjz3XpojL8BH4aVxje9eSt1BNAeF8VESdyTOcBm83bXqCcNR5vW6R72pJ0fen/PJBN551qxZrvOQdqohEsSnz8p1LuXlDT6TySe4rl57TSadH8enwK8jBRjPzmms++Wjj1pVVZX7jteuWWPb7txmGekZ7jrce8Pk8jS2Ag4uddZZr8ZcgiCBY16J0fGWn5xjBUlz7VjTGbvYcdlmRcXYuuzldqb1nLX1ttu6nFV2trXaapQeEMEMmu960kFjR0yOZrHdPRY7r9QSbl1vrT94yPov1VpUVqb119XbkJ4NwaQ0TkRIxTLkVmTpUu89hBif+4jJdc49VseRZ/TcOdZ7qoKB2BJWLrFB8YqeYydtsKcX7myRksaYmOCQJpliJ5MOjDmv7HhFvKdTtB1wY+amzZstPm6samKiDKE94ODvNv6ZaFll/3HkO9Y1MAoSJkrrngkc9A1E28PHttqBmnmWHt9qTd3JtjCr0h5c8qwlRpPX5NuBPhTtJFKjJR89esz1qzvVjwAL/cMqIeKdPn3G6hvqXRnr1611z6Kjo+yJJ56wT3ziE1KDLbbv/+D7lpycKvrIdmI4b9Qu8JmrhbAqhkglbMwpV1tJTHPmWYsQ8ZObq6xywX2W0VYtkDmKVOBJSBNysmdbQnyCZUq6AOOIl/QgUTqkVjH+kqJCy8/P03mbQMQpy8+b6+J3S7IwoJelokXSKyXEx9ul2lqbP69cRIqyM2crXV6FhfkWKybY1NQsMHHWstLTnWhvQI176tQZa+/ocOK+7Nmzrb6+wYmVZmdlWUlJkXV1dyvOaUkxeh2AuBpBbvRzvgc+5pLiAtu4dpV1dXbbS6/stgs1l9UZAFPEGAUP1I8Pg/s6WGpqim1YvcK279wrOnS6DgA96QAgYgYd8gll4LRRWmqqbb1tk3SoCa68l3ftcUDPAyrEYXbCkTowi3D3qIRCrD7s3Jxsa1a7Nje3uGesn+VzIA86sx98CtwMFOD7amlpsV/88peOYd155536ljtt9+49GgcTbcuWLYakNTTwZfEhP1B8p6WIUb2iCVhl2wVLldQ2PTbV3eO6ICnXVmYtct8zwKBGIGFr3ibbOneTPXfxFVuVtUSgYZZtyFkhoHDOzrRUW9/Q6DgdWu6Ya77zWTGW8Xu/aYOt7dby40dsoKWND1zgIMsSb9tg7U8+55ZoJ267TUx90HqOnrC41cvdmNB9+LjFLVvswEPPidMWt3Ce9WjSF6ExO0nxBzrara/qvCXdu03xIyxGgCEqLdX6NMZp0BAY2eCuW771Q+uvb9KAOEmGqmiMgdB+5DcFZuxIr/hlKUU2J3G2HWo6IZqnWE9Xn6BZQKIzhk7hLqRW2FGxxrZXrbC3LXrOspPqLSZqwL6290HLSWqy20t3WQwShkkEmPf58+dt957dFit1CsaDy5Yttc//x+dt6x1b7eUdOxwPXL58uQNfMPw9e/dYXW2dRcdEu8ldSWmpZWVmWKVUK3XipUfUVt3igaka6wGvtbrHGF5QUCC1xuyr1irsCK7uYh3JuZbcet7ZIAwKrc7qbraYnlbrSpgtwDAq6qBhGhobraS40HJzcxyDptXmiHHAlGEiixYusMPHjjugsEDMH9VDskQfZyurLD0tzQoL8i1eH8/+A4dsXlmZAxeXLl0WaMi3Vqkf0M8cPnLMFi6c7xh+ohham0ABxkGLdK+q+pzyKLCTQlPlJcWSOAxYgQDJ5ct1lp6eZvPLy+3AocNOQnFVitzoCGqsGDVuiQBSQyMAqMJmC7HPF4rPEtg6pA8xNyfHMjLS7ISATv7cuZYQF2u1DY1WLLrVNUi3pXd9UDQ6duKU7T901NF+0YJyeLoDT4eF1ukktFVwiBEDpxO+vGuvLVk035aIlunqSDEaLE6cPGNlpUWWnJRkx06ettnqdGkCI9XnL7h2JK82iVFp91OaHbz0yi4rzJ/r2gxpTp2A2olTZ90MKLhM/9ynwK8jBaIEwisqpZfW9xIji/STJ05an2bYZeVl1tjUJADd7J4NOcA/SgFUC4WSDMyKjLFUMacFaaW2NGO+xUfHWa/G2QWpxXaiuYJPWd9vpCQNOVaeIruH7IAl//mOGluTvdTSZ6XY24rvEoNLtoq28/b14z+18x2XbFR7Plpm2DNAgh4gFUjYuFYGc5qcCPQz6+cekoW4NSstOme2RWdlWNyqZTaoCVuUzmMK8gQCOi1G479Lm5ZsCV0bbVBS5v6Ll3SUillgIWp2prUKfMzSxC1+rfLSRFGcziI1jg9qnB/sFaAZO0SFrerITRFlhPWGjG0jcSY60TsnxsTbrblrLFpSl3xJcd5UuMW+d+oX1ql6TSYMSXpwqqFQKxSi7PFTm2zFnFN2S9EBi9EKhxN1RXZL8T4BhlF+OVGeTIpfffVVq7ssxn70iK1cudIeffQxmzNnjuNpO3fudOqC/a/us+XLV0iK32WXLl8S80+zhx76mbWLhsuWq13Ux9asXWu/8+lPW2FhobPdQDJRWXHW3vnOd1qqeO4jj/xck/TsiarjnoWXY6uRnEGiOu9IA7joY6+4BaNAvQBTKCkutiohIBhHWUmxNevDyNBsnw+koqLKzf4zxPQIlVXnHBOh4mWlJVZXV+d+5y9cdDPeLDHJCzXqXEJASAUAARcu1AhQpDpkniHGn5iU6Jg+iAm1RoVQ0/YdOwUiZOSicrOzsyw+Ps4x4MmK7F3lbuAf6Nfb22eHjpxws/+VQuLM7DEcwS3ziqWLXP3jBQrWrVrhpDI1QozM3Hfs3ivadzsQBThAMoO0gLBoXpndK09YgIw+ObwIG9TOMP7bZUWbooENqc9CAYuM9FS7bbOsajU47N53wMoEAparHgCz1SuWgv+sQqojpBenJeWhzRkMY2Pj7JYNa5V2g+uUE+m2wtbHv+lTYAZTgAF+QJI7dMVI0hCx8+1pfuu+pXCvxmxumQBBogBBNNI6/VuYVmbtfR2WoHsxkgrwQ6UQIxDhwERUtCXFJChNfECdIOYWo+exilfb1Wgnmyuts7/LlRuuzCvuqZ6Jd91usRp7Uh6414Yk2W36+net78IlBniL0hgRpwlETO4ci2A5ngJHVAnYKGjQMYksdS1GqPFnQBOdnpNnlY/GHY0hgA3UBwCOxM3rLH7NCuuvrbdoTXpiNAkckidfp664omJXv4F6Fet/VKOc66UnH5Smra/TTkva8mr9EcfLzmpSDDALgh5XyQ8pLSpzjeP9MZabXG8/OnynXW7PcPcnn0+gGPjdgoULbdGiRbZixUr3XklJyQKXyY4X8q7JMtKsPi8p0ZkzTjXci1FnRoZ1aNLco4ngk089ZW9+07321a98xf6fP/9ze8973m2NjU22detW+/GPf2I/+clPbcnixRPaHngvHdZIMUKdNr6zQVKEPMu6JMJJJ9YTn2L9EnvFy1hxSEyHF+GH2JkPAkbFDLKurt51zMUL5kudcFqEG3SMi9k+kgBQD/cABp4o+4h0LDC8ejG4eKkZTmsWDTNaLuvOs5XVTuKQoKUvgIO2tjYrl5QBaQH3AAcAgmyhU0R5xVJnDMgQBnH7CZWPCmNKncajzA06MkDECQiUlRSoEZulosmQxKPE2XhcEpKExvPKSgWymh0D7+8bUEfodEAAdU5sbIx7X9xli7COppcFIL7zw4csR2j/rIAZjDpUehB4PYlFpR6A2ZeXFjswhUHpeQEx1AOpKcmSwKQ4KQBetagPAVEp9FXlpISKEKqNd/VkSdEXv/Ydl09l9QXVZSpfa6BG/l+fAjORAgCDUol3X3llp5vJrV692g3Yu3bvtttvv93S0gJjJmAhOMRERjuVwE6pFvo1a50dn2F76g45W4RcSWsBBNgVdPX3WHRklPVJvVuQNMfFZexIkxriRPMZfaNiUsoYVQQ2Cp0Y21HUlXO64OID5xqLuw8ds7q/+Jxj/L3V5wOzfjGjQTGWrv2SvoqZ9+j7jp6Tbb2nu22gvtGS7r9b0oBCa/vFE06iECM1c/P3fmqRGjeQHKC2iCnMc+oFpAhtv3xKEoY11n3wqPUcPmaxSxdalCYZPacrLFrjuKsss49JBt5/08ZNduDAASdZXrlixQhPmWQWjkQv1OyyTXNW2eXOettde8AZjIYfL6/MNULqhKU5p21/jQBU9IDN0qqRhq400V7Ab47oJUnCZANq4RV6ByRQWVLtoCa/Q0wdHlBcXOwAEPxv27Zttn37duvQRHz+ggXune+86y71uzYnta+urnbjvcdjL9XUOKNZgMXWbVthE45nT6Zegn5X9qBBIdn02hNWNf8eu1As3Vn7JWvKXmgpjVUW19GgvQSyrUhipV6hR4wVa8Q4YB7oUJAm1EvsXXP5svQlTYadwRytVNhy22Yn5j5w8LATiYN66AodYmwXLtY4aQK2CtggLJhf7iQSFQIHEAeR++aNG6ynt0f2BVXuvRbMn+dekvQ1kjQAFG67ZaNjXIcOHxWDi7GlAhgwNgAHnWmyjT4Zwl2vONSpR+j6bOU5W7Z4gTVp46wd0lvmCa2ngBTPXdAKj26BoxSrOnfeMfR6fZwYFRaqDS5Kj3deHyMAAlUAnYw8W9RZmjD8FIAL/95SI0lHelCqm8uS3jS3tLoOyBFwcOpMpc3VYIA0Y7/oSRuhbqiR2oY+09zcavuVloERMEcaRFuXNDPgOZ3TDz4FbhYKML4AnN/+9gftiSeftGeefUbfXpTdvuU2MbENDjS7CZW+zdBwTAwe4MC/lt42Z5yIoeHFjlrbVXtIUgLSBNLxd3/90ZEskDgQl+cy0baDDcc165T9j8rmzqSC8u8ToO/TeKssnIGhuI5OZOuk8b3zhZcDbIJ7AgsYFiJVAFR07tijtOdJZh1NLY75D4pxaQBQGq0K2LNfUgTVJUYqi7ZWgYQnXb4RkjR0PL9DcTSBU9wexmeNIZQ5ldArKcW8efPc+E462mEqAbUNthr/KeNE0nYPBCQ+0HVSYSDK1uQdlZ+DZHuxcpU9fXqdo9UDC1+0dQWHZX8wqVxcJCZyxcXF7jw/P9/xvhypFxi/Ge/vuutO16Lw3fvve/NwmtF6Eo8+9r73vU9x7xqhRZykz5mZWSL1oPjh1Q0TXcbDf2iR4OvAuQqKUUctPPWENc1eaB0puZZed0IA4azQ1ZCdUUcC5ZASHTYVOycxMz+kAoCE514YXVe599UDzsgQSQONgKEigXT79h9wTcF97A4gEkyRfGDu86XDA4Ds2btf/VIiLXXOw0ePS4Jw1hGNfEi7a88+x6S8lRUnhXYrZOMAwSAu+U3XwDtd0LtXS70CTWDql8Vo9Vqu3khRAkaJiCoD4spGGUQdkVqB96IdSFcvuwSPMXN/ojdWdLVTp7N5IG1rqz5qBVaIEBhkqM/IudqECnl0JA32DwRSIF4lT89K1j3w//gU+DWmAP3ddfrhd0TNmpmZaR94//vd5IVvhe+R+4xD4wX03yNB5/wj8A0GBPojT92JBu1xQ/CzUdYRPjrV9wKrDzTweJejR70k9gOhYVATkPZHh5m93tGBC9U3QvZUEZKIhg3kxYqF4RAxK0x5eubI6kUKObrxzxHeezDkxn3vyjsyPnljo3fPOwbThbKwWavprFW5SqN38EJwPO/elUel0Qh417yXbc3co9bcnSJbkjZLS2wxfC5MJlBXL9BXgkNwv0EV7YWeoHPvnnfExq+oqMi7dPwxNN+RhzoJLj/4PufB/WnMM2wQYnraLefcrsB9vcOQOi9EY5bpEY9Xm6gAEqMfgtkTLzTuSD56BnPiOUThhTinrB6l7Zd+yzW47hG8/NzF8B8ASCD/QBz04px5TC047nQ7BxTw88LYOo/e957DkEHeryVAKw9QePkE5yglkHdbQ9bo+chN/8SnwE1KAdSYHR1dsjMYtFmaoTFJCQ5MoAjcD/6W3RJE2RCwLH4AxzojI6mLfl3/wJ9m9UcbLoND1/QPaHzvEyCIon4TgJcJK8SM3wve+bXmNZwP43W3QEa/xsJgijJWQXMmQairkc6MG5QJ8Wtll9YXwnBJM0uGhcCQQUf/0VyQGgwMr14YipTxOK6RPV8Ho9GUt2o2ZmWCCpSRYnpCi6UnNsMo9QsZL69IE8iQ/tEptXuUJn5R6hevT5DnzHDgb7gwJvTUI8A7x9Zg4hqJyICC0EBGNORUQrjCJ0rvxcf4MPQjI533PDiP0HtTrWNwXv65TwGfAj4FwlGAcYYVWjvkovaMDKOxIZpscGklxo5ti7QlvWVjmOBk85hsPMa/+J5YS+1IGpMEd8Yw4Ze0SumU7MJwuzxdAnVriY+1i6nJ4j1jR3DsyfZppdsRrcoKHetD6w+z78Zvg/ILDgPaQyGtLcWWVmopZoyejy0iKOqQpXZqRUrfWBkO4KClJ9FaOlMtIblu7LQJUDC2uEB+StMhV8uNHalh+eYvHntSK77OBCZrIfUNqtD1Px2mL2WPBxAiPvyJTw2x6uBqBL/+tbu5cgyAHLnpnJMnGw51uhvZEW4uUvtv61PghlAAiScShFAmNHHhgZlaTATr1pl8heMoE+cwlae4DHa/MInwosjGSK93HcIUPcEtiexFV6Qa4Xj3VGg9EU9DqoIUYfx3l4SB1QnM/EMCKxbS4tssIUZLxyfTfiqmp2+WNXalho3tqcFDirlhl9iPBUu5KJhVOG/aeqtUDOFa4YZVzS/Ip4BPAZ8CM5MCqE4jh5cVT/UNYDueOHuqaa9XfMeIw4jgr1f+r0c+EzH9qZSHJOFaA1KEpq4Ua5QUYbKBNCyHDBdgzm6JZriHb/C9sMsc3+A6+cX7FPAp4FPAp4BPgWlLAcfsb4LJdTTGfhgBgsxugvd9wzpcQMUQ8BnhhGcs7/GDTwGfAj4FfAr4FJgmFPAUKiyXR/UR/eZ77xp2XiRdlXQ/gd9kaqtNKrRKIKxSZTLJb7I4GM2wnDFdm7ZEOYtfryluMkL4r+tTwKeATwGfAtOOAk5IgKCApZ6SFuBlN3q+nEz09HQPLy1k9zCMbqi7/ozDw2B2MdEx8vBXMrxMbpyI044Eb2yFWIYZK+9iEy7R8aroi3M8Stx8R/9zuvna3H9jnwJvBAXEZ5zuAHsafix91fJ5lunigDD6uz9+SO6LcZITkB6ADgIAYfzaImVI0TKUz/zWbzgPYVz74eoUwJMVpJoUtcJE8ul8dRrPxBjXy/BqJr67X2efAj4F3kAKwGeYjIoxOaW3pNwYVLKkFH4THaNtJdlxkeAYkGNgYbiTixH4QzzW/iJF4PdaGBeD47Wm9wbWa00f9Eo35lRkBZmFOicKLXzGvE9oxf3r60oBr39f10z9zHwK+BTwKRBEAW+c4ciPVRXwKM6j2U/Hcy/p1nxOEiBEypNVlJxtCGE4Bk9meIIalNtKCsC9MfdgdhyDg27pHnv9BNwgs8TDY4rkyxybCnqeEV0ewBz9H8lPebgy9AKxSh9cXnBZ0+18IoDg0SCEWnrn6fYWfn1eDwoEPpNA64c2eeg39HqU7+fpU8CnwM1FgWAezbn3GwEI2o7R7cgIWdjFEc9SYxnUlQSDkcHIYXb8uO6Wu8iHfvYzucKsty1bbnd7WbNzI36h2SEQZwzEw4VyDK40BSBatZPgs888be9817vc825tVfmNb3zNxVm4YKF2ntrmNngiD9KShooDLAg7drzs9oLIycmxZcuWuXQ8J+70DLLdCGOD4NWXI78u0aiVvdGD3sOLMz3fy6/V9aCABwLYnCdR30iCfgTvvne8HmX5efgU8CngUyCYAt74whE+SpAEIYAa3BXnOoERewyJyM7vv44ew4I9s2kGmXgZdYm57z+w3+05TZof/uAHdu5ctd151922R1uestNZalqanT59ynJzc+3ChQu2dOkyO3z4kAMVb3/7Oyw7O1vbRdfZ+nXr3XaWSCd2vrLDVqxcZXXa5ZGNoYq1CQUSB5ZmVlRVWKN8cz/xRI297a0P2qFDB23psqWqwzYHFtw7TaM/g/LX7WgW4kfcozUbVdW0d9vLtU2Wot3P/HBzUqBPwDBa39Di9GQrSUmQ4fAMAgkaJjDC9Qab8VoQkO8B/eA4pEMCebX0bhIzOiQFZxH2nPy87yxshEncpEwmUUg4rzWQnA3vvE3RxuSDZ8Uwru3HxHmNFyKDdn+c3BLr60Gz8apLPRwpx4vwht5X++ijC9c/1THlHEvAnReYZBgUP1Vmk4x946OFfmtce99gwJOibnivi3HCssULbfUKzcilLti151U7pS2W3ZajwUTReTBAYCvgB9/2oO3avcsuXrxo+/fvt9KSEjt+7Jj72I/pmCW/3yuWr7B9+/baO975LqtRPPZQz82daydOHLeCggInbXjhhecdeHhlxw63qqLi7Fk1iNxVShJxufaypBLxkix0WW93rwMMmRkZlpiU6Pa8btUWxyzTGAZAN57aE5Q4OKiNUwBVQQCBTugaSF9LnwaPOu3StSIzxZZnprqdLSfIzn/0a0oB2M+x5nZrkhSpSBfex+p9yN5xOr4+S58v1ly0hsZmx5CDhwzqC1NgcsEW7tn6IVn0Au/FxjGX6+qtVbsFApi9ccmL4x0ZwJFGQpvJ7CDKLq/epMbLYypHPO62alxpiUuyQUkBcdQ7lUCbMoamSCq0UMAvM25WyLspRnelWddpIYi214JBxq0WxmfNnTFW3ZJr/UPxYXkc9fRozu6B0fIUCY2vXwhsxsckFOlzaP+YcjnBFZ5y4isT0D+ZELv+KX5FnwkOQ5qYtj/xnPXJwn/sk+BYgXOWtUclJljiXbdbdFbGlRGm6R2+Q6/NNVEBHOif3paP+5b1q+3tD9xnBw8fk/FirP3Wb3zYvvX9n9jBI8ccc+OdIIxLR1oSKvT09tjevXtcoyPyX7x4sSN07txce+mll9xAkJyUbHO0v3WhpAA//elPBAKWWlp6uqVJskAFyKq4qNi23bnNnnryKSsrL7fKirO2ZOkSSSPO2bnqasvSvtaHDh2SfUKvFRQWSiqRLglEg7W0NFt8Qry1avdHGnVIG2e81hmDe7Hr+CeUZmRNQ3j19DYOiVEH7VdP7afz++GmowDfAf0i2DWr13cghvfNTTfCUK+m5hZJIAespLggsIlRaB/Wu3V1dVtDU5O1tndYVkb6SP/30scINLCE2rONcgMOLzucF/HaOzq03XijpaWmWnpqykgeY2iisrw0ldXnLFGD9Wxtx3wtgTL3N7ZanupWJKnOrGtgmuRR0dphtZrYJKFCEvN1r6T7NqCVZL0XzBLKZMmcdS1VvGoaym/tumwpaTGiuzZpQoUV2j7DuVCl4ydPW67G65TksZs9XbWgCSJQB7aZZyv5ooL8KW10FTbboDYO+3yqN5Ufk7YzmhRnpKeNGPCTTYTavOPVw9bw1/9kA82tjmdNmL3G8CEBUzFHS//gO21IgGi6B9rHC5yPwHeYVEJ8vN11x232i8efsieffckx2gfvu9fefNcddvTEKS/dFQCBtLNnZ9unfufTzukSe6Jjf9Chjxjmv04qA4Jns7Bw0SLZH7RaSkqKmwV4laIBPvrxj8noMFbShEIXn3hJkk6AOPmR5pZbb9EgGfBfTdo77rjDDagbN27SIJA4Ws+glx25+QaeUNdglY4HDKgS5+5axwBYCgCmqVaXMjy1DxIgUKwfZhYF+ETduOf1iaDqj3wr06xvU0WqRPdlYsGWvLPGGRCZobUJHLjILt3ooMQ3wKqqJDHzABXI+cpA306QbVK8tlqOj4+7MkLInXiNbYxvCZpEXGtIiO2xOK0TT5EEIVZj1cgLj1R/mAAU4NpHxAj+/HQvRe/Wqpm52IaL45I6wvUJFUrFEC1mHK0Jk3uuP8HpA3fH/ztSj6AoQekpJiqmU+AmwuJEs/Hax0sd5+gV95po5uUVfKSN413bqf0m0XbBaW/UOd+ZUwPp6JHVHbVDpBvHRRvCkHhShPqzGJDrz0gYNABbxLBkbFBgeEjSbvq69+3eqHe4HuUE9mLgzdWRZqnj8yFVn7/oREvcqzp33jasW+UkAN6qAq9gSOe9NI2OMSHpEf0xSHANGoOpe8ExQV0AInjmGS96z+OlPnAdSPlw9OJ5m1lwLyVldJMMrr1n8fEMKgFG69XLy3c6HKmT9wuuD+/Adxw4BjpSIF5wrKufk4Y2qpKkhbzy8vLchwiwul6BMgjk74fXhwIBCo/S2aN1cN/x2uH1qcG150r3GO4iI5lQfwABqoBE2SIRvDhXvEfgtYnh4iHmPnT0uKSEjbZ44XzLnztnZMwZGbldzLF/zmkMa5GaIl8SzDRJGLzyvFh8cYxfwbT1no17pEouo8BLurRcD3+/jD2ujRQN5sIXwrVYx0gIfDWBdxvz7sEV5DGu2AMZBNJyrUmRR5eRDINPWncrTbcQWrFZ42Pa67ncLGWDGNbopInovHlwaJbUFdDG9sgpKcmOD/Ac+gSX59ShSGc16XDvOVxn2oiA8bmnyoEHnNYsHKCImqKhsckK8+ZaqtoiEMbWAVqSD5PIULH+cALrkOSBALjwRODes2s5Xq6ts04x8Py8XC3XH5krB7IS7Xk9rz1H8tf7O7rAu7JnW8KG1db+7HYbVF+Lzky3lPe93br3HrSuvftd+wUoGOgBY9p7JMPpfTKGKh0dnXZBupW777jVNSidZtvtt1hFZbXTDQIgJgo0svfBhZ6HpqOzEbz43nPv2juGi+c9C03jWsS7OeOOAdq9lhl/tdQw//bv/2FPPvW0kyLcvmWLffYzvyu1TaFAW4DeHlmQZPBBYzDVjxhsEoFBb6C/z9lQ8EFF6cNHFwwA8Tp/aNuMly2DgAOH6gd9EkkT+Ojpc+TBdqOTzWu8Mmb6/YBX0wBLmcnvcvzkGTt+6rRj8AvKS6f0Kpcu19pzL+2wk6fPuj6RpUEYBjFeaGpqtv2Hj9ruVw9agQZ+dMmhgf66U7ZV6RIh09+QLKSnp+o8WkCm3YGZTKk+YFYwtyuYx3CGP624ZDFREZYtKUa78txX12Jb87JstuwLnrhQ52Ktn51uC1ITLV75TCl0iME0PqGZ1FsCdgk9Uj+k320WVyR1RItZy4tmSavF/DVZitS4HCkQEJdvVvt9s/P/btZ53Cz3E4qz4gqAEFyPi5cuO/rqk7MWSWs3rVujdprnlo4Hx+uRmPzwsRNWXlps5y/WSNUruy9JY1hiXlFZJVrNko1Zhmun2bIJw37kOz96yAE0pDwHpLJ+19vus3WrVJ+QQN60V6PUTqUaq8pKCh3Aop2Z8DhbFI1Xz730ii2aX+bURExE+T4AIkhM2XYb/tQlkMO4RpvB/OMlsYnUc2xb4lQPxpidYt5MKp969gWrUf96x1ve7IzeN6xd6QBNSPXCXjLeDTY3a1YdYxmf/ri1fP37FlNaZGnvfpu16Fn33gMav8aOuWEzmuY3A0aKDi0FjEd+/PCj9tH3v8v++2c+5ZAcjAUdVHFRvlWfu+AG9XDvFIzoHPHUQcIN8DwjLg1L4NwDAcH5jnc/OI6XfqLyQuNPt2toNOZ3DRXk/Vtlg/H97//QfvTjn7jOT56PP/G47DLi7P/7X/9D7Tbq0AqWU6OBYe++V61I7bpMtiAw+nGDYDDAZZ/if/3r37C33H+/lpUusWeefc6WL19mq1etvAKAjJvX8INaoff9Bw5ahgaTVStXuH7QrHc4ePCQAxvr16/TtzfqH+Nq+f1aPleTjOkbjOIKtPdMCSfE2A9KArCwvMzmlZZMudowoqUymsbWoKykaFyddadUmgcOHbO9B9R/VIpTRyYnO+YfWihAt53JkL6BLNlAMas9ceass43wxjFAQ4tm1ulpqbZsyUJ3DM2nU2PYvsvNVpaSaDliPlXtXba/vsWBgcrWLqkixKTY9CY04WSuhzQ+tr4iacBcs7Y9SqG3GpBaJmFBwJix+Tmz1LM6P69nAvhzf9sscYlAwSc1qEpK01cr3Xe1Wcchs+Q1AgnJYUtFzQCzhKGi2klOTnTfYmhk5CGX9M12y1C8vrHRLVFvbmlT3AipgBNd+hOnzzjj1NS1yY5pR2ls97oqLnyRiJBPaACkROv57bdsdFKMXfsOGFKNuXOyNWG9rG/ALC8324G3xqYWO3TkhPO/09ffK6CSae1tHcPq7BRJjdodcAEY1lyqs5zZmY75I1FaOL/cgR8kJYAW7FwyBATT1MZIyqc0OdOLDaltW77/M4tfuczSP/5+6z56UsaLl6374FHVWa0+cz7T0CYZuR6WINBoAcaN2OVfvvBVK8yf6wYnLIo/9N532Kd/86P2uc9/yWrrGiTpGvvmDFi1WoboWRPX19dbSUmpUzd4zN9j4tglsMRx4cKFrhLNQmEsgfTUBNwEPLS0tDjbA08FwYcbqGVg0CQeg+eF8+cdwmSJJPYHlOeBD+JM10DdvRCOCXjPJnts1YdxWDMnbDO8QQ5wd1ofbV19g+XNnTtCFz6E0xoQP/dP/2QPPPAWW7liheg2KkWgrWhLPnDq1q98ZAEil9xtdvLUKQ0CDdaoQWLX7j2OwWdokP32d76nFSkl9qEPvN8Zu1IHZl8EZgADw1ICrskfNch/fuGLWtWyfBggRLilrN/45rdVdrS7j7dOBLTUxasH7qoZbDyHWuQHuAm8c0D0SVzenXtR6qsDek6f4L6rl2YUqkKgXopHYBZCvRjCOJLe60du5YnKJATfHz+v4WV6amIGUPf+yo/yJx9YCsfeKFNJM/ncb1TMBOmYY9QPOrs6nWExqsfJhoB64YRWRV2S+LlXjOG4szso0NgUGjCOZGabmzNbs8I6ZyzJDDdOTC800IcAHowtjG+NGoNKBT4Qh7dLFYL9A/exc6CNvTEsNJ9UzVRXZ6U6yUGX+nd5aoJVtEnHr76SGScfMWr7cAwxNJ9xrxPmm9X/PMDw4yV5YXVDnyQTUQIAyWt1LcPG/qaAhGBI3y99ZUBi+JjZAgyfMmt4xKxdkojExWEBAu8FA25rbXffAxITJAJ891cEZc13gKEnRoY1l2pt8aJ5mvW3iDl3OuAATWG4TjI5/L3R54N/V+Q7fIM41Ae1UJ9W7yxZtMCOnTjt2gRpDs/ytDy+ESNYtYtkO86GIltlVlZVW5rU2O0dXbZoXrna/7KdOVtlG6UaB/g89fxLAg2J7jukfY+dPGVJ4jlIG/jGD8kAH/ADz1skEEG/mFQQTWJy51iMJFXtz75syfffJVVDu/UIIOjD5eOfVDbTOdIwJUYZPp0Asc7J0xUOAaFv+cZ3f2y3bVrniBkYRMe+Eve6NAAcP37cfVAwgw41xDkxb/Tg0VrT3ysxEqsYcmQVe0pMBhDRI98JlVWVbsVDnRooLz/fLl2q0WwhTczusL3nve+1kydP6qNtczOCpMQk5wuBBkzVjAJAcOjgQXXWGpuTM8eS1UlY8rhi5cpxP+qxNZ9GV+pP7gMPg7AnU0s+7tS0FL13QDLDB8fgBo3Q+8JsvAAfhOnGxjJ4j/0YaMv+gX47cfKs2um0swFZvmypywdgCO3pI8XFxfbhD33AGaHu3rPPnnnueUmYztmqVats/rxyt7Lk8OEjjjHg9KqkuGgMg6RuMIuAzhGGGgA23CN/x1jFVAESx44dd3Ysy5YscbOVKpVzWaJBAAjiydlZWZpdSAeounE/XYAFsHJe/e+CrKVLSkpsnmaw5AvwPHL0mBgITKFY98vd7IO+yiDULbFks+IsmD/PirRKBuZepQHoqJbpkv/iRQttrsAWoUki0cNHjjrgNG/ePJcfjOzcufN67y7NSAYFqDXwFBZYucpHhE27TDV4A+xU002H+AXSO/PKR4+flN+Sc24WN9l6MWhvf2W3HVL70y+RKMG8s7X8LDTkaaBGhP3CyzvdbDBX+uF0GUgHdk4dG5t+jHHcHMVJ1uyXa/ajwbC6sCBPs9hey1Qf6tT4lKY9Z8YzpENCMD8tSUsXYyQp6HeOrbI0M03TfUJ734DtqWt2Kxe25c22uZLmTTpEKm7KLQHGHlsgw0Xp7nvODzP85bovY0Z+EJdVD9H6YaMwK1tSh9wAsMi8P6BqaPhlQFUBcAgK0FT/ZWCe4cTxObNnO4bM/dDAPWbjJerL8Ro3mL2frTznAEW27vMdA+SaW9tsjtqHtpolcAbIxxYtTsADFQCqzdGRKFDK3Nwcp9p+YccuKysudPQ+JqP4QN8JGM+770ZpC/Lm2IlTZ516iHfPkqSgMD/P8SaW2tNW2LzBBw4cOmpz1S/mlZXqe29Sm8IzEuzB+++1X/zqKak9jjq1VaYkCO9/14NWUlTgxojQdx/vekjq1qR77rCM3/6YtD6tVv+P/2HRAqhpH363NX/vZ1rpIFXQDA+MWA4IBL8HncGb/XEfD4ePPfmcu8fAHTqrYWDNzy+wF154QaKbeJut2fzzzz/vlh3ScY4dO+pAx6ZNmxUv3wGDixcvWHX1OStT413UIF5RWeFmCe3SAaJPytUgjM6orq5WYq8U27d3nxWLKYH4YGB0ukwteWzQTDZH4ADAcFlSjE5JKJZpVjrTAmyD37UGZvFvlTRg9569zg8FDBi/Eg8+8IAbKNHpXy3Q7swOHn7k5/bP//pvrs1gqps2brQ/+9M/dvpaRhQ+Vpjs3/zd3zv1AhIh2hOQ+Itf/tK23Hab/cM/fk7ShtMOBPAR/9EffMbuunObgN5oPcgHh1cwZHTBoPt+fXSoQ5g9bn/5GZcPTBbgcMstm+23PvkJe/qZZ+2f/vnfnHU16gmW1P7wRz92DJzlr4CNuTJOa9NgRf8AnPzJH/2hBsLZ7r1e2blTA9os12d++5O/qeW0pfb3//A5vdNRB4TaxSzWrFltf/LHf2gNWkL7T//yb47pU98S9cE//OzvO58e//75/7RnBYygEfT/xG98zDZuWG9f/spX7dHHfqUNzTSrUX8uKiyyP/js79md27aq/06xlfk+Z3hgZsbM3nGjKbxLZkaabb19s1QMEqsrANDKpANnTGEMCA20z+IF82zlsiVOIkmfgiGFBpgX8Qh5MnokIIUiKt8A41nwkW8pXLhjbgCoLBRIGC/0KV/q5Xzajxcp3P3EZZr565f1trFPkRQABDyXt6giCM7B0vC7xpfJ9mCpwIKAQvqdAWARxgET7wgd5s8rHdbhzwp844Ecx/xF/bBqufJUSJUhI2HxgvmOTuRDWDhP5SpAL4D1p7REnt1rkfbdJVs2VDkxAgr9/bLqDwpILW7dGJiAkjaY9l7eQdEdcAhMKALlbtm8wfEFL21xYb6LvnTRfFcX8mDcYVLEOcDw3Q++xe67e5uT8NCfAIQ8n1JQ/+rcvssGNc70VV+wHtnaDApkxq+WnYXrMzP/25UNgojMewz3rXAEgqiIjSYKfIy4O2bzplkazEFqF85fcC6XWaaICgFwAKLPF+NqkEtmZl34ReCDpJGK5B+hWt4XmQFSIdQRxcXFloGeSTNEVjQww8OaFd3TufPnrHxeuQBEsnTwLU7cTT7ulWZc2wQqfK38AKOdu8WAC0TjJ+RDgva84/Yttnb1KjdARQwGGPtEbcizyspK+/FPf2Zr1661P//vf+LUCJ//zy/Yz3/5qMR+i0aS012QLpWXldnbH3yrDJzapatdYr/zqd+yPQJzq1Xuf//TP1Ebtts/fO6f5QvjZcNo0htsWePOevifqqxnxPBptH5JrtBx8h7M/AEbczUD/fy//6tm6kfs69/4pj3/wkuBjzwn2z7ykQ/Ztjtut+dffMnNJD72kQ87yQHgBib/F//n/3V6yy/+11ecvcOmTRucY673vudd0k0nGO+1Q2AhR7pO+s0tmzfb7336d2znrl320MOPKM0BSQmaXV7/+3/9Dzn0mmNPPf2sJFaX7JAkXCck3frzP/tTB5K++KWv2GOPP+H6KCqQxYsXCRT8vjx9NtiXv/p1ScSOjLw/DGOyYfIxJ5vjGxMP+k41IPlaJWY/2UDfCmeUOJn0THy84PVRgN9rDagZ3Mf4WjPy0kcMj8Nedb1r7znHGEkRsj8weofrcQKgi3/XEjw6eWmDr1FTzJb43wuBZaveVfhjML2D8wqNHRzPe3a1e8ETXtIAcjyg4+Ux1SPLG3slFes9U4FI1i1tZHljlwwUIyTddIxoqplOs/hhJQjXUkcQ46pVsqpVYACkgYfWBfRKAAMCQIDfhg1aeqMA8CAuP+98ufThXkBagJSANPfdd/9IPO/5euXjpfPy4GMcCDO78NL8uh15fwyy9u3fLwnOi26FAYaD0AGmjCEhjG/d2jUjtBqPBtAb3Su2Bm9/21uNmXdPT7cTtaMWKi8tdXkEp6d8ROcMsDBGdH0AicqKSq2o+LwkQPVOFE8bkr/34dNeiBzXql5IPrh/WcZKjz/5pLNhaGhqdBImZvB/+Vd/bdiqcH5Z+kWMinDXveW2W7VESSoslY/6itUa2FqUlpSpzEZbKHVAlSyskS5BI8DMeYHW7/3gR1JlXXJuvbOyspzaCgkF4KqsrFRqryq3Tpw6rRAtn376Gfubv/179dt1cun9VisrKbYvielj97J+3RoHbNcIED3y8184NQs2FABfyqsQEALAogqBBt77B9Pw1+k88D1f/Y3U/GEDwJE+dbUAHSfj0nk0H+U5iXxH44c5U92iVW44qUSY2GFv8WZMVK/IQ3mPkQKETX09bkqqEgW0v3qAXJNpi6vnNDYGzJw6TKoSY5PesCvGMqh0BZ3gV32yZ9J4MtKfhoGku0cNlWhoWGLrHCWN19lv2Ntce0GCjleQ4JpzgwF4gcHQCwzOwSE4XvD9cOdeXO8YLs7Neo+PF/fTv9LM9f/+5V/JULTOMaAAEwqIShEP/ehHP7Hf/fSn7APvf69A1ii1SI9zKgYrmDU0xqiLDxg7FALqHvbAcAidEWMCRQizhg5Jeh56+Of2jW9/yz78wQ9Kp5tv35IBIwZfwUGfmZu1L1y4wN7z7ne6XsiM/JAkBejuGfxh2oVi+m+6914nXk5MjHcz9B2vSKwnmwrP8JG8YEyuz/EBY9ynPKi7e19Vu0+qi6fE6L/4pS9LbL3F3vPOd9jPJCUgnjcMcA4NAvkEXnXZsqX2f//P/5b3ziP22K9+ZX/5138jicmDTiJGPVmiyZE+jurNm8lgCOrKh166/3oMtMH0nC7nKQJDWIxf1HJp+mHoe9NOTCYyBPLQXYcGVt1ckpEhnvZou/FGJ/okNgM4VUMVebXQIot7pKBV1+goiT0YqvsGrS0xxfYqD/bKmErgs+M7EwywpXK1HD/MVEbyYJkiebZu10fXO3L7up7I1XJUq2xqmvOsOkb2GSCVCQK+C+r1QwVwPUNfX78zRsQdd6gN1PUs51ryon/yDSO9QroSGuKWLLCErZutr6Jaj67SB9TPIyVJj9+8TlKdqUvQQst+I66jGRAZaKfS3xkISQd5QgeAN+IlZkSZotlVutM1vQYz6u99/wcy+mx0q0HCZYIr6h//5Gd26y23WLGMgPhACc6pkmbY21/e4RgdBj6zNODO1ez8sV89Ln1vqe2XEWi1jPTefM89Ytiz1O4BZsyAF5gtBpgf/eGcZuenz1a62b5gh5bHJjvQgo1CqJEi5cOI8cHA7BoRoOdTIVID0mwZOpWUFNtR2TpkSlRJ3TjHHsWLSx1cEG0BDDo4+OLVy10QQfcph91DqSdGTBgYYnxYWlY68h6kGwn6ILCN+Po3vu2Wd378Yx+xt9x3n339m99yho5FMtZ6/vkX7KGHHrEVKyRlkJoEK/jSkmJnhOsZhXp1GZP3SCG/fieIktFpA5jGe2eAg7MP0DE0oAvGIv1qfjAcuFUbefQNzSf0GsmEByRDn03mmm93mcobUJ2nakYSnD8rHGKUxxVjAaqCZElWE+XoaCgAzoPTXa/zuRnaZ0Cbxgk7XzXQTgBd/l3PACB3tmz6/q9vztenlvQVwGQ43oZzpDl//T8Z/CZXmPrMTA7RMIyuLtxHTv41+CixMegVsIjUUpFJkmryBfw6xhTNYIjX7uj1SqLAUBuFwi8JJFzNRqSlVcvALpwXAytyGTlbDakFfvXEk/akZtbULV/i+c9Kb/7J3/yEM9r7vc/8gQztUiVWf8De8pb7NIs+LGQdr7Ji3OwDuwfOEdMz035YM3Kcz7z5TffIdmG3/dXf/J0T7yOVYLdPpB1IBeg/SAhIH7y8lQGJeyB3QMoHJfH4l3/7vP3xn/6ZM0rdvHmTRPrrXJmsU3fLsdRvMTjEhS7AgTwogw29sE5nlsQME4PB9evWunp96Stfc+CFujPLxwiXcknHoEA+WF+jzwYkHZWR7R/9yZ86VQb+Ge5/85tkiDvbrVDAOPK7AmiLJAn5b7/5m6JvqdLHuPoGyo+WukLvKRpcyRWubNOr3uFDncrHetUMr38E2iXqNcw6mcF5kpjrX7tpniOrF2wKqx2u4XW0qEzLBP3wmigwzb/B1/RuQYkj/uIf/30IUZ0nZg16Nu4pEoSUlET75Ic/4HS1480Uxs3gJn0woFlVksTkWPV6NIMxOymO7CY6Zbl/pKndZssx1Xx5X+sXAJg4DDnfB7//2T+Uwdwpx9jCxSeXeWXl9nd/+1eysl/nJAhID/CcNqgZtVcKAzszdGbrrChg622YK5tvwXhhpHiac8xZTBwLfRgr1yzrq5e9AdfM/nmG5ALbABgxM0qYtGPqqg/ls+EOYIDlSQToQDqYNHp7mAROTfCxAXPNkc4fJo6NBMsJiUN6+i91Y0kn3h07tS4buvKcPDF2pQ4Yy7JKA1sG8qGu1IMVMayaAEyQBxuPdcnzGs8BwgBoaMFMipUQvC/tR9718jFBnkg5sHWgXpTHc6983tOVr7wnE8Dqp1rarVnvtVQW8jizwa4hKlLSmr5L2tSnRuRgCkhMP/gU8CngU+BaKaDRX9KriER8ZYwdnyplsB7xJ//zL4Y6OiXWmsJYA0BgB7U//f1PuZmbx+yutYo3SzqYUUI87j6vD0CAkbKi42WpCA4elAc5zZhDgR5tAxNlHf62bVvdzNhrL5h+sBiN+96PZ/y4htlyJC73uEZuHzgPpOEZDJ1n/ILTk5YQSOdOXV6k8crjLtf8CF5crsnLu0d879pL66Xzrr3n5BH6bCQ/5eMBI9Jx30s/bprhehGP4OXFkbK8OnvlB8eDXkh8JhPCAYQYTfsuVB+x55/9hXxDnHNgQRWYTHZ+HJ8CPgV8CoSngIak3oEI7eK8wu66/5MaUkZlSwCEaIzUAgNi+PTj3SVNaIBB4DITz3vMrrwAg/JC8EDq3fOO5EkeoUaN3nP/OJYCMCCMae57070Se9879mHIFXGdQd0wc+Oxx9BCorrLcO1EHsHtildBL/AsuN3CpfficiQ+v+Aw3r3gMokfWu/QdMHPQ59xHZofeXLfC1NJEy6v4PJD8/bKmPJR69/7Os5ri+NmO9fKyo1RgDPlvPwEPgV8Ctz0FPA4eE+/7K0uyeOm4Z9iFCBAoFHOzdVrCBidgDjwprhCSxXxoKg5mUTSHbbzlVd0xswvSr4Q8qykuNgxK1ywAiYIuMTF//ahQ4dss5bluXsCG57hmrvh/7mCAjAzLLpvRKBDOettATk2eUKSNJlAOmJydJbcw+kdIw6TAfG8MFEJxIsaBqrUx4urruTKoXrU0bvv5TlTjwBohClRkZLQRAS+GxzGBMD6r8tbztTW8evtU2CmUABp6aikF97rST1D32AYIDC4jA7LzIpIwMDjzjWrH30amkVA1Nqo7Vi/+c1v2NKly+xxLQe7TU5xTp/W2vnyctuzZ48AQWArz5dekiOcu+92TpP27tlr8xcscFKDA3JKg6Okffv2Op0wFvAX5J0PPwh4ygue4V1ZA//OjaBAl8AcvubZpKYsWS5vtWudOkmACasLOUWArj2WDBhgSRve5DjvE7O+JHVWXVevlSTFW6pc0o6uK5eYX//61XGxveCcfLD4BgR49s6BPAPgxNWnvVNlDGnHvCRLBHCqAqPOPAAAQABJREFUjMuyGbiocpJliVykclhSBoBQNqpjoL468N+VNdNYK98CRpmrV2ofC3m3i5WNwkx7hxvRX/0yfAr4FLiSAvB1VNOPPPaE/MJcVITxHYINA4RR9o+xFq5Rm2XAxgZApVrlcP5CjRPrjocykB7geAYPiO/Wmvbm5lZ7Qa6WX3lF27SeOOmMvYa6ZLmuATwzKdOefuopWymnSgcOHpDXvT1uLfPChQvlPe+8HZO72xY5xdl25532c7n83bhpo9vYibJ9kHBlY9+oO8zKG7Uc8ckLMkSMjrQ99c22OTvdmnv6bU4C/udjrE4GhV39WuOujWrYvKapR26T1W5Hm9tsg7a9hYE/XH3ZMhT35ctNjvEvzUiyWMXB4xzLx2B0h5rarEsgJEYd+Y45mdaoPkn+0arDxc4eKxE4yZEtx6sNLbZTvu7xcd+osjJjY7TtrsCtWP+uuibVK866BWr45aqODfKxT50KBRrYZU981hamybBR5cwkBssSysz0DFsmF8QLyopvVBfwy/Ep4FPg14gCVecuaKn3ec2UJgIIjJKj+MDwX/3W+++RIdR57Y52ye6541Z7bvsrxhac7KkdEGeOpRJqALzKIUV4WOvC3W5/Okf6wBa+WdpIBDe6hJ4ILYtUkZXaewGLddanx6TjW33AGdMlOot2bf6ksvBGd+b0aeXTL4nG9XXWMfYN/KvJUAAmyr73zb1DFqdZ+R5tbRsjEffBxjZLEGhghUKtQEJLb7/lioHjf75NXsfSnaQgwtIFHJAc1IlRFyXHW2VblyQSXQ54zNOqjQMNrU7akJcYJ9AQYY3d/a6MBjH1XgwOhytZL6CyUeCEutwmALFCO+rtvNRoT15sMHbY61fcBIGRGkkRDjW1OtDCBjqADKQIz9U0urQZAhQRETm2LCN5EitGJkOhGxhH7xFqkHoDS/eL8ingU2CGUyAcLw99pZG9GBDnYvD29re8yS3tWrF0sfOD3qdB+C6BBOwD9u4/5Jh4aCbM7LO0/OsD8px3/Ngxu+uuu7U0rFPM/Yxla4kcy8IAC1SosqpSbnLnuh3xUCuwzzubOx2V5GCRVAllUkkgLQA84JIZ4ME6d196EEr1N+YaJjtbqoWTLR1iwtG2NjPVdtU32SGBhPXZaXa8pc8xW3a6K01KsL2a5aeJETOr7xJYgK2liInv1/08zfCRKsRExkpNAfgYsFlq+3SVgcQC1QSa9iTFaZEXuwQt9StMijO3MFPx5eBZ5bZaiwDE6dYOi1faRAGVWgGLIQEXVBDkAeCgTIBDko7nO7otVvYt87VUFzUHZfvBp4BPAZ8CPgXGUmB0LwYNkhguVEsnEScGgFQAhu4xZjbWmQhxYLk9f/585zCmTwMzs72Fsi9g8PXyoGgc6nAPwPBmWd8zNmMNX14m72ukY4o3HALetsZax3vP/OONpQDthE5/vva875Qa4W2FOZaopXfxYt7Z8pWwbnaUrRZYwB4gUcABMT6zeeIgwscGIFHX6QILTT1mDxbNcUACUT+2DACBbvWJDDkUyomf5VQXBfIZwf3L6nvsmIdaASBLD8mSNGJZZop1yYUzdgt352U5+wjUFOslXWiVFAODSvJE4pCpfPdJ4rG3vtXWSeKQnxirXCTV0H3ezQ8+BXwK+BTwKTCWArJBCDBkxP642Z1fXmInT1fIg1yR26M7XTN8XDHnafvcI8dPOoPCsVmMXrHMLXjXBUBAaAh+3tMbsMQmTri4oWn96zeOAvQPxPT35ee4LgPog7HWyuCQWf/tEvXD2OdpVs59DxgWS5VAWndPf7fmZowBnojJPQNERP3EZeXBKFAMGDh6+XkUAHBkx0XZg4VzhssLGCryPJA+UCbXABRsFDrUP1FtYA+RrbqSJ0aNwQCW+DM14FTqnOyFauvqZQ+UaoXaCTMpKeD8BB8cqPECTpfG1zmGe3daGnfYtMlEfvkbtfMlu3FmpKU5B1vh8vLv+RTwKTBzKDBspBioMAMlLnDnaO9252o2I8N5SsTbXvAa93Cvx+DhDbTB5+HiXo97HgPxygzOM9iYMnRNuhePOOM98+L4x7EUgKH2arYeHLI0+982N8tJCBDnj7LlQKxQv/WsZBgbh+tAkGLAO1WUoPPg+6MxXH/rDYoHaBgJQafkmyRJxp2qZ2ClhBiepFXBAZgclCT40Yw5Z0kx3ivxfomb6A55YsSOiD00WuV9suZSrXaiLLJ4eY5E3ZIhZ2ctMkTmO2DjJAyUL12udSAiJztLaTqct0s8a548fdatLppXWuz2tEiWt0+8UQJGWFGRI++ZGDVXyokT3idLtRMoPlHqtEcI2+ripbJJxsvkBdjANThp8DDpB58CPgWmJwVkg6CKDY+MMN0euYo9U1Hldtmq0uY7GfKtjwQh2NlR6KuQrlfuaXEHS8D1LC5r+fhDmTDX5AVjJx2SA5wjcR3M7GHg3rPRPDS8q77Ew68/z3GH63nwIz/isjUwccgD97ecE4f4HjBo0UY8PCPggdDbGdDd8P+MUACaEphFug1vREsvQFeumIUTjyWI3OOcY3Dw7gXfpy0ILp/h+C4f3ffi0Z7c8+K5k+E/490PjuOdk30oOMHOQXxLzFKx9FwYQrNsd+olm1FHVHK4vL6obbOhTZtcPNfLWDhFhr+4gOZ7xHK5s7vLeiVRAUgQD0adLUDBd89z7p86W+Ekih1yW8014wKio0NHT7jdFtNStYW17qGKLJe0MUWAgVYCZDQ2XZTNUsAddptAQ7p2bkSyQD60ebuABwBl2aIFtnB+2YyisV9ZnwI3EwVGJAiMwc6PvIwLF80vd7MCljiyHWevVhrU7do7MlCHEohBpqqqyu1yx7Pm5hbnLAmggD+DSDFnb6AHOJw9c8ZYrUB5mZmZdv7cOUuVWBJm7wUYOMsm6+vr5Wdflu4a6DBiJA0b/LCEsrCgUDYNy+zkyRPye68d4CRCJuzbu1fi40Hrkch1yZIlVlRc7Pz5z87K0sDV4sDFGdUBh04ExK9ztVGRx3DcTf+PY9Kd6g+9mvGxjwF7INBGtCVgi70GaGPojo0Kgz+zSZ7FihmQjrikYQ+HVO3S54FD7jOr7VN70s4wL0ABK2XYaZHtp7mXkZHu9lroEeMhPYG0lMmeBwA/dmf0gteGHsDg2gMgHEdBiYCklt6+ci7C/WTSYHeVDdnybPleEFAYC2+83Kf3kfdjX4tsMfxcGQfXSBoA44cG1WL8WZnp2n+jzUlRkDAQn++zqCDP0RsGvmhBuWu/o8dP2cJ5OVasZ5e0jTjtgeShUeCbbbeztPcEbdmkb52tlAHs0Gxu7hy3ZThAo0kqB9QNqZJURKutCqTyqG9ocvtrZAhQxGNTojp4bTa9qevXzqfAzUcBTeX10gIHiF6ZffzX177rBnk+XC8wIDMQjCdFIO7cuXn26qv7HfNOkUjxkYcfdgN4Xn6eRJKtbgMdmPlyMeWdO3e6QYgdBmEOzOQBAsXFJW4WevLUScfcc2X30CxmUVBY6JjT4SOH3Y56MBx2yKNeZysq3AoIPDeyLTEb+2Ro8EKa0dsnacjZM3IGcV5Oly46sANTy5mTo70LDgQ28dEgx3vff//9TuoR/N7e+9+MRwZtGDXbGLMZUpoG+gaBtNS0FDGAeDGEbjHvDNduq1ettMtiRqdOA/xkxChmkJqa5kCBOICjK1IdHF5t3LBeDMFcupe0fLa5uckKtXXyiuXLHdg4cPCQ2uysW92yQEauMLt2zWLrxKSKJbYGELB51ImTJ+VUa58DdqUlJQ5MsGMidcboNUErcthFkr5Hm3NNL+ddABdZWRl2oDbRPveypGZyNdqv7n6kdsj+9p5By0uRO+axGogZ0QWgDbtmolYAaPG9xsUl0QTOFqFbgA3iA+KgAbP+WLfU05FGNAzMF9Q8WmmUbXWNjXbyTIXzhQJY62RDLNERKQF2HqgeAQZOOidJAls4sxMmZWQKjADG+LaQLAEwsX9AddHWwYZc5sYU8kKl6W3YNSMI7VfSp8BNQoFRFQMgQV8tHpbYfS40eDOv0Ptcw1TRSaJfZGc8ZnQMCDGadSxevMR2vPyy28kPhkI+RRrouzXjZNBJ171WzeqRCgASmH0CGtiGl53zGqVThdnHxca5gR4wQRxmrpGSD1MevhTYwc/bCdCJi5U3AyPlcN0vsMAAiDoBKUT27Gwq7ga3LuXFQEedfYAQaGHoAJ3ixRDyJF05omWoy5cvE407bF55uR0+esS1V4OYCL/i4mK3OyTM4tTJU+pLkc6PBbmdl6pq6ZKljllcFoBrVPwkSZKQDCFt6pdcH4bGLJU+MEcAACYFc9+zd5/TodM/qqqrLFe+MbzdG1evWmWlpSXawnmPq1+8tnjGcyP9g22pAQrUB9E7fYoyT505LUYWY3dsuVX3y6yx0+xgjUoTX8tNVkeZwSFNM/VN61Y719uBPe0D23LzSuWyPQBQ800gXYO5Q1O+ee9Xpu/SC/PKShyIgJ4YJtIfSK/IbjdQbAqwV6KPAArIyz33MhBJhwQaAADE9SYXfP95kjLQwNHDKkme+8GngE+B6UeBERWDVzVvsPCuJ3tEF3nvvW9ygw0DxbJly91sDhVCiWZ45BsYrCNtzZq1Digw22Nmyh4OdWIcSBcY3JntMeNk5scsMl1e4zxxsmNaiKwlngZwMPDccuutToy9VBIKBjJnaa3yiMs2wNSB/JA8oE4gzsaNm1xZ3ZrhoEl3oIQB0A+OArRXTHSMtUkkDdMG9B07dsIBMrY+hiHk5uY6+tbV1TtmkKn2wG9GTs4c19Y1NTWOoQDiDh85omWw8yxVbYraCkCGkRvbJMOwPHBIW9EnaDfidGi2OTSU6NpuSO3DvhMAz1j9Dh0+bOckHaJtAYIAhBIxOYAn7Xz2bIUDrZFiRMRpbGxQvWNduzeo7w1l6lXBBMM/dYsZHWgz2oVfuDARyCd+6PPQfPh+CbSfF6KjR9WCoekBXfHxgTRefI6oMvzgU8CnwPSnwPCXzsgoSP8aAkw3dEBBrw9YYMAmEIcAwyDAYHiOm+WysrIx8fCiSHxsFWAMMHCuGQQ5MtsnLeeInL1n5Ms5AXsH4hMPh0vh4gREzwG9tkvk/3EUgFZpMlC9+65tmrGjTkiXiqHBMWrAGjNLQEOR1D9Jkh7hRRGGDygryM9zzxAv03a0VWNjk2sDx8AUr08SnfXr1jppAPttYOsAIEiTQZu3HTZgcfHiRc7RFumcJ09JA5AwACDoE9HqW5SLtIH2jhUAoM15js4cwLJyxXJ3RPJAXMqeLSCyr072EbM0ExYPk1DB4vVzk9kZDhT8LuxTwKeAT4HrQYFoGIEbD4eZ6mQydWnCxOd+cGCADxe8eN5zrpEEwMi94MUZGs5j5Hq4DC8t8b10XpzQPLj2nnnHcHG8e/4xQAFUOLOzZws6BkAWEh3o580UobsH2PTA9SPAIPF4hiSAwDmqIY7orokbLekEAJH0tCWGbATy58d9AlIJ7x6AgEB8QGahwAnPCFli+OTvpWWp3fr1sneQ9BrdN9G8PImPU7CVcwbtq28fsmZpodjnIVNmCpnxEqWP7cZE94NPAZ8CPgVuOgrIrkie7vSbivwgQqMtaVAreIPyTUe5a3hhj5ldQ9I3JokYJbYgXvBAGW0+UfDieUfiBp9zDS2C7wWfe885jldWaPrgeB6dY1iOoJ6NLUK4gMRgQRbLNwNP8dlAVB8fhKOWf8+ngE+Bm40C0Z/6xEfGHUAnIgaGX8wwWX7mh6tTwDEtzVpnamD2HQCFgX3EuUaS4DFmngX2GA9IAKbDeyI1iIoUmJUUAalAKPPnOasX/OBTwKeATwGfAldSIHqulvxdW0B64I+uk6aduBGGczMxAG5YNVIr40SWyM2RESLXrEhAjcDytktyzoM9R64s1AELoRKB0Pf2AEaw2N9LA/DwwAdlE4dnXhrAKVIBrvl5cdxRBdErAS7sC1HdZHa2McIK5ROrJD0gLfB7bWhr+Nc+BXwK+BS4kgLR3qB85SP/zvWmwIxkTBK/o2Y4fPiIfeG/vmT4m1ih5Y4YKu4/cNAZHhYVFdqTTz7tjBPXrFlt69aucYaj2JXAtEMDTL1dq1BeVXqABn4QMIBcvGiRAxdnz1Y4g8V0GUbiHOn8hYs2f1651vhrrwE51cLIMFtLYFk9gSFkjgxQWVmRKgPHVq26wEp+2YpV9kzlLPvibhkhRsiANirC7l8waB9dFdAhUIfgEK6ewc/9c58CPgV8CtxsFBhdr3Szvbn/vlOiQJTWuq9aucJWrlxp3/zWt61cvhA+/tGP2PaXd2j547GAu2rN2mH4+EXAh8V4AWbcrFUHzqmVjBCrq845YFCn5ZQEVhvgrwKggNSlSUsU0yWpYGkragxWM1RWVsmlb5Mzejxz5qz8d3S4lRNIM7KyMuVuuNYudRTZXq20xAAxTgBh6RykDVIraGUD6/MBCUgaWNmADwYwQ0AiETBi9CVk47Wgf9+ngE+Bm4EC2hE3IKK9GV7Wf8drpwBMtVo+B2K03JAZO4x41+7dDgykpcmFr9vbQtsvi7njWClgk3Cl9IAauLm7OLW3a2OKVjCw0qBdfvtZCwH4wEdGSwub+8Q70LHv1VflT6NY24KXOeDgbGCkiqAOWXKhjSe+TPnLgOFXyaPm4uWrVc6QdfXKQ2hPhGVphYJnjIj0o6L6vJNu4DOD5ZA4+kL6gJQC74LsH8DKCF+yQIv5waeAT4GbkQJumePN+OL+O0+SAuLx2APAhAvzC8Q40+0db39QrpUv24svbbfNmza6Z08+9bT88OfagoXz7fiJk07NMC5IECjFdmGO7F/wsbBkyWLnBbNLkgEgBT4XBgcHnFqBGT++FSg/MyPTufpl6SV544UTXw24/z0nb43sAxAltcaixQudp8zeC4Pyf6CVDNqiQ9k5I0XeOkIeAPG1AJjBvwIShNq6BqsSAGJ786aWAZUpd8wCCH7wKeBTwKfAzUoBX8Vws7b8FN4bKdN8zeoX/+Fn3Iwa4z9cHq9dvWrket0azjEQhMUjxh8Yd/bNrBznSVtv3+LSMOvHpoAjzyjP+UggI4kbFiyYN5Ifz3DO5IWy0lKXhn0eSE9QFHlcHLD1eUP2mVu0KVSPWbp8c20tGXRSBFxusycAKoSBgX5ns5AylKTNicotS+CEnQfx1ugveHTk9P/4FPApcJNSwFcx3KQNP9XXdnsc9I5dphls4Bp8Ppm8AQJ92kMjNAAACB6z5zzYjwHp+HnBixdaPuqEdQIImwolOghk6SQIwi3OM2OSHCmBZSivXysk2NXQ7S8gyURgE/CxdfDKmy5HnFd5tJoudfLr4VPAp8DMoQCbqF0tRCM+9sMNoICY2sAkGuQG1OSmKcI5ProSgziAMcDDoOB2IdS1BziCHk27U8BBu/aouKxVHEWF+fJKKTXK2NeZdnX2K+RTwKfA9KAAEwukpFVSy2LLNZG3gugvfeM7zjDr6lhierzcjK2FGmWOti5+xwNvks4bD38zK9Cp0PsTQJ6OHw3P5D3e5DFX73i1NxxvBqzsxcRJ7e29EZjpe5IDLx3XAFzvvkuhezznHj/yihYGRqJAljhL4jeTA+/M9uuPPv60vfjyTjksm3n9aSbT36+7T4GZTAF4PZveNTQ0ujFd9ufjhujTZyu1REzLysaN4j+4LhQQp2JbavGsGRdguGzR/NivnrDq6moZFS5yzPaIfCOUlJQ4B0ksg5wru4QObbt92223XPU9Yd4sYQww8bG9j3vs6QCt8HmA6B/Q4e3SWC+fCewoyIoKdmlkVQUqBvJjAymWWgJmkpMSrbNvyA5djrDj9TKM1CaCK3OHrDhtyPpnOEigE+EDAnp7dh/QjV9gvwtFGEvWN67f0edVF/oR4NIDeG9chfySfQrc3BTQZ+gMta9GBUkno9xGScFjCYMMOmfuMVvxP+irkXESz9UiM3nfewDC/v37LT8/X0ypy06cPOmM+3CGtHPnLjt+8oRtveMO69OKA/rOxg3r3YZK9KXQQH86rxUDj/7qcbeSgG2l6WzYGuDngHDn1q0OEPzy0cfcUkeY/+2332YFBfl2QA6WWAKJQySYJEsVKWfBgvmWJMDA6oo1q1fb3PLl9p39g7b3YoRtyB+yXeci7OHjEfbhFYN2RwmMNLRmM+saOkbIv4MDBaI5KzKwpWCjKnbXnE4BENPT02st8n/hduVU3d9I9SY0C9c3pxPN/Lq8fhSg7T2J6OtXSvicI23AZC6th8FcN3zc1+suMmApF4brMX4pV6xiYL07a8BxwdyvQefChRrpOzsDes7hfCAuhl28HkRmoHL3ZAGGToN7XDPgox9158OAgyy8hsHS3elA9Gx4kuEGDWaLXDOAeAOds4rXXQCNB1iYNbpBRuUPqN7eeO8BG8r16hKob8RofZTWefpTOeRDOaTnnPwpxw8BCkDHzMwMu23LrXbw4CEn0mZ54/4DB7Sk8YRbgjhXPgS2b99hb3vrW+y2WzeLhmNF/6G0TEpKtkXa5tvRfpjWLG1Ev474q6293XlTXLZs6YgvhDb5Sbh8uU7LI+doWeN5SQvy3PmRo0etW8slCaRjuWRff5+dajB7+qzcNqtDvFhlVtsRYUmzhuyh45G2WcaL7OWkV5vRgW8lNnaWLZxfbuvXrLTCgjxLjE8IfBfT6M3oQ7RrvcSaBw4fs72vHrCGpmYnUbjR1fTGhSWLFtrypYvMGaze6Er45b2BFIiwYydO2c49ex1ovZEVARyciVxir0Zttl7T0qo3KMRal93S/7jNGTqvGozP6wQQYKeBABNes2q5rVy6WJ7oLjsx7i3r19gLL++y02crHENlaRhe55YtXuDWinO/T8yZmcu8smINAE1WdU7ryQUy0lLTrFIiabbmzc3JFqjod8Cipuaym+2UFBW4dfDEhVnDLGrrG7TePd0x8loZYV2urXfnC+eXOWc6pyuqnIFFtMTOeXPznZe9IdWptLgwABCGR/yGxiaBg0i7oLIS5GynvLRIzEMOcuS1LzExUcvZ0sRkLro85+TNtUu1dW5pG3VqbW2XU6ALHln8oygA7Y4dO+FE2rGzYu2EfB00isa0e4b8EeBuubKqSgy81p5/IeAfgRk+g3Fo4F66/BfcoWWOrvfpD9E84MfzHhnRcMRREsG7V1NTY2fOnHHLIgfUX/G5wJJI4pMXyx5RQfSLGS3NHrT3LjV79FSEFaQOWYayUpewj64UU1XPn+m2CICDDH07twuQbVy/2jl8GhDIglY8m26B5aX5c3Pdj+/58aeet1PygnmjA/TBMdb61ctthQCC1+9udD388t44CuTn5jiedrHm0g2txKCYMeCgJgJ+9cZK+Q5HrbO5/VV6/wkBQoA+MGeY6MJ5ZfadHz5kHV2dzqore3amPfDmu51oEKaLGPOD737QZmdliHHH2KmzFfbk08/bJz7yfmU05JzW/PxXTzHa2wff9Tb7/Je/KRuHbnu/zo+IwZSVFts//8eXrVjW19zbf/CIbdLgdrai2gENgMm2LZvtwsVLmiEm21PPveiAxtqVS8WkOu2OWzfal7/5ffndT7FPfeJD9uL2nbZ7/0HbvGGN5clRDuVWVFY74JAt5zo/eviX9r53POAYGVPJV3bvs/r6RvvQe99h3//Jww4YvOtt99njz75gt9+ywQGGWTGzbN+Bw/a43gvduh9M+yzk22d+73edfj9NTIn+0q7ZOv4MGHC9QRanRgRAJPfHCzwjj/ECgJE8kWh5AbsDvDSmp6c7yRBxcHbEJlG4TkYaRX3IFwYZFSmAsMxsU4HZaW3YlCjpwSJ5gM5MQALm5Tozj9gZJMnG4tZN6+2WjWsdwA6m1bR8K3UH2oZ2LS8pkh7pdifpOavvFduEGxlcf73BZd7I9/PLmpgCuHL3xqyJY17fpwj2+U2HEFBzTFwTGRgoggYbBuzlSxY6IPCuB++T2C1RznCy7YE33eUsphfLWQ0iwsL8uW5p1b984Wv2tW//wKXdKCkDjOFv/+UL9tiTz9nW2zY7RhsrycFbBS7i4ma5Yo6eOG3JCYlOfQEQqTp3Qf70m+1iTa395JFH7ae/+JXVSYLA8q0vfPXbQniVtlRiwNyc2ZrR1wi4/NR2STSJ2mDRvHKpFQRqykrcjP+LX/uuvXroiB08fNT+6+vfsTpJMmDuSBYSJHL9p//8iv1SwGX96hWaPSRqthVr92iAYjMgFBqJmqlmyLvfizt22/d+8ogDDj44GNt5kAigakCtE63ZIJIDDAcBjRz5IZ3hdz0+vlCAAdzAYj9ZUgtAAeXikTFQboKTNsAkSUcdsTEAo5dlmN03f8i2FElyETfzwQGtAkOdX1YqEflivX9gUyxv0OPojUF83rQF4GnMfd0biT/MKIkX3G7cdveUFnp65148Lz318QLxqM8YexvlA85GesMvWptnsQEYkwSklSkCdf6+Fx4F/eONoICGiOkVEPix2W+o4I96Xm0yw3Piee80fM4wwM/lGZqvbk8mjMg4GHhbJFovzM/TjH6NmwEyg0eviRiTQZmPODkpwc3aAASI77/1g59anFzVok9ERVEjEXNCfJwzHGMXPsT/W2/d5AzX2LHvfM1FWycmXVpcYPv2H3IziiLpTT/+wffY/fdsc3XG/uGzv/MJee8rFcPeJdDxrCQT8fbJj33AZklqga56qVQcO/fud2BhflmJSxcYuGS34GafECfSqSuatE8A6z4BDREawJhlolJol9j87jtudXWsqa21x556zkkv7rtnqzXLCG6iGe5kiPvrFgfGy8zcMW51Qu+c69Df6/nuwWWF1sEr19VRF3wrrFjokSCiVx8SoGGmBww52XsC8JshVQ3fJSs3UPm4PSy0BBIGDA36pNZDyoJRZ5vsRPolaeHbZUOtJn2zSIHYmwI6oqYhLoFvCalMV3eX2yOD3TKx7+iUgSpGhnw7DQLz7MHhfSfY7dQL3LPa5YBsVQL5iP6i+2GtJPnXHVH2Ny9E2nOVEfJuGbAnKi0ucurH0dHNJbvhf1DNsELnhGxqWmVI6QXe7cKFC2Puec84QmOvDwbfDz2nXS5evKht0S85Ooc+n+iaMjASpm04Jy/ajXJfSzh37px7L/L0wxtIATVjuSSbn9xstixXIJpmpUn03eQkS9A2X6Aa8DB8D9fxDjQMH9cVmqVKfRqH81fdWypB+kMfNvvhe/V7n9k33mNWmK5n19BdNPVQQg0GIIVnXtwuxlnr9M0MAszud+551Y6fOiPxfQ7RrLWt06kR0A1nStS7af0qdbI2K5Z1eZyMpfLzcqWe6Ja0gYGp2x55/Cn7zG/9hrVrt70+jRT7Dx2190rkX1/fZCfPVNgGAZDTFZX2xa9929UDnSDMedfeA7ZFIv+ubvnqFxj4ufLJkE3D+971VjcgFgnIpArAMPMnzdHjp/QGwQEbzSFnE7FCy/KQiDj3uho4qS8W1U8/t90+9sF3a4AbtBz5KMCn/5e+8T27Z+sWu//ebU6KEZyjfz6WAjARz+A0YGyq2XmQSmBs7OtzRR9kd0aOjGv9+t1s4xvqBcA7u1aiZoGhsbLj8JGjjnEUi+kiQQAQZGsJKHYaxJuTk+P2t0AK9Mxzz2slyQXX52E0qG0ACkgF7nvTvW43zkcf+5VjmEVFRQ58YOiLMW+3vsmSkhKBDNl6qL2Jv0iSvhrpc1l18uL2l+2eu+5UWfP0fcZadfOQ/fOOSDtSG2Gxyv+lqiH77OZBu6d8UBKgZEml0iy6Mvo1M7zX0sNOnzqt+tc4sMP7YQgLkMJ+ihU32Ll4DBrJGUya59Ae8DR//nwXh2tAE/RkIsI3wq6lx44dc1IY0iL5qtfOpeTN90Ne7AfCfiOkpRx2Q8Vmq1ljMPlw/6iMcZHQsJR3rlRtXvmk45wlv5TLc/IlDcCCPgDQYYJGvpQPWDl48KAtX77c9RlAAvlQDz/cQApo/EqTreLf3CNbqZNmv7NBDP1VqURlYJ06y2yO3Lp+cp32pxHzf+ys3M4LSBSnmVU2meXp2UsVZqVi/reXmC3KNvuDh8wWZpm9etHsb58KTI6+80GzL79DUtSvOfwwpZeTolfxVUmOUdrABkbLb5FUCsxKvvTN7zkf9czymZFjvIeh4O9+8qNOynDk2El7aeceWyAr6j/63U86RoyqILB0TVv2Ku7z219xon2YCGoDmPMZbdfLjITlTwUCFZ/86AecASO2BxgJYiuAJOH2zRusUTOij33g3erwbXZJVuwYEh44esx++shjVqbBEGaemakNfhjAVEdeiA4P4z8j8LFq+WL7vf/2Md032/7KbgeAGBQvaEB4+vntdoeASHd3ryQbK23NyuUu3pHjJx0QidIyMj+EoYDIAohkUGUJYn1DvdusqaysTINTpJMmTTQzYeAkDGo2HB0li0HOh2dEpHMqAl1z5JpnnHfJr8FRMZojdRFSHQzZyjlSD+lDUpSbKsTKxgM1Gd9UsxhMh77V2QK5MGykZJliRPT/vLw8t8qB5YV8k2ypvWTxIlspxsAW2th0sAoE5o4Usbm5yZ5+5hkrLi6285o514mpbJExaWlpqR0VkwNok0eOjI5zpIJkxQjnpH/4kV/YU08/bdu0RPW+N+MQLGCkysSlXaYpe7TclJnP6rmBIYc2i5G9D4yStvWWVr8RDYmEFEmBm/hok66TWsZL34bZosKqkgEu240zc4fJU19oDeP1jpwT7+zZs44RL10quymlOXXqlAMBqMMAA0gRGFu5BowQAAWZKpdvqUNeMrOzc9yGaPR72pD4lE39/n/23ju4ryO78z1EzjkSRCIJgDmLpERlaUbSjGRN8HrtcV7bW/tC1e76vXpV+579yrv1/tmqV/u8a3u9ttdleyfYk0ejkWaURZEUJeYMJiQCJHLOke/76R+u+CMEkgAJggDRLYG/3+/evn27v7dvn+853X0O5IJ7BZ9YAiAhnEP4b9m6RRbcWDt27JgjDtyPelBn8lJfvg+PDDvy09XdZd0aY7dv3+6eM2U8LAni9MMf/9Qqz1+wR3fvsqe1EyteFu4Fk/RKDErrv6hI9+sl4L95zGx3ociBeNruYrN6EYEYibSnVssKIMG/q8DsUofZv5a14VC9rAW6JkV5mbrDzwvD6qCsDS+WmxWnhMZF3jeSxPudpytczhv/hEbmG79dx2GB2SsvPOeAZN1AmsLxfnr0uGOldK5//MFrTqgPC/zGphY3EP3133/HmQrpxE0yM6KN116pd9cwRXBAJAKHTHT4/+8v/sZ5byTE79Hjp+3S5Rq3XgBBgOnykKYOWO/w4zfecuV0iQmzaBALBesTWETINjacxJzTdhWmNbjve3s/dowdgcPix3MS8j29ffbt77/m1jFgjWBXBNvCvqWpkSERlY/kie6k1i10S9vCopGnSIHcu0VTEAy+Pk2PAHPgra3N9t3vfd8J+ZraWlsprXLrli3SLkNhmRlYpyMJkAMGysNHjqrvjLmBsU3m6rLVq932RTdYahBukWaGEOuUZsR22V2PPm4fXkuVqVpOj1hLMBFhX1iFNhracrukOEJ4YzXYkxDI9Fk0WgQbwhzN9Vzlea3VWemEFhaAHgmLKxIUaJm8N4THLtOaHkfC9Gw2rF/v1pEgcOLj4q1GJBsBuqai3BGBFr1vzTktztpQKusCi5V/+vobmlp4y/bsecy+9rVXdf9kNy44BcTVToMVTIE/6h7UX+88ROFBJ9q6Xu2uVT8+fvy4wyVdu6mIXopwRhiz7gZtHMxKSkrkk6PQHacvsyYGoY3AR8DSh5myQYvPleWG6xDSHEfLx6ID3jyDiooKR0YQ3hAxrAOUyTVcz5gLkYZQQCKwCmAtoM5YdyAzlAchgeQwrUsdqQcWAvIjKNdoW/HZs2fd78cff9zi6uIcCSE/FhOIWkDcH/TzmKv7gwHWnw8/2q8twCucUjtXZc9JOer7TA28VyXZrXfj3z5h1tBtdr7V6exuK/YxWQN+dsHs93eYdYhP/s3hUPC5vz1q9hubRSAk+M+0mHXr3EBfyGqwTVMVMuLbf1Pe39hmViVScTdpkiDwhoaEIR2Eucf/+rffVKePdwPz0NCwW6jIIE2iw1bJMkCig6Mx8mKgrXM9c5H85mWAqTqBKwEQ+DTAIkA+/nB0g5+FILmFVBoxuC68DHY3MJJwHM1VF7t7I4DYWx1ixCHPfC6PykWrcsf1orJSmkR9sWDQJs7xUrficlLfaVeNBksS4YCpn0+3RkBP0AmJxDitpt+zx2mjmEHXrV3jLpqOHHCC4yxkXLmy1AkqBjfm1BnI6jQPzIDMs0MbI7RzVmaWm2tvVB/oG023c3p5xieWWYoUHQIyqbhwOXTrCj9EZwbVpwe0O4j1B1gLEOC8b88996wTVhAr3h/eLyJdDmiKD9eqOdL2ybtrlxxZiVCwNidfWw8zJLRYQ8S7jBmalC0BhYUAjcs9I13HugWcULFNkHckSQt+IeqYp//Vv/x927F9m2VoCgPrRZAwwkWLw/A6Xdcfrq/ReHi/hlnnoDpi/XuQb1ug6TNFgIBOVdhv+mGIdIXM+ght6lxaWuqsADU1NVakyKKh/trvcEcQ8xsyQV4EL6Z8wqMjqBDq5HHbcnUei8Hhw4cdvmWakoGIQFKwxCHkeYaQD6w/kD7Oo/kvz9fWbFkGjh496p4fz4f7UV/GOJ4xY9u+fftcHXnnDh065KwREA1IEG0N7smzom5c+7Clp5/cY7se2WaxWNychXlhtVA80V5ZK5mjarX1m31ab/brW7T+IMnsryXgv1yhtQm5Zj8+JyuDPnlEXcOssTPrFCkght5VLZt5ulTEISP0G4m+XBaEp0pC75qGibtKkwTh5leTjubcuKqjh9LNXs84P7UjTT3Gb/5I7tzkd34jmIMUuu7m++sCdzq8jIBccCIoNygjKC88/9Tv4fUNP0cZQdkcD88XlO8/p0eAuXDcR/eN9dllrVNpKWqxsvIyaTuhbY/gOR1J4DgDH5or2kthwQpNPVW7AQ2viGiXDKCYclls1y1tKVp9JiNb9jW9GMiefr0Yceomk11l+go+pEex3rCOppm579WlTvPbunWz00jZsQO+aKfO34e+l8hHBaQfwYRVhz5OeG2m91L0H2sT0FBdEvZcS8rTFB8DKs8w+MvXVuKgfPJwPEbm7Be++AX3XvM7nBywQDRPA90fPTVuv7dtwoiRxTZT5lGvq+wOTWlA0FnfELzHlDvfCUGPpo9QRcjSRvogghe8+A1+ofbGOIuLmurwRLGg7uTbvXu3E/p8B2uu2yPyTLnB76Asyj5z5ozzv1JSXOKIAIQB/NF8WYyKcoXFlGv44zxMCsIAieA3eUmcZzoiyMt9qXNwPvhO3SBl5OMc9Q/a/SCfwf185pCfBZn0LHs1/faHb4YIQbt0Xz0ye1cWhVG9O/36/ra+E74H8hBdKQV93Ozfv6/z+sQZHNJyRN8PNagsjY+H9fm1b5ubeo3Wdb+4FLJKkH+2KQrmfue5P156vQ0+3T0CehnR9h6WxECJufPll7/kBiFMmyUlMruuWOHM0Jy/XWIQZMBkQGKlPSZwrsCsi3UHrRhTOdoOmhSD5XI5tBo7O6EXRARTnR2Z9hBBeju4bjqHl8o+kXfW87BdOF+CnDlnUiDc+R48A73iThhgQoYUcDw4x+/wa7guSJAz/gtPCJKpiQGK8qY7R14MjxWaP12XE+oTPDMsQJCWy1W1zrkWwupBJ4hBeJoqVMLPQ4qCFAhgfiP0+QtP4eeD4zwLEtML4WTi5rwRFj+5Pie4Lvz8dPcK8vFJueFtuNX38DLDr/ff5wkBdX3eiUZZAVzS8AYZcEnnekQagu96ZRwjGJ78HNE0QnCuE31e+ftEEt48O3k8+EAn13s42xS1Ij9bbFJe6O7i/byOvdCnGSHAAJgr0+vd4DyjG8xzJuQ/ZsxHdmhiTEIGrRbLAdojWibm6kAITa0ax9O0Pe+5Z55210JQKY+UL5MsGEGmVq4scWU44aHzIyrz6dIJ+9Mva45VzDpZitP25dx7CRIFAcaUHmtzntU2ZBYshmvuITRv/vdWz+PmXPfhl54du02wJpB4nljtLl2sspPa1cQU48OquYZafOt/w4X2rXP5M0sCgXBxeqfvwfngE4CC73xqXcNcpKh3kv7Aeu+isGWRo5aad0Zz0JNUZi5q8xCXgRArT5OXvykawWJuMgLHmTynNOJWGml4NqYWRiboOzen8GunKqv0+zLNsa3NlrThhz6whmOKW2oJIQux/1iLf0lPPLbTLSYGv4VqqQqIwage7MmzlfbOB/vkF0W7J0QWHkSC1Dry+SBu7u/5QBF4UH2ORkuleaBtD24+E4+OUR/UsugvuGQWn9HXLdW0aCdSqtxn1GUW1y+hrJJjrksMSLsex5bk010jwEyXZiR8EgLsWGCq4b2PDritxzsURwXnSSlaQIh5GQK1IJLIHGSSqSN2HJ08fdbOnLtgvfK7EKz/mc96QgpYWHmpus7tKMAJm09LCwG28uM8bL5TpDwZrZo4Zz2R6QrWdGOaar7rEaO7r5w4rwnE2887RLH4YeDmKbMZ1VULmOX0RO5XHfvHvzRmXkVP1MsXnsYkEPkPtu4Ye/jJye9jui5K58f1eas801y2aA6BDZyRhXY+eQTmEgHel+sinlXVNfI5UquphjgtWmS7oxYXzuWN7qEsZ+zRu01QN3Ygfbao7wG9DxAEFuzt3f+xHTx0JESm7qF9/tLFhwCLpFkzM98WJATy1vEDVj5xSsL5wcmDKBGVhOu9d6zDXVCD6TsDZCFHXtPq5YqVAWFYgxZfNmWkaAWmVivLEdG1gWFHAkaxCyvF6Jpo7YFaoUGtUVu2lovJd2j1RZdWYkAYAtKhr26Omk9SlK4bVfmR2O2VCWIRpe/kR0OP1v34hLBwHJLCtdxvwafJNi74evoKzgsC4d3BUW11ctb+qGvflCIiQk5RB4bkH0RTDwstuXboJWRApq6kqW2Y3zpLIZE5amABYjW/OCzNu9EP8R88332Q15Z3IfH6/Fsvbn7SeBoOWQ8m3Hgy/TztnBAEBHFBUpz9mw0r7X89cNoJ4i+syHZC/6n8TMtPiLN2+R5YkRhve6+2WqNeSoA63t5t+dp+8u+2ltkfHjxr/3bTSvte1TUHYJsIRZw2TOfp2gHtz0jWvmKIA2TgfFe/bc9PtTq5fY6TKXVFYpyd75aHCKWS5AQ71d5jxfpM1R4P8m7MTNGitjE72tbl8izMf0KiIFwgLMx6+lo9EASWyd9IbJZWpSdYUlSrdgYEQ80DqY2/qUfAI/CQIKDVAhabskqt+fyUx5wQhBs4yX+CVpq/uirPXi6WRweJ+lbIgKReqQR2lqI6Fqck2peK86w4Kd7+Z5EJtPuVOvYn2ypsfXqK/VLJhO3KSZdDnDEtYpuwOu3xWJWaYBCGZHl4RNC/e7XFvloqX+SyInA/piiwSmB1SJeXxP2N7bYtJ03nx61f5KJUzlw6ZVIcPjPuSMlCNPWr6s7KAZaeJNzoUUvxW3hfCDrFxPUIKyjebL/9jUSb6K9WH3F7F5ciPL7NHgGPwFwhgAllmSLxZj6moWY6goA0mgNlhGIgAJulra/LSLaL3f1WKItBho71a+6RKYeqbm1n0uiXrWOx0vxTpOF3S+B3Sfj/U1WD5SSstFUS5kPaD3VJ1+dpyuL1K032a6tX2LsNrbZe5UICtmWlW7Q+U1VOg6Y03rzSYl8TYajXwqMCTVNAOCAS1+RNZ31G0meWg3zV51ib/FgugISJK9h2FsyDYfQilkSTSFWhomZimZmDR7MAWuurMBMEgmcNMe5S/yW5NTnqK7xfkVFxFp2+yZZlbHLn/D8eAY+AR+B+IhCauJyDO3Rq7vN0R4/9sgT1SZn4t2emShh3WY2mAdJjo52lgIGvSILvYHOnxYsc9Em775ULqB/VNtrZzj77SW2TtYosPCYLQl3foKwC152wfE/TEtW9/fLYp0A0CFYd7xlNk3VgzK72D1tN34D9vL5Zcyo6roF1rywIW7MUolrTEn9VWSeXvNFuTQJkggF3IaWAHGA3wLJRnBBjR4Tf9ztFZCAIMDyl4HMh1d3XZW4RoC8Ef5Dj9doWG95fQ32AucJQvrm9uy/NI+AR8AjcjMCy9P/n+vXAA9PNp27/KyJqyLJKFBxpcpsjw9aQzP1O09HCQBYJMri5dYSTqhHnkHfkRTuOCzlkd1MFLGRkyoD8TDsEAyMLESmLT64JEmsRUK/JF+ThHHnYOhXSvkO7I4Kr2GExdZdFUN79/OT+LI/ckZ1m33l2u6ZKgkVaIQLA3nVW1LK6G8+W+uFWfE8oRr3b1642QYpcg+9nRX3ZDwgBBL76iPotfwQbi5Q3vmWyshFhkS2L/HEuIJTB5wOqsL+tR8Aj8JAjUFtba5JUEjyMTveYEIAJk8GcXFGz2DDgiIIugiSQCOwSnqKI9kK6TT0/yxPKSebPvi30L4HW6LamiQw48iOB4JqgKYdlkKEICIJPDysCTuCHWIJNTBIBdusEpMATgof1yft2eQQWLgJzNsUwF01EDt6GA8z4FlgPggE1nCYEIhZTLZYHfoffM8jL8anf3bX6h/oF57mWdC91pp6uPhIG4YnjEwpnzLngL/y8//7wIRCQAT7DrQb8Dk9B3w4/5r97BDwCHoG5RoAYoXNWJpqvE7yTktMJucljCG3OOeGtO7LzIFraMesGMPsjBONlVh3CxD6ZAkGvU8ql/BooqS1rGfjGMRLlBol7ZmknAwsjWdDYq3UKHKP8GFkoOMb9OI7FgzIHNTUSTHuQjwWUQT3Q4kjkpT7smojTMeqfoEDc+GNgAeYkVwiqMaPPoF58kvhEMPAZcplLjIIQQZhRgT7TokaA584fhCD44zcpOLeoG+gr7xHwCCwqBEJTDJ/py3dfd4Yx/Bzg74ApA/wT9MhvATsbGuUgKVOLrrrlBAlnSghX5uM/uNamaGWR1qZrylOT7KWiXPvzs9VOYON4KU2LGxG+wXdEdZwENQsZWa+AUOZY4B+BtQhb0pNtU2aa5cbHyDHTkHZJjFqJFkbua+qwFwtznG8GhO4Pahptu+rwVF6mFj+O24CICdsihxVVZrn8KnzrUoOIwjL7hnZQ4PyJJQAbtYvick+/W2h5rrPX0rSWIFvt+S+nqx3hCCcqqtaMUyAEEArULRAGwe+gIM759HAiEPSB4NmHf9IPws8/nAj4VnkEPAILDQERhBva991WDsGVI4dG/2bjSieQe7U7oUdCP0UCflBbFmMkuBHG5zp63bExWQCStMMAB0ccP9ba5cgApALtfF1WstVq98OvrCyQ1r/MMmQRGBIhgBSg+adpVwJEBIHNwsj/dLpGhCDWmkUINmn3xPmuXv3OcmsaLmu75HqRhiaRlKO6T7aIA7sj8MvwkXY7QGDw3ggJebYgSx4fR0VulmnbZL7V9vVbRXqSdkyMOcJAXtA60hIq592rbfZEXsY9k4OAFAT4B8IhnBCEfw/y+c+HC4GpJCDoB1OPP1yt9q3xCHgEFioCoeX091g7zPMI3iRtXczR51kRgUZp+bkiDZd7BuQbIfkzMz7m/FERio6hASfoEfDxsgpgKcD8j46MNj+o383yB4DQrpS2jptkvCSybXJA0wdscWT7ItYJhPawVvwzOUEZWGUvyrPiZhEIyhsRIaBezy7Psm9XXbUNIgxo+3nxcc7qcUTE4cUVOdYucnCopdO+UVZgn+gYZbUPjrh775LjpSvaTknapPY0yMfC9uxUOy6/CsHUijt5F/8gAKYjCeGkIPz7XdzCX7IIEAiIAFUNvgefi6D6vooeAY/AQ4ZAaJvj4OxbFb7NkbCR8ZpWwKUxngvHZSHA62Hz4JA8JiY4YV0kz4kp0dG2Kzfd/sfFeid0tTxf6wViJfQH5dwowXlPPCsywDZHhHOiCAfTDFgOKrQnHOdJrAOgrH4RC7Y/sq4Acz/XMMWwTf4PKAtrBYK7WgQlT5YKrsN7I1sgy+VIyU0hyJVzgqwWHZqG2CjS0ClLAn4UUmOj7EJXn7NyrNPx9skpDSwJEJU1qkuVphpYv4BTI8q+XeIsUyFTtzlOvSYgAWq6CMPUsw/+d1C/B1+Th7cGtyIEtzr+8CLhW+YR8Ag8SATY5jgzgoBTN9T0UGwHV+dwgsBJ5BkL9hBu0uH1O7QoMfBhgABP0Zw9QrVT0wPkISHEoyXYWZfAEc4HiTID4etIg/KRnMY+eT0rEcKDMDGQZopUILgRaCwyJD9XUgbOk+JFDCAD1IHrsSbgqpmFj9Sfe1IP16aw46GFkZQTChTFeRY8hmpFzaZP5JsJQeDqcWE4LLfQE6rrQkg8R0hVrAgfc+E+zQ8CnhDMD87+Lh4Bj8D0CEz6QZj+ZHAUgflshVmrrOuVzSIBzCdMkxCSaPM3UkhsRk76MOCTdQRMMYSTAG2jcJfEcKMpiSOBY6OgHLIEx0LZb74OUtAicoAFwkl7ZXLfuU51GJZwHxoe/2zng/YMuGLCSUZQPmfCj5PRHbupne7yOfmHuo9peiVS5SdoSmQhJOpEmN4R/cXL2uOTR8Aj4BHwCCwNBFCKQxv7p2nvMk3qb8oze/03zT75l2ZPlChTyEX8NLlDGjraN4sAUYD5jh6MdQANHc2b33znk/No9cF3PtH2g+tCZU3clE9Z7phut5uA5t7u/B0Ln4cMEdr+uVASmqy3HCyUp+Hr4RHwCHgE5g+BkKMkpOZ0SRJ7T5HJJI/w12K/Gy4KPpcbkc8ahFYtGsxNiHW7ENiS2Kv5/cLEBEvXDgAEfofm81M1BVCp2AsJWmOwnIWMWlCYoPUJrDVg7cKA5vohComaDshXWVe0RoHPKi1QZDHjrar7uUr5Ax4Bj4BHwCPgEfAI3BUCoV0MqO7TSN3rWnPwreNmv7PVbHmK2RlNMYSvQwjuiODPiou15wuyJ3cXRDnTPML85w3N9s+0XbFfi/8mdI9hTTGwyJBdABAAiMBuBWfq0LoEoi++IF8FGXHR9kZdi1tsmKktjlgcyI8PhbcV1TFwyRzc3396BDwCHgGPgEfAIzC3CMiWLXYQTg6YQoAwyGKwbNRsZ6EcBGma4a+OyCFRn46H5w2rS1FynHwNDLmth39decUJ/0wJeru+zFq1JoAIjke0hbBHZggWDq7STgMWK373coMLD81cP3P/rBcQH7CvlOTJ4mAuMiP58Gy4KjXRVS3stkvmKztDrjU121vvfmDHTp5ynhYXQuMH9Mwbm1rmbVElCzhr6urt8PGTdq2x2S1EvV849A8MWMO1Ruvs1lZW9b/Orm7r6Oyak9vhKZPneeT4KdeekVG9bPchsaaFIGA+eQQ8Ah6B2SJwkx8ENgm8utHsD3aavXPZ7JoiDv/lV8z215n96T4VHbaLYeqNuiX40faZLvhDOUyq0TZAGQfsVQn6fXJIxEoDOSl0Pg7aNM2AwyMcI/1WRZG9K6sAnhSL5eeAaYR6hXrG7wDWhaflu6BPeS/3DLr8U++7VH63t7XbP33vR9bT22NpaQp1LSdOy/PzLUnTN109PTaiqZy+vj6Lj493AqFgeb4TbN0SarFaXIiVJz83x8F1VUKvcIWsOhKATc0tFifrT4HKGhoaUtmplq7yZ5q6urvs3IVLlpWZoUu0O0T3a2pp072y3WLLRpWfnppqMTHyqCkikSDfE7k52dbW0WGjeq4rVM8YTSvNNPX3D9jVxiaDmAzqr6e3z3KyM62tvcPS09PUhmHr6u6xaFmnWDuRlZFuUXLhzb2TkxNdXRolmIdEOtNSU9yOEQRolKbDILMZGWnW3tmp88MWG606q/6jEt6rS0tcOQhchDntzMnOcuf6+vtdm5ITE2faDPeMmppbraWtzQMu7I4AAEAASURBVAYGB12dS4pWuN8pycl6BqmuztSN79GagmPtTJ/a36fnNiKixO4SsANP2t2hEOG0kfqSLyEh3q7UN2itboSVrSzVsX5LTkp0z8qvK5nxo/IZPQJLFoEbBEHCO1GL1P/zy2aFqWYvlWm81LHXzosw/Nisd0gY3YIgMHDVSbDj3XC/XBrvb+6wLm0jxBrAeoM2ORuKEvtQcbISdNteDd7BebYd4mr5w6g2FwMB98wsjMMNM9sfE4jPoGkJpi/2imhwbCmmeA32q0pLpHGesJLiQhuUQPjJ62/a2opyO3LihI1IoLHjoL2jy1YUIHRjbVjH+kQkenp7DcIQIyEDMThx6rQjEsnJSdbS2mp5OTlOUMbHxdvXXv3yrAgCO0UQQKT2jk47cfqcBLP6gwQTJKGmtt499+ysTAnbZsuUwK65Uq/7tkmw5YicxNnyvBBxcYXc4R/6RoJIEMSC3R7cr6q2zrp7eqmKpUq4IsAH5IMjXQSgWucSExIckUCYcv3AwKBIU4ydqTxviRLqqSnJTkj3yxEWZIr601cRwnH6jQA/f+myBG6CDep7sHCz4WqjO+cWleqC5JUzJwiUT31oR1pKil2uqXP4YSGBRI2pz0NGaGt17RVHRiAJl6qqteU0RvUYcuchD7X1V21c+ZtaWhyRoM5sk6VdY+NjFq136Oz5C9YqErWmbJVIZaIjD3eA2p/2CHgEljgCNwiCBtc+kYDXKs2eXml2ocXsH0+Z/ficZhtk8r8VOQjwQ9v/fvU1p+WwWwHSgMdEphf4znnSuD6G5bGQwZzzkAqmFvCcOKCVkBwnvDG58YA4LKIBJ/h5Q0vI/wAZlmDCJJ2gBZ27dmyz/R9/Ik03XbM9Ec4KAFiZGZm2ccNaOyrT++aN6+3gp0csMzPddmzdbOckHDasX2f7dB2EICE+QYJtQAI6y77y8pckqGLsz//yv9ujux+xApGLWSWe1XXmo/Q8pe2imVZICJ2S4IasREgzR3gxb4UWGy9C0C7rQX5erhOuCOHZJEgQWGDtwCoyLEJ5Xb+zZcHACgDhyEhPNSwNyUnJdvFylROmq0qLnIaNWb9YJCktLcXOVl60HBEXBOnl6jpndRgeGbYinU9NTbbzFy87IoEQ75X23StrxbD6a6butbZ8lSNelIfmDmGbbaItTF1wzwFZBSBsy4UL96rVNEpF2UqRwmK7cKnKWRwgRJAT8kAuwBvSd7GqxhGK7MxM9yzjRTAgERAliEZaSpIjPtQRsjMur6M+eQQ8Ah6BOyEggnBD4MrCan/4c/kNkEIoBYUxPUQMQgribcsKSmHQhhCQ+JcBLTyFjt04Epz/3PHJLMHlEIyg3BtXL51v4NQra8CRY8ctR5r3ju1b7KP9H9txrUcoKS5y0wQIBkz9EADMzgg+LA+ZGRmWKE00NzvbCcHRsVEJwFQJpBR3Hq27TEK9bNVKYTyDhx0Ge0REpKYyeuz9vQckmNOc4Dpy7KTqke6EUqumRuKkraPVorVj+l8mEtGnaZFIXbtslhYhSADm/0vVtVYowb1bONRryqRD1ovkpHRnLYiKjJKAjLUoCVRwQBCfrbzktPANa8pFGmqcUEVTj9f0CglTPto20TRr6q6o7yoqqLDE8sExiA0pIz1SpGzQPtj3scMVYct1WB1mkyBSrCupvFil55Jl61QvLBuVIiVMBW1Yt8bVo6ml1U2LYJ3BKsIUQazqTNvAMVp1KxSpY8qkU0QFnN1Uh6oDiQimXHiVR511juc7u7rOpl0+r0fAI/DwIPB5T4qMJKQ7jCHTeVJkm6JbaKjBEv8GCHV+h4Q7xCPC7UigeBwwcJwpg9sJfjewaSBVVpePa5i6wMaANYLrucdCTrSBYXkmrpZHNC8PHgjSqQlBhyBDYCFg0KQ5dmM+GRy42+cTBIO8JLTW4BqE7ZGjJ9zCx9/6xq9IAKZ/7mJM3Wir0zlKokzqEZQZCD7M2lgW8AzJsRARDHmqDOrAtawPmG3ifvyFh8bm/pEqK+hLlH1zm2WdUl9x0yCnzkmgDskKsNpWryxx+YIyEcgsfixbXepM/66MoIKT+EGCsVpQd+57t+0IsOMeYMRvSAO/WV8QKlvvDVaYyfvQZlLQtuAzKIty+KMfTFZXWOm5y605eSCAofOuGP+PR8Aj4BGYFoHa2toZulqe5vJwgoAjY2IavFyc6yIpHm3rscdy06xCCw8JlbxaptMr+nz7aot9uTBPgn3Crmrb4pq0ZLdAsV1mZoY0BL7GcDewaYx0KVblPp2f4bY2tmlqYrV2MhzSjogNGSnytxBjB7Tm4YTuRxyGhZoQy3NBEO5H+xA8mLcRJimyOEyXbkcQpsu/kI+F2qvgI+pgaONTE+f5Y74f4euTR8Aj4BFYighAEGavvk2DFFr9NoVtJqBSuf5wkPRKUZ7WFYwbIZEzZfYkvPKXCnNd6GW0mQTlyZU74Q2KjHimo8d+p7xQzpUGXdRFfCoQjOm1ukZLlLl4reaLz8h8+mS+FrrJEdPL2hnBlknCOBMtcrbm3WmasGQPoZEma4phqaRQe5Nu2VzOB1r6LTP5Ex4Bj4BHYAkggGJ7z4lCKjt73KxEgSInnpWXRBwaEdkR3wW5cnD0el2TXdUqSGIhDEj4Yw1A6ydccmlKgrMmYIEg9DPTE52aL92ZrXlsLYjo0WIryAMLGTtkEsdkys4HnCt1asuk1/Pu+RH6AjwCHgGPgEfAI3ATAqFYSdjA70HKMu9LdMRT7T32Zn2LwiknyIqg7WQiAuxSuNTbr89RK0iMt2594lER60GffCcsF6HoHBqzC939yj+mKYo+VUX7vfWd6XRCOW/NTLVnlmdarXwrlGlF9qeyHjQPjFil8rKuwSePgEfAI+AR8Ah4BOYWgdAixQEVOkuCEL4GIbiYIE0kBU10XhBZSAh54DCLCVncxXTEjSTPiTrO4ikCOnHqswWH1IffOo+r5aB65GFq2C3i0vHwyJA3yl1Y32jxTNcgsC2NxXRRMnUvlMRCw0FZbngenz2IhVI5Xw+PgEfAI+ARmDECyFsWkbO77HZpztYgBDcJd2IkGacUEusQBhJkIVhlHjoS+pfFYNOFew6E0dSQy8G1D+NqbLDgv4WU2H+fpO2SPnkEPAIeAY/A4kYAgsBuuZkk9qKFVPKZ5L5DngkJt+v6c5rmHfLO2elJWRopa4JPHgGPgEfAI+AR8AjMDQJagzA32irkIG1QawQ6Gi1uKLSNzO27DlsjABeZkGMZNP+p56Y2h33pwR7vW1kKKGNM+7pbUzOsJi1HaxsWmu49tVX+t0fAI+AR8Ah4BBYHAtrmeO8Ty1gNEkeG7PG6Sksd7LVEbZubkFMD5tHbWjssSk5/oqOitX0swvLz86xJ7mlx79ve1vkZCQjfc876Anz2E0wI3/gd7V3O6O68NGrugl0MTFWwbx+Pch1XLlm0FjVW5qxwbpoXB/S+lh4Bj4BHwCPgEVi4CMyJHwQoRtZAj6UMKcrcskj76heec5HyiFSH57poRcWDiBAqd9vmjS6IEIFjcB07Ojri3NjiRhjnNET4wyVvcWGBcx+MP3/c6OLelsh8lEkUPvzfb924zj4+dNTauqutoKfdLmUtd1aEhQu3r5lHwCPgEfAIeAQWBwIiCHMzxUCAJdYzEG44USGIcxXJL0VbEokiiA/4T44et1WKGUBYYsLZJiUlufOcc6FsZRno6elzAYnwH49v+ZCv/DgjDC6rLgk089ju7a4Motnh8W5Uq/6JB0DCAfNctccV6P/xCHgEPAIeAY/AEkVgTiwIUIy2xBTri423LK0xePvt9906gwiZ/4NwuQj9AYXkxa88oXkJwZudnWlFBQV28MhRl488SSIXfDKdgCvcrq4ekYkERedjXYO5KHWsPdAMg4tkN66ofty/UYF6RkUUIiAqD1WiPYp4ONH7ULXKN8Yj4BHwCHgE7jcCkh8RCbrJ593Kz+TOc0MQJJT7YuLtQPFaK29rsLjeoc82Mly3XrfOwC04lIMjxJ3zjdA3bJFyrBRzuT4UKneZHCRJ6l/vCH1S+evyskjEuutd/e6cO2Z9fDhSABeYkCvm1oKVdjkjzx1zJx+af8atb+Cq7T3/pn3YKE+VclENGfLJI+AR8Ah4BDwCd0JgTCGaN6RG2ze2fdliE8qUfXYSZE4IApVEc29PTLaDietUBVwk3T5RzZCyPxl17/bZpz3ryqAc3TFCAaDcNMe0ORfpwYkRa+pusP94MdoODe2Ur4jxRdoQX22PgEfAI+ARmG8EFEvXkrVu74nlR21V6erPFO2Z1iNqEH8JsmDPklg474iDY3g4RGjNjpXMtHIPSz5nNVFjhuWR8E7E6eY2412SkM4TlhgxZtGeINwMj//lEfAIeAQ8ArdEwCnP2vU3rqn/u0lRf/WlQRselZOhWcr4ZRJWMYmrxEi8g6KZAp8ZF2NxgVvJGV7EY5nlo5lhyT6bR8Aj4BHwCDzsCITkx91Jkajf2nEPswwTRcKWG89OL37YH8h07QOhsZERF6diuvOzPUZ5ztmU8B+VhYF1HUzZ8Em8C3hI0CWIc0GMC9Z4sPjT+ZPQ9/DkfumYK3PykxJwmU1W4mlQPs+a8omBwTHK4l5yexGKq6Ecrix9ko9riLdB4jtl8emSvnM9ya0/0Xdy4u4KW4v75JgOuuNh9WISK2gz38k79dhn51UG310huh1lB+0MKuTOu5r4fzwCHgGPgEcABKJGxkJC4e7g8NaD2eBGMCvWk95rQjCnxkTZN1avsIq0RDvd0Wu/qG+2LYp6+UR+pp3R78Otnfa7FUVOGJ/q6FG0zRH7akm+VfcO2M+VN0oC85dXFliztot+3NRhhUnxdlKLRh/JSbPjrT22LTvFVij6ZrF2kNT3D1hd36Dtzslw5bx/rc32NbZbSXKC/YrKSFZdLnX3ufyrFMmzXmG937na4pq5KiVR5/rtn69abgnawVKnsN2XFZXzjKJ09o6M2aO56W7q5Yn8DLugxajfr77mgnM9V5Blj+dlKv+AXdT1vQr5fUV1oH2QhSFN17xW22S7df327DTdc9CVz/UbM5PtEYUKf+NKs2XJarMhI9neUfhx8HmlOM9aBocVbnzYtYlooZszUlxk0Atqw2fBwu71IfnrPQIeAY/AIkcgCk3Kp8WGwHWL1RbStNgoO9TSZRWpSfblwjzLVgjt71xusKfys+wLBdnWLR8Tbyn89u+tKXZhtI9qV0jTwJD9vn5XdQ/YXgn5WGn3r4o4dIhAZMfF2ktFORYvD5irJdg7df3+pnb9ddj69GQnrI+3d9sLK3LsdHuvrUtLsryEGPtRTZMIS7QdV/kvFObYe1dbRTyG7V+tLVEdo22frv9hTaMjGK/XSajnpLtw3/S9x/MyXFhwSA3EgmkYjm+WMD/W1iWycN02ZaZYlUhFh0KFl6utiSIa5LugcN/Pq53rM5IUajzS1qWnuHZSJvc4out3iDw8qu9X1W6CfkEIWkUOXinKUx0GXCjxTll23hPpiXDUY7H1BV9fj4BHwCNwfxAgCrFPiwwBKB22G4TySxLI+YlxNqRFKN3Ssis7+yRoB5wArUhNdFaELgl6hOsLK7LtRRGAsxKSkpV2tLXLafNMBQzI4dQOWQ8QuluzUq1HHi05/uXiHHePJLnLfiw3w75emq9r+qxjZNhOyDKBdYA6YKHgHpQzojgaufGx7q99aETCPsWRlQG5w+7XecJ3j2pOYlzCH8vEByIqZarr6tQEafYjdk3C/GBzh22UZl8oKwYaP3WBLIzpj7oxJfBSYa6zENT0DFjf6LjOTdiLamNxUpxV9fbbioQ4K4iPs1ZdvyUj1VJk6Xh20jLxmojKOfnYwMLxSXOndanuzEL45BHwCHgEPAIhBDxBWIQ9ATnGg8NE/1MJuosyjaNRZ8pF9VMywZdJy24eGJagHXamdTRjZujR/k+29bCMwAnaLxZm2zaRgWv9Q7IsDFuOymC6IUvldEurxqrw8yut9nZDi6YBxmWG75Xg7tRCyyhp8dG2KjnRkYFKkYoXJayT5e2S5QbpIi6bJNwHdA1TAQj6dJXJWoRxrZeI1OfO3DRHRJYrjHSOLBdYH5aL6OyUxs/98yTYj+lYnoT8BlkG1qQlO6KBkId0dEqgQzyGdI9u4TCozzYdWymiESsLCAJ/Tbq8dcrKgiVkhaZQIFLc54yIDesmajXdcbKj2+FEnXzyCHgEPAIegRsI3MMKxRuF+G/ziwDiflCaOMRglQRiowT8m5pKWKdpgCdkXmd+/7CcUiFUsRI4i4P+OdvZ7DR05uJZC/BiUbb7/YOaa4aFYKRyQmsXuqxPZV9VmSukiSOwk6JznDBlTr9WawJ2aH6f3Rh8x/yfGhMhotJojVrPcEIEBEvCMp37heqERWGn1gn0SetH4CPc0dhfLWFKJNb+7kKdm9p4PC/dzsv6wblx1bhd5GRHVpod0VoK1lhAfEq1HuL1umYRo1Fn6aBdEJB4TbdgmbgsS8KIiAL4MAXD3480tcHaBaYcWI9QpXpxPesnemRxOaL2YtnwTHl++7C/m0fAI7DwEVimmAeMsz7NAwKjEkgJEopB7Iipt2TufVwCjxX9RL60iQG73HTM/sXeSjs7WnqTHwRlddo7uwAwjYd2FYR2GHA9ixAxy/OJWV4y0wlBzmHaR2FmdwN6cxTzDUpBfncebV/5OIY5P7TKP7QbgvK4H7sGRvSdMjgfNVkm391OCZ3RV3d/jtHRoilXZTLNgCAPyg3uE80FOk7dQseod+ganVB+nZ0snwL5Hr6LgatJ3ItE+ZGT5YFvhAogD7susCJQTzCiHJ88Ah4Bj8DDhACjc/REl723R+u3Vv2axjmN2xrzRgiKKEvv7VJtbS1j473sYrhd8f7c/UQAeYaGHJ5YgR/+yIMV+TFIwrAUOfl7qvkoyB8xeT7Id+PSUDlBeYjaqX4dQgIe4XvjnkH+oBzORWoa4Ea6ud4cp5xoJ8pDuaLCvrsjYeU79hM6GMo8zb8B8QhOBZCE1zM45z89Ah4Bj4BHAOVMbMInj4BHwCPgEfAIeAQ8AuEIRHh6EA6H/+4R8Ah4BDwCHgGPAAj4KYYF3g+YIx/QfFG/Ftb5WAwL/GH56nkEPAIegQWEQGgNwqhbz3U31Zo6DX03Zfhr7iMCuXHR9n9uKrGOyHLNB3nPlfcRal+0R8Aj4BF4yBDQQvDxLlseXzN1FdeM2ukJwoxgenCZUuUj4GtrS7UicdWDq4S/s0fAI+AR8AgsUgT6zNqv3VjLPYtWRLDlwacFjADPR1sfffIIeAQ8Ah4Bj8CsEZCfl7vdjHDzPrlZ39lf4BHwCHgEPAIeAY/Aw4iAJwgPyVPFEjQmb4J3MghNyLFRKJ+3HE336CfkwGlc3hiXrmUNZ13jMlqNTwePP+YRWNAIuL6r/nvDVdqCru6Cr1zkH/3xH//Jgq/lQ1JBhE+0XBrjzepWCcGE8yo8/tn1UbPRNs0daalIdLYNDytA0omT9jd/+3d26vQZKy4qtKSkJCfMqmtq7Vvf/kfbsnmTu8d05fPyXLh40b77/R/axg3rLeYOnrSmK+NhONbX128f7dtvf//Nb1ljU7MVFa6wuLg417TTwvXd99+3zMxMS0lJmba5HR2d1nD1qkUp9kRcbOzn8vT09Nj7H3xo3/7OP1lTs0JrK19Pb68lJyfruYaefUtLi+7dZPEJCRat8zNN9Q1X7fs/+LG9/sabuuS69ast3/vBD+31n71pff19qtc1++73vm+nz5yx1JRU146pZeN58tNPDtvf/cM37dNDh9UPYiw3J8fVTZ5V7ee/eMtqa+tsZWnpZ/WdWsZsfh86fMS++e3v2LHjJxymWcJ2Jp4rqcN3/ul79sMfvyb8eiw7O9sShNdMUltbm+3/+GOb0PRcZmaGu4S+f/LkaXmQi1E9km9ZDPm++a3v2OEjR9w92Un085+/ZRMiTcdPnrJr165ZRma6yvn8s79loToxop1I3//hj/T8fmSdnV2WkzPz9nyw9yNXJ/ot73xmRqb6VbizsVvf+fjxk3ZebUpLTbH4+HiX8d333reunm4dS9V4Ee5e7UY5jFdvvPkL+9Z3/tF61c/y8/PsXOV5O3jwE0tMTLKf/uxnDsdUvSczeZ43Sjbr6+tz49WPX/uppaoOPKOP9h2wQ+qPBQXLLX7yfQy/5nbfu7q7rUb9BXwuXrpkK1ascM+Za15/4w0bUMj6SOH1+s/esEtV1dbZ0eGeLe8m6YSea7ziv8TqfZ5tW1wBC/mfiSH5pK8zS6hQLUMO7Mb1bKNuclb3+QZ0dXXZzEemz1/vj8wzAgim19/8uXW0d9iqVSslBM7ZBx/utavXGm316lV28NNPbWhoyJ599mmL0Uv/1jvv2sb1623t2gp7Uy96nF6AkuISa21t1WC3dNc1nDl3zvYd+NhKioqdgN23/2MnwHslxDMy0g2BdlmDyBeef1ausRNs3/4DjkQwKB8/edKaJNgR7l999Zfs1V965XO94NLlKj2Xj9zA29vbZ3/5V38j4TBiz6u8nu5eN3Bx/dnKStu9c6eVla12AyLEAiECedi58xFbv27t5wYrBF+bnh/upw8fPmoDAwMWq8GUAZZ6t7W2WaEIT3dPr73x8184gbpiRcFNdbwuK1JtXZ319/c7wfu++lCryq2vb7CC5flOAOIl86ev/8za1ecgCu3t7RqAa+2RHdudkP9YQmKFBnL64YlTpy1OQvfJJ5+wvNzcm+7FDwQ95LRb7Xvn3fesuqbGmptb3ICcIIGVlpZuY+Njri3cJz1NIbof3e3IG4IUwXb06HEbx0Km/0ZElBEAlNsiLCA4iYkJtmHdOrvW2GTdEhZlZWUqb9AOHTlq77z3nvIouqgE8pjmYyFvrboPxLCivNw90ytX6u1p1X/7tm0OG/A8cuy4VUogPvvM0w6fY/rdK8H2xS8+b2+//a51qG5btmyy2po649lt2rhBBPyS2jJuzz/3jPC5GffR0RE7f/6iBFOWfXLokNx8K3CZBumWllbLysqyJLUBYc27SXmtepY7tm+z9XqHqQekhry8822qf1VVlZWtXm2j2gZ9QUKRPjGsflZetsry8nIl9E7reS535Jdn/dPX3xReLRoP1qjf99mgxopjwrVdwvLpp5+0CeH78Sefujp9/atfceQSEpKZmWV7P9pn63Ud5UHaPpEg59mtWrnSfvHW27Zcx+kPEE6eTY7I3McHP7XNwmT37l3u+YR3jCv19Y58juqeB3VPSM9f//e/Ncjjk088bl3674c//on6SaulZ6RZV2e3feUrr1h7W7vtFQl4ijxd3Xb+wgVHtPpFAN577wMrktJEe6qra+zXv/Grlqv+CA4d7Z1yLzzqCMT2bVsd1m+rL9Lni4qK7C/+63+zX/76Vy1fuB0Vkf3SSy/qXL1d1rsco+BxX3j2GfWT0/bs00+pzBCZDm/Pw/rdWxDm8cneqwUBjT85OcnOnb9gvRIAaFMIt23bt2rgaHMvD1rJe+9/6Ng0Gs4nnx6ys2crncaCBaJSQikxMdF279opthwzj61fGLeCOV++fNmRrN/4jV+zzbK4oHEwSDFYg1e6BBYxHNC8sBR0aMBpkqXh8JFjrhEMsGgZXDtVCJAhSfiGrDWXnHaUr0EqOloRKnNynRBnMIcwFEpw0ycaG69Jo+q3/QcPOiGM0CsuLpQAK/wcQUCwQhI2yAKENeLipcvWKaYPoUGoZaSnW2lJiSMdra3tEjyZTvObiv65c5V2VAKP+9IG+tZ+kSYsUcMSHGiakI/9Bw46fLq7e1wfQgAfOXpMWEU4MvXOux8Is8NOWKelp0k4rdatQlpKcM/zFy5agjBZU1HuhB7tq629YhC1KtUba1hnZ6ddlfUDAQtWK9WG4eEhO/DxQafdlZYUW6cE/yGRotNnzrr29g/0W4O0eXEGw7LSIzKGYN0rQtfV1emeMRrvMuHUoMG+ru6KoWlWnj8vq020XblyxZXPtNs1kWzavGplqbOuQcYHRTC2SZig0aaJtKBNrxIRj4qOsg+l0R8R+UDwdgmbAyJMHWoDbVpZWmIbJRinWpeIxQLmj+7e7SwbnapjmwQexK6xWeHHz5133yE8ENGraluB+giCl3eePkp/3LZ1qxN0lZUXDDJ69txZR2TPnj3nBPHFS1XO2ljfUO/6cx91VB/B+piWlqr856xObUerBu8IPUv6EYIXAXny1BmRiLWOQEE0sCgxZuzcuUPn89zY86aOfeNXf8XeE9k6ffqsHVfZWGuwrjAmcT+eye5djzj8bnatbk57XyGC9omUmicef8zefvddV5+Y2Fh7VGNTv7D/J1nCIEz1DQ3uWVD2+x/stVLhC/7cE8sXfSI7J0vvbIQrN1HjIv0rRcQSEnj0+HHl3+uwH9IYSCycQQWWg/h3dXc5Syzv1MrSYvvF2+9IiSo2LCwnRXx5lrwj773/gcMIpYH3e1FZGe7BgqBx8OaX2XxasAhgpmZwZLDECrBv/373ckepwxN4IzUtxWkHWBHGpK1cl4aClsInUxcIIwZDNBl+L8UUKWGRmJDoBMXf/8P/sD/9z38mwX/UCVtMydeFERosmtEyTfOAJVAJNmeBQWOuKJNPCpXDuekSg3iLtL8caRpo3dXSdEdGRM4unJeG2+gER1QUobEjHJFoampxQjg+Ns6KpH1hZbh0uVrrAD5v5eG5of0yMDPI5+keBfn59tu/8ev2v/+bf21r16xxfeQjaXw8e8zCn0/qCzrHFNVqtQfBjNBHuDIeoFmiPVXV1EjrGnFaN8SUwRKtcVTkhnyRCvtNitNW3IryMlshLXK6hHUAEgZxHRwcdGQAK0lCXLzKXOmICCZrhEmKpmFqhRkkYlTafp7qv3ZNhRPeWA4Yrsp1LwZ+BGepLGJlZauc5QNBUqM6T+h+WAqoOw+PdvIsOIaQjhT2q1aVOksIwdEi9RyY5nFCTOUjONCSmXbKlEUJsse91q4td1aKJPUfysH6gLC5quft7idcMLdznM/p0tDQoIT7PlmPzqmvXTc0aTApyMt3/W5IgguLDVou1qeq6mpnCRnT/TZv3ChhW+D66IimgrAobNq03pHC8vLVjnCuEVY8I0zmkDr6EGSUdUdowmvWlDvrItdT51QJUUfq1L+pD88UghIVFeksPq+9/oYhyCE/TGeRsEhu2rDBWaoYUyCXW7dsdm2BpIEpfYhyiwqLnJCfigUWkD/6v/9EZCvaTdXEqe/zvOknTCdRboYsdhWqLwK7tLTEWWZ4FtdVPs+Vd3CdyDp9EwLDMxkYHHDjI6QXhYhyIAO/8s9+2f74//p3ep4ZDhPKYZoV8s+0HKQPUjI2Ou7GSFgn7+iunTvtV375a3b82Ak3fZukfrqUZGbUUhUUUzvsYvjNoLNj+3bH6LfL9Pjcs087kx4m28ce3W2Z0hZLiovs6199Vcw6V0LkA/uazOAVFRX2szfedNoFHf5KfYMbBBZDm+9HHRkY0A4PSGPnO9o4mjIa8x/8/r9wAyeaTJGwRHBgakbIYF5FWy0tLZFpebMbsHh/pg4YaP7XShqdtvzk44+7/BcvhqwGqckpTkAVy6w5MjrsphQwx7Zr2qhMAypCLVnP+bHdO6edI8S8yYDJNAcmfczvWBXKZVKHICL4mD7AmvDM0087je9zGErKlq9eLQ263vWDF774BTeYot0yH8y8NNoXWmBtrsJxyyS+XFMPzM/GSLuHGKHtkn71n/8zp5khXLOUb6r1gDzU7dq1JifQnnnqSVk8OjUddshp8bRnXAJ9w/q1TviBAccgaMxTP/n4Hqe9s5aDaTMsGIMSAjwLzNJMIyRLUBaKWPEsmoRFs/KCUYJM9ghfhAXne8v7XBsQ0pjB0YYRxGjwWDHoC1ESkBBFiBNWhBppohkSKrRv544dzmSNRYFEndZpGghi0igLBJYbBA31ny4heBGklbIGvPTCF53AwfqCmRxSQXmZWRmu7ZF1EXqnd0mb3u20/s2bNqm9ie45MYUCUaXO3LNUhGK5SGKy8MhTmyC4aoKbygETyBRrXXpEGFaJkGGhgYhADiAPTG8Urih00yhMS6Kp09EpD4FaLZLyystfcpYA2oXgpu9hafv93/0dN+3J9M2jmko4IwVmQpaiQr0v6epHCQmhNQ9T8YD8rF5dJmuE1g7U1Nrv/NZvuqmBy7KI8LyYDnj8sUdF7LIdOYNMYzF9TPdgbQn9jv7Jc2ZqaL2ml3hGY6NjGu/K3ZQH5BgLxKO7drkpF57js3onYkRoGUsh64yHzz//nCOdWIO+prHz2IkT9nu/89t6rlcdQeSdAO/H9zy65KyuPtzz1J57H3/DcGcb7tkGNBBHaAFdwrr7WDNftEfgwSDw7nsfaD69TWbmPSECNs/VgCSxVoP1ES9/6SWnkaKZznfCOvj97/9Qgqpc6zy2fbZodj7rwdTAe++/bys1zfJlzcGzUNcn01qudzQVVmO/+evfcNaKRYfJWJdZ116zLNZLzS7c87LhkVGRTNFNn+47Ap4g3HeI/Q0WGQKMPVMtMIusCXNSXY/DnMB4XwphmuJBkMY5a8w9EIT5p8pz1mpfkEfAI7DYEfDkIPQEPQ4LtycvanJwj7B6gnCPAPrLPQIeAY+AR8AjsGARYGXvXSa/SPEugZuvy1ht29vTZWOD7Xb3j3m+auvv4xHwCHgEPAILCoExOcSyMYtkJcEshYh3lLSgnuTnK8O+3bPnLlrvxKDmwT5/3h/xCHgEPAIeAY/AtAiIFERMdNvuNUOWNG2G2x/0BOH2+Dzws+zv3fPk42Yx5Q+8Lr4CHgGPgEfAI7DYEBhQuOd3Z209oJVeJ13oz5odJnIg4pNHwCPgEfAIeARmjcBYyGHYrK/TBd6CcDeo+Ws8Ah4Bj4BH4J4QCN9ezy6OW/2+3TkqEH4+/PvUc1N/P+x5ae+9Jk8Q7hXBeb6ePbn4U8Cr3dTvuE7FWxsvmnNJqk+Ct+AylAh25OelYNsOeSiHT8q6m+TuozKDqGCUj0vXUMTKWa6GmaYClIWXvfD60UZcqNIOjjv3uNNce6dD4EN98bQWYAVOJDzp4U44wJPj3G8hJ55FeB2pOylo09S6E1AI//Pgly1PekF452VaxYR3PfpIgC2++jnunreu4z78gRt5ZrINjL7GNbeqz9T6Pay/wZBnM1PcHlYcaBeBowL3zThlwkMkfY+YGLi5xvU3WOEBkeN4xSRNzUt+vCrSH4O8eEUlIi6BpojzQf8jX3heymEsCeWNcOUGefEAGSdX4PxmnCAvHkSpA/0d75MEFqN+eHikvkFezpHvVnmpAy6eKfdzeeWNtF3vJWMf5ZKX+9BviGZKXflz761+43KfdpOXP95p8lIusVF4b+8lRfHSUqBPCx8BXM8ShfC8XLUS6Q/va7h43bRpo9zrXpGb0VHbunWLCy4yNjZqpaUlkwFJehS5MORKNV3BfHDzSgf9wY9+4lzrrpH3ts2bN37W2UGCThe8VEQYRFDT4bnPunVEg+tXWOQPXd95+UsvupeG4CkExyEgzKpVq5zLV6IDUhYvFT7acYOLn306M+5y8SePsILA8LKSj5eNQDVERORl2Lp5s4uaxyCBT3gC+OAqdZPcz+IrPxBkvMBcS+LF5eWamujrBAgioh8BhHCLy+90vUylJSUuChxuhYkJQMQ63Nt+8fnnXcS4qWU9iN8MmsQKwBXtc88+Y3WK80B44i3CiP6A21rCShMDgkHiySf2OAIQXlciIhIdEAxwR+uiNao/4LaWgRZ3uUSEJEhNs2ImENgLN8SEayYKIW6iIYXghsvpXYo8GU7iwu/F97PnKtVvDwjjdOc6GRfHSzHRJ9977wMFXjrv3BITmj3or0sRj3gJYFwokyDquM4GI76j6CBA+QsUgYBcRiv2A2uzwC7IS58nL8cYDz7LO1kuY9DUvJTLeHPbvBqfiFERnjcgutSXe4aXy/hC3iAPn5yfcV4FEUtKCrUFDPgj7DzlBsof9Q3KD9od5OU3ibgb90oOKMdvcwSFRZIGJKAJf/vMM0/ZRx/tdz7zn5Zve8IG71EsBoL3EIGsqqpKPt+32M5HsuxF+dknShsdB9/tCGmEABEACWKCoD2jaHBnKs+5oDX43adDjykfQXxSU5NdfjobHR8BTYQ3Irc11Dc4n/3L9JIRaAUCA/OGbR+Wf/uAYKChoh1ABIiiV1VdZRmKFbCiQEFgJJhg+kQhrJZwK1b8gyf2PObiC0AefumVLzuh/dpPCT1MdMIsVy5hd48cPWpEbSPSXpriEFRX1zhMYuVrnXKJmoev/amJiJeP6x7VEqIN8qOP73fCPBPFkKA8pE0avKP1kjUqhgDlL5QE6clRBDv3DBUrgCiOrYoICHEAP/zLQ3Bwl0s0wUbFLgD/qYnAR8RrQFifPnPG5aMvEBNiWIF88EtPXIF4PU/C54InBI6YAdyrU+SBGB8MVGhOxACYLjEw02fKFPsBkomGs1QJAu+uXiPbuGmD00bBcSkTBARfeEJpCE+QgFslwrCHp9vlnaoozEfeqW2Z+pzD63CnvOHnw7/T/qnlTj0fjtHdfPeLFO8GtQd0DcYihGnADDH98ocgYCoBIfzIju0uUEmiNF8i9DUqTDFBV3gZeVE0njuN7vLlaifMEX4EvMlUAJZHH9utQDIXXUjZaEVzIwKhE7rKs3XbFtfqNRIKCHPirxMpjnsSK546rJbVgMBDFy9ectYBNFPCsZaWKGSqLAEInby8HBdwimBBTEVgEizR+SsKjLJaxzCjEa3QpUnDFiFZMYEj7BF4WBIgI5cvV4nkDChy3KAre6fa3q3gLxcvXlZbExyRCBV0418EGhoG2jbay/p1611kQzAloE2SSIlOOEtHs7DLz88Vc4++UcAD/hZoIwTcIfId1gMEDSSQsMqE9m2VECZhKZguoRERrMg9K5WBObNQAaa4DoK4fv1ap7FgkWppaXWWI+6LdAMzsELzAstQCj6nuxtwcp3yXMdaOX2eJXFUEDjchF8oBZ9LovW+kYsQAR/ueRE9NAQYpvD33//QBZWBRb/3/l4n/N9WFDY0NTRL2CnaPYM92h2m+ERFtiMsKtrno4/ulpDe5sxjvX29TrsjaltaSqrT4PMVepbBHyEMsSBqG2FOiRZJ6GhIR0JivNO6sRKQD4JCVLtambxzdF/u1SXywOeopjuYkiCkK0Sif6A/ZKXQtcyv1WnaYoumSVIlnJN1H/4QXtT9u9/7gRNgsTGxCst8zMpEQvJycx0JWrtmrbNWMH2CCY8QyMgfIuzFy9RIbPvpElYHzPTgBaEgeh0hmrEkMNUBfkR7RCgSVXChJSw5RCrcsHG9feXVV2zb1i329FNP6PvLtuuRHZpOKhKxk2Whpc1F+Ztaf2R1o6JBntNUFUSqWOSgX88QwQ/5unjpsjBIcqRhk+5BJESeJWHCISWxsqxgySEKIQKfPnmrBBmDUFImRI/nulQTURZZ33JKVj7IOhYynzwCCxkBH6xpHp8OwvReozky58U8HXNOwXc3JTC5oI8Bmb9gzo08aC3MYfEdwR/8Jg8DFmF0OUdku5OnTilM8FNO4HLezXeh8UwqO+SbkAZKvHi+f5ZH5fI7mENEULtzqguJ79x7mbRzpieCOnCM67gPwkY/P0tcQ3kIRL6TL6TJKosycw/Ou/DDmmY5cfKUwgav05z5LpefvJQ/NYEFUyLUI1hQGdQhPC/5prs+PM9C/Q5e1B9cp0uch4DRV1jMxG8IAtNFE3zXc+KhB+iBNtYDcCIFz43nyN+dEs+J8ug3SznxTJhqi5whbksZK9/2OULgHoI1eYIwR89gJsXMBUGYyX3uJg8CAIF5kxC+m4Ie0DUIIIQcZMInj4BHwCPgEZhE4B4Igl+k6HuRQwBdMbA+LEZI0JRvpS0vxvb4OnsEPAIegQeNwJ1tgw+6hkv+/hjSffIIeAQ8Ah4Bj8DdIMBE4d3JkeknKO+mDv6a+4CA1g4s01oDucq8LvO/Tx4Bj4BHwCPgEZgVAqOD2sIu3wyzuiiU2ROEuwBt3i6J0Hx6bImNdp20ic5/uKsHPG919TfyCHgEPAIegQWGgBTL2AKLzHpC9Zr9hIEnCAvscd5cHa0MiEq2uKzHzbL23HzK//IIeAQ8Ah4Bj8AdEbgb20GoUO9q+Y7gLpQMd/+QF0oLfD08Ah4Bj4BHYPEgIJvD3S1eWDxN9DX1CHgEPAIeAY+AR2C2CETIb4dPHgGPgEfAI+AR8Ah4BG5CwLtavgkO/8Mj4BHwCHgEPAIeARDwixQXeD+4Pj5oQz2nrKO3doHX1FfPI+AR8Ah4BBYSArj2Tk1QbJxM7WJgV9wskycIswRsXrNfH7FrnRfsPxw8bG+0Z1vUMu8LYV7x9zfzCHgEPAKLGIFxRVBdk3DZvv3kuOXkfkHhUGa31dG7Wl7ID//6mA2M9Nrpvjjrj8iymGXjC7m2vm4eAY+AR8AjsIAQULg5Oz0QJQt0q2UruO1s98J5C8ICepjTVYUYCYpzKBcXPGq/onQ6jPwxj4BHwCPgEZgeASzPdxuV1hOE6TFd8EehCuOaX4qc5IR8J0KvoxD6x50jtLK+E9KZFKnzWpVqYzoYqXOwyTHO6X9+8xmhT3dI/7hj7kr/j0fAI+AR8AgsNQQ8QViETxxxHyNBnh0XZ10jo44UZMfFWP/ouJiiWbRiza9OSbTa3gFLi422nPhYG52YsObBYWvVX1lqktX2DVjPyJhtTE+2KOWv68Nft1njwJAlKDJiakyUXdExnzwCHgGPgEdgaSLgCcIifO6sTE2JibGvr8y3n11pdhaC3ykvssquXitOSrCkqEjrGxu3Fwtz7LyOPZKTZgNjE3agqd2+VpLvrAiQgePt3fbFFTlW3z9kv52cYE0iD8fauiw5OsoGdX1VT78jG4sQIl9lj4BHwCPgEbhHBDxBuEcAH8TlWBD4w2rwu+WFNqRIjwh1DjKdMCJrQdfwqP2srsnqZQXoGh5zV1TJolAoAvE3lXX2cnGu7chKd1aFS119lhodaac6uu3rpfmOGPynU1WyKIhF+OQR8Ah4BDwCSxIB7yhpET52xDZ/IyIGNRL6dZouYF0BC1F6R8ecVaFfFoDfEHnIS4zTFMIyi46MkDVgmVungPUA4a8dMFaUFG/PFmTZNU0tvNvQZifae+xMR6+mIkadpWERwuOr7BHwCHgEPAJzgIAWyKOL+rTYEOCxdcgy8FFju+EdoTQ50S1MZM3B12QFgEKMiUCMizhMyLQwOn5d1oQhTT9E2X/YscYRCaYcKrQeYW9jm31R0xEFIhNV3f3WMzrq1jIsNkx8fT0CHgGPgEdg7hCI8vRg7sCcr5LYicDixG9dqtdaAcT/dfuzMzVuIaLbFilfGHkJcdY0MOymGlq0tgASMSDrwp8rX15CjLUOjVifFjV+2txpWBtqegfd9AQLG+kTMbI4+OQR8Ah4BDwCSxcBH+55kT57tjFCEoL9rZ3DI+57YBBqH+p1VgCmEliwyHGIRY9IQlcX0weyMUwSDT57wsqCIeiQTx4Bj4BHwCOwhBHwixQX6cNHfgfkgCYE3wPBDhkIUihv6BfE4KZzk/mC612uG5cGRfhPj4BHwCPgEVhiCHg78hJ74L65HgGPgEfAI+ARmAkCPhbDTFB6gHlYD8D6AaIweDb3AB+Ev7VHwCPgEVhkCCA/7kVu+CmGBf7AicOQIYqQK4oQ7WjCAq+wr55HwCPgEfAILAgEiOCD3Ih0S89nXyVPEGaP2bxegZ+C//H8dhuPW6dH7cM9zyv4/mYeAY+AR2BRI6AFZWNdljr6qfOdM9umeIIwW8TmOX+k4iSkyT+BJSTM85397TwCHgGPgEdg0SMwIU+6HZFayT77ltzL9MTs7+av8Ah4BDwCHgGPgEdg/hAgpO9dJk8Q7hI4f5lHwCPgEfAIeAQeZgS0Jf4u7A4PMyK+bR4Bj4BHwCPgEfAIWAShg33yCHgEPAIeAY+AR8AjEI6An2IIR8N/9wh4BDwCHgGPgEfAIeCnGHxH8Ah4BDwCHgGPgEfgcwj4bY6fg2RxHOjv77cjR49adU2tFRYW2q5HHrHk5KTPKj80PGwdHR22PJ/Qz0szDQwO2vnzF2xwcMj2PLZ7xiCA7dDQsGVmZsz4mplmbGxqsk8+PWTDej4bN6x394mMjLQtmzfNtIib8tG2U6dPW1RUpG3ftu2mc7f70dbWZkePH7fm5harKC+39evXWVJi4u0uuedzVdU11tzSYqtKSyw9Pd2OHTthKSnJtm7dGpU9+7VQnV1ddujIEWtqaraKsnJbUbDc6q5ccX2+VPeYTaqvb3DXZmVmWkFBgZ07f96iI6OsoqLMEm+Dy8DAgH38ySd2pa7etm/fZmvWVFhsTMxNtx5V+PQDHx+00pISKy4uuuncTH/wvGrVNsroUrtJy5cvt/g4bYFW6u8fUF8a1BiQbDFT7u8y+H88AneBgCcIdwHaQriks6vb9n60XwNsinV2nnZC4qUXXrCDn3xq+Xm5EkAj9oMf/dj+l//pXymS44TV1tbZk08+4QbRhVD/+ajD1avX7Lvf/4ERynLVyhJrbWu3Tw8dttycHFu5stRaWls12HZLQJZZfUODXbt2zXJysu3qtUY7d67S/uD3/4WtX7t2zqra0tpmv3jrHWtqbrY81eH9D/Y6udgwKZzWrVljtXVXrL293dZK0HT39NiFixetpLjYcnNz7cyZs0TlEhHYYqOKyllZed7y8vPsypV6i4+PmxVBqNM1p06dsejoaHv3vfftiupQtnqVXbx0SVittOioKPWpMxahsN/j4xOG4Fy3bq1dunRZOLaJkO6w3r4+O3HypIhFkjvfLkIaGxvr8Ors6rSystWheoqkFUroRqqsw0eP2Ycf7rUnntijfMtsaGTEPvjwI92/3nYgYCsqlE97tmeQrjZctRPHT1p8QrxwfcvhhACGOJx540333PPy8uxaY5O1iJjs3LnDUlNS7ZNPDllGeppI0Vo7V3nBCdwVqt+QyNY/fPPbwiTKVq9ebRs2rLPTwvzCxUu2QW2P0nHyj4+P2RN79jhh/7M3fu76TrrKOyiiMDY2pv5zzZX1mEjpNfWlY6pjdU2NfemlF3T9eRtWmx/d9Yh7pjNopsvSJCL3H//j/2uvvPKywycpKVEKQKcrjzZXi3wdPnLUfvWf/7KNKYw7fWj37p3Wpj5PGzaIAK5XG+ImCcVM7+vzLW0EfCyGRfr82XwCOXjm6SctJTnF/vbv/t7q6uo0GDY6Ifjk43ucIMSK8KOf/ETacJZdkRD8P/63f2sRcr70sKeJiXENjm02rlDXBdIsf/H2O9Kwhqy3p88ahdHBTz+13t5eDZjx9uHevZaZEbIWoI0mJSVZ4YoVEiLpcwpTu+pDvZ4SUXts9y5DoCJgEIgI3qsN1ywjQ5q1NPtTZ85YWmqayF+n9ajOvQc/kcAzixMRuHDhouFAq6a21hCAydLCN23cMKu6snsJorRt21YJtKsSbofs6LFjTqCsKKiUoJNrbwlELCko9wjAAx9/7LTWQVlm/vG73xPvuq76xNvVq422r/WA6p5hWzZtdE5djx0/YZUiBqMShmlpadbd3WUjCikeHRWt790S0oedoEW7RusF8+7uHhsYQAu+YQm7U6Oys7NFjNSGq1ftzNlz1ibBOCFCA0koKlzhyEGjCAJE6K233rWOzg4rLSkWIblix06c0O9Oo4wJkWiwJl9pabGr40cf7Xd9JFX133fgY2epyMrKlBWk2VJTU127uM9OkaVHH90lmJbZ937wQ0c4eLb1qlOnhHieCHt8XKy98867avO4NYogjgiXF774vAhLyp2a6M4LaqsQaTwigsU1q0XmwLhE5IB6xsREu/ZCMM+dOy/y22INeq5YRrAMUQfu6QnCjOD2mSYR8BaERdoVGDAwU9fXX5UQrLNBCb8LFy9rkOty5uYEeV5Ey8D0jNa5ToNLWlrqXXrkXnwgdXR02VlZARgosaA0iByVlGDaRlh1SzvvdaZYtPae3h6H1fLlBdZwtcEN4gnSShMk/OYyJep5ICBqqqstRoIIrRLCsG3rVmmnkbb/wEFHGkZkHSBfRmma0+qZLjp/vsc2bdrgNPSP9u13Gv6qVSutqKjIWmUJgQjNJl2X8xSEMdYHNN5RCe+QkCl0wocy80U+0IghCNTnmohAmgQjZOqCLA0QBIQVhKGzK9rWrV3jiCgEB5M31gTM3atVT+5VIytW0eoVVl6+2k1tQNQgDZjKsRzkyxoSSX+dYeL+gyq3UVo60xcQ37jYOMtfnmd9sm5AUKJEviBR2dkiyGorUwJYCxzZkjZdVFSoqY6TrhyEP+9Ielq68Bhz5CFKhAZCgaAlbdmy2erUjusTE3p2E+79gqgxDQFmVVXV0tTXubY3yMIB+cNaBTnl/kytbNm0yQqW57u6zbCpeg6jjgxAtr77vR9YrAjHhJ5haUmpdfHOqz8tUyx3yBGWmo2yGDB1VC5LCJaFkydPueeDUuGTR2CmCET+0R//8Z/MNLPPd28IMKCglS1bdmsNnkEP7S5CL7tdHzUbbdMALR4XnX3TzUdGR+xyVZWEyscK1xVhX//qV9xA3iztpFiD3sb1G6xPc+kMmMs18DZoEF27Zq0bZG4q6CH9gWkVE/irv/SK7dixzRC6ydJSz1+4YAMarJnzR9B1dXfKVFxsOdIiEX6xwisrI1MCrl+Df/ScruFAU0aIHdQaBLRdnhPCMSE+wVmB2HBM/yBhNsaKgcCCrKDZsp4EQZSdla11JyucqR/Bx/GsrCyX3108g38GNV999uxZO3T4iLOwfPXVV9y9mGbJ1TQL5CAtNcUSEkU0dU+IAGtd0LhrZKnCQpWTnSPict5ZHahHuaZqMjUV0S7sIa/M5XeJjJ08ddrVDysH52kDAi5eBGzTxvUiaL1uaixdwq9YhCcqamZ6y/DIsHA8a58ePqy2F9jjjz1miXrG4IjljPsgEKv0nkAgHnt0t23Wcz8igQl5gdAg1EllZaudRYV3pa29Q9MAwyIDmxyROypNnemX0FRPtnuGtCNfQr5A2B+X8H3/gw+dlv6oLEPUiXKZUohUW44cOeae67PPPCOiNab3csBNX0BcZmrNG3BrDIZkrXjEPacyCX6sAgf0/vP5xJOPW70ISAi/SBG2bpGucmeV6ZCVo0LfK8rKHOauwf6fpYPAxJDZUJ3c9VeozZIrSuOQ2ztM5bHWZdnQ8Ajvk0/zgADm1IT4WA0K02tJkAPmeyEIaAE2MWA2cF4EgFgM6+ahhg/vLZhOYH3G/gMHnNb15S+/5EjBg2gxz5m0mJ2UYdWAnB6Q1WOFhPPzzz3jhFM4ngwwhw4fdes67nYRZnh5s/oOxnqPMMlTj00bN7p6zKoMn9kj8DAgoGBN1rXXLOsVtSbCWf5QmGI1LXW7VCvLmCcIt0Nojs95gjDHgM6yuIdBMM+yyfc9O1YxiM5iJjv3HSR/A4/Ag0TgHghCFC92MHA+yDb4e3sE7jcCXojNPcIzNZHP/Z19iR4Bj8D9RkB2bD/DcL9B9uV7BDwCHgGPgEdgsSGgWAyLrcq+vh4Bj4BHwCPgEfAI3G8EZEEIrWq83zfy5XsEPAIeAY+AR8AjsHgQUCyGxVNZX1OPgEfAI+AR8Ah4BGaBwD0I+ZltOJ5FXXzWuUWABaQjw6M2ETkqW4+fD5pbdH1pHgGPgEfgIUdgbNhiJUfuxhbgCcIC7xt4S5OvChtbNqwHPLHAa+ur5xHwCHgEPAILBwHRgrEhi5Y32Uj0y1myBB+LYeE8yWlrgsOk1BQcJc3cP/20BfmDHgGPgEfAI7D0EJDzPevE5f7sm35rn7+zL8tf4RHwCHgEPAIeAY/AQkLgHrZaaqLgAABAAElEQVQqeoKwkB6kr4tHwCPgEfAIeAQWCAKeICyQB+Gr4RHwCHgEPAIegYWEgCcIC+lp+Lp4BDwCHgGPgEdggSDgYzEskAfhq+ER8Ah4BDwCHoEAgWEtLvzmxXo729V3x/WF41pnsDI5wX5vTZElTYaMD8q5l88oRWq6l+v9tR4Bj4BHwCPgEfAIzDEC57v77N8fu2jdI6MzLnlbVqrtycuwufKAGOXpwYyxX1AZCR197do1a25ptRUFBXbq9GnLzMy0zZs2WkxMjIvQ2d3dbY1NzbZ2TcWCqvt8VKavr09tb7L4+HhLS0uzxsYmGxoatLGxcUtNTbGVpaWfqwZ5wDEuLs7WrVtr2VlZN+UZEebNwrO5pdmydK6kuPim83f60d/fb5XnL7i6lJaWWGZGhkWL7UdERtrg4KCNj4/bhQsXLSExwQpXrDBCKackJzv3WE2qW3NLi/u+tqLCli/Pv9PtbnseB1xNzc3W0dFhPd09RtuKi4tscGBQdQrFia+tu6J2ZmqbbYolJydZhupbXVNjFy9dtsTERFc3+lhOdralpqXapcnj69au1fkEV3/y1zdctdycHNfGq+qzy/PyLCoqynp6ey1b1/b09jhMVq4stfKyMouLjb1t3YOTnV1d7h3gWfT19llsXKy1t3fYucpKW7VqpW1Yv94S9Px5V3jutCtC24bBlQH0dpEonYOykRGL1LOhrg860Qb6ZnNzi23cuMGW5+e7ut2uXoNDQ1ZfX2/5wjtZ/ShIPKe09DQ9z3SLjND2t8nUJTwTEhLc+BEcm8vP0dEx1wfod+l6J939he90qaen17p7ui0qMso9rzNnz1lh4Qr1tSy7cPGSbRIG4W2arozFfmxUPnBwgpgQdTNGt3JnMKx+PaJr5jL5KYa5RHMeyxoaHrazlRc0KF/SQLjOzpyrtCf37AkNvD09tv/AQQ3kl9yL2NHRaXVXrkgolriXigGSgRohumnDBivV8aqqGjtx6pSEXpEzZ53VIFuwvEADeJYG3PPuHls2b5rHFt7brXrVto/2H3CCYNuWLfbmL95y7UxOSrLa2jprb+uwCTkPaZLAz8nJtq1bNjuB2ajBa/fOR6ytrd327TtgsRJWJSUiAnpREeBci1BMSWk0BFRB/nJ3/Uxq26Pn0t7ebgMDA3by1GknuMAbQlddXWNJqlui/oaGhu2tt981BmzIX+nKEjt3ttJiYuOsolwCNF5+Me4xdXV1W50IACSqq7PTCepeCexTp886UsV9hiRgGiTcG5ZddYQkLT3dkaar1xodbuNjY9avtoAVeSFiHSqLUe2R7ds0wPfYeRGey5erJLBDwh+hfEJtT0tNdS0YkRAuWL7crozUW6vIbtmqVTNuGcLyz/7iv7k+m6ryhvVODA8Pqf4JDs9h4bjnsUcd6aq7Ui88Ox0Jop4xMbGOxHQKh17VM09CNF7EEGLT3z8gInbd4ZOXm2tFRYW3JRMzrvA9ZKytq7MTJ065eo4Ks70f7XP9AyEJqYLoDes4ZAwMIaOnz55x9X75Sy/Z6NiofbR3v0Wrr5G3ra3NKirKHdG4qOeTl5fr+vuunTvssUd327XGRvvk08NuzOCZXa6qdorG1atXrVXPu6iwUM9NJFXvBc+Q/puu/kFIdd4L6tWufOvWrlFZTTYocs67d/jwUSsrX20b1q2zg5984ohbaWmJnTlz1tX1xRe+IAKfaj9+7Sd2+MhxWyXSyG+I2hWRnXL1y/0fH7QCvReQ1NuRvHuAe0FcKmjdWBxUBtHPtEOcSC6J7zH6Tj7S1Pyho/f274OnxvdW/yV7NS/bzh3bpPH1u4EZ4V9TW2t5+XnC5Lp1dXfZ43setbPnzltff5/TJBgYMvQSo7FGRCzTANNtYxJ6CD5eYM5fvnzZaV+QAUgGQq28bLUre7UGnqSkxEWBeawGwkxpSFcbrtl5aRxYEkKDTIM1SsB1dnY4LerosRNWoQG2oGC5s7ogpC5cuCRNKt4J4mhpjx8f/EQD1UqHGRo2AuSsCBlEa/PGjTPGgxe8ReXXaLBHAPNCHz5y1BEENMT1WZkaUCusW8+lXgINzQ8t8JzuRd17pFFhvSgouDfrARWmT4yPjzmBj7DGOjE4OGTrNaBjTWDw75Swh7yQRvDmKUIAiYmJiZbgKJbAWKNB/lNHDiBZTRLYzSJYEKDW1lanvWMZgTxESFNNkODOSFP/kxBB66dNlDmqv1wJKO7Jc5pNKpbwhoRA5LAMYTV49pmn7L33P3DkBQLTrzpAqoZbR+30mXMizanOmsDzAPfoqGhHgrs6uywnN8eGlL9MfR5rQ5/er+GRYZGH2dVrNm2YSd6ioiJn1Tp58pR7JuMT405oY91plwJAZ8IyEK92NjQ0OGG8SX2zSQSQdh47dtKy9IwgPCdOnrQtIs2NTY1OwPLet+j55+r8KllewBICu0XWyEhpr8eOn9CzLhfO5zVGdLm+26H3p0XPGAENYeY5V9fUOlyfePwxa7h6zVkAsBLRz46rjE2bNtm69Wtdc48cO+6sAfz4RH2I50//oy1Reh5DgyPOclUqco4yBJGnXhv1fCE3Qb90hS2Bf3iGjBe/tnq5FYvE6hWy2r4Be62mycYnz90PGPwuhvuB6jyViRl0TC8fPSdimR6les11CS3MhggxTMEM1JWyAPBCYdKGENC5KsrLnUDEHIu2cVFCFA0yEKQnT51xg/cyEQmIB6MM5vDFkhDeqalpFh2Ldl5tDDQQIczX2RoIBZ0E2aATwiukDSUnp7iphR0iXS+9+EWHFdMJ3TK/Y5quPH/eDciuDGmaCO9xma2Z4plpWqYHhQD60osv2IsvfNFWr15lzzzztH3h+ef0fbXTgD+UZnjh4kU3MBeXFBlmd55ll+rBFBL3ZQrkXlPIbL7MPWP6C39YVOgfDNTvfbBXguSUxUrTxjSMZhgpYUBfGFB90MIx9fbKtA8+XMc0BERrvbTDXbLC5EoYoakvl4WA/onQoZy1IiGQj6MSEpCHayJsMSoDS8JsEvhjan9OGCIoEX5Mu/2XP/sL1bPOsoQXBI+HPSFtC2sZ/bultU3t1nug/5KTki1eZPC62p4igrFcBJvPVgkhpi3IExqaZ1Ozuc/bIvKFhYSpnOqaakcaIT+lpSV2VcIYk31pSYkjYFgUwL1KWj39l/YnpyQ7slBTW+Peg+zsTEfYILoIePCfUD5IEhaBOFmrLldVuf7Nu1RdXatyljkFA3LHlBEWpBGRJ6xgKcKf+9NH0/TeFYvQgN3BTw858oXL+EThTH/p7+t3BAaMmW4A//+/vfcKrivJ1vQS3hIeBEgCJECQoAHoWYZl+nZXd3W1uX0nRrozitDTRMyMXhUxb6NQhN71Ir3KhEIK6UEx01LM1dy5t7vLslwXySp6AxKOBAhHeMJb6v/Wqc0+hQJBeOIAK7tZ52CfbTL/zJ3rz+USM1VBQZ6R7hnNaYzFrOxM61PIByY/Cs+jPhAftCqQ2e1eIAdzwu/fnj4c/suaitAjzVhBRlr4l0cOhH9zskYob1xJUp5/nu9lExBgtZKdlWGrqcUeh8Cf00RmkzFqpPlxSbEGSX9SLR//0SXcDy1AmlZ0qHGZtA9pBcBx1MCsDFjZTWn1BwlgEkCFfOJEndn/sGsfkB2dib1Pqm8mV1Z57VIj3pHNr6JiX/jJO2+burFCNnEIRqIUMGBi4RMBh1Bl4qOkalVEQfAyyWbKdo3KFGHFOeA4qkkMMwyY8Xe7VmUIwpLiIiMXCFiECtoYJuflFO6NRiA9LV0TeJr1CX3NKoxVNPdD7c/kvEeraV58iB0mBzQ5mBwQxKi8EX5rKbQV4QDxQyvERIsphWcyXlATs1JDjctz8T84fvyo6jFiEzQCASGPCYJxwT3ACIGLrTiy26OqZvWHChtylioM8avAtMH4RNCkyM4M+UQ7sZJC/+G/gDaNfoTMoBnBDATZoB5oKW7fuSNsn+nvStm0U0xAgicqeQQa/cI4ARPqgOmN+mPC2CMCsr9yn97JV7uWgpg26h2n3tXVVfYJweUdnVK9IbhoFWg7ZkH6EdwZu/irgAMLBtqVq/c9T+1kXPGO9KsfnvsDaDzgdwIejU1NEty7bX7hXcCcpuGqlXymxsBcjGTpAPeDTPCu5ObkytRQYGOmU8+nHwYG+sOs3sFKjdtBtB0q1JGxAXEr0XeIHO8pBI73kXbSZ4wzFi4PHjRaX+wRgWNs8tszCc1ivY/RWLMbb6P/fNc3HP6zP10Ok8KI9v6fPztrrZvV9xThnp2WEkanZ8O//vxG4NiMiNPvf/Fa+OneYtPSPYdidiiEoYvq2N/pULLda1pYZ2gOWqo81GLACcJSCK3zb7x060kQVla9Z5oMYoKmTKvYFxUmokGtIpj8Wflhk/WyPRFAIDLxoH6PrZR/3E4zAWjcMglDkBKx0Aa0AAhJBNzyiiZcXYfmg+u8OAKbjUBEEPA1IIxxtxaX/3W9NIozcyFVi4ocEYT/8VZL6B6XCU8De3oDCELi6Iw3u3e23fOSzD6JjXKpwmTICoJ/XrY3AssxVUAMEn2Ftrr6J5lvwvYeAd66REEAjUGPFnj/7ZWGsFemlxSZfttHJ8y/hN82qjhB2ChkN/i+rIpQ07a3d8gb+bCZB1ANE77H6h9tBaYH1NWofqurq8wWiVpvQqpFvONRaaOGPHz4kKmKZ6ZnpAasCH29fXY+6m/sfKhycapDFY7pAtUz6uhenccKlN9QURNShf0alSZqWtS3LzNLsErDM7pNTnmooVFFDkiDgSMe6k9U2KgpjxypTXhBtcFDYsfdHt+Fu/INQbWNXXxe2i8c5zCTEcWC536lxjkqaezWjEWiLHB2I5wPGzjqecYpzrvYw6dnpqWu32XvDcQC2zgq862mRaA9vJ/8W2lBS8i7zLW8v4vdg+PYnu0Z+lx4XvzfL6sLv/O8heVFxxee53/HEFDIoX3pkMaAspHEwB6g/zhBiJBIsE9swd9+e1VhcTnh4sUvbBLEWQhb7DV5KaMaxfuaya6rE3vvoOyR+eYkhI3vs4ufm+8B3vpXrnxr5+HJjq0Ru24RtnbZ+L7++hvz5kYdjZ0SAoB98Nq1G6aRwHMdQzZ2XJzWyB2AfZ3oCUKZcGy7ev26vJKnjAB0iaCMS/Bjh66TRzJDnhAnbNHE3fMcbMl3dT1e6TwLv4q1TtAQJoQHNvwDskXHF8gMv2H/xGcDhz0mUWy8fOJFjbMnQgTys9iEGn+/RPhO2+hn2kK7+YSQYXdHgELWcASbFmkEE1SYnAcWXIvPAEIiFmom9abIKQIWZzTG4Ur9CVaD2cjoiI0bHPGwr2dpXFM/SCfjhvbgnX9a3vMIu061hygUxjzjNVckAQLAmCM/BaQXx0fs6fjkZMjB9cKbb9p7s5r6rec1hPh9pMgMSDx5TVggEFmDUyh+Szgr4+MBUZ8VMSLqgrFLf9AOE/T0sdp6S35I+BA0tzSbb0lVVVW4fPmK4cRigneBKCbmEt5h+pLQwrt379n4z8nOsbwVLEyIWGlV9AKLjHNnz9h4ILyVOQnnR5wL29sfm3Pref3+RKGP+IkQOcSzCD/9zQcfWOijOZSuJ2gJfi8o1az6Dx+ExWigvJaet5Bvc1rwqYvXtThBWFc4N+9mEfs+qEmNiAPihXn5r0kY4z1eK6/4r/RSM5GwEhpTuFaOJsQT9cfN2enwoYNGFnBS5EVFQOO0VF9fZ85J3D+2ipBDTEpqSJKgLy8rtwkB57ITJ+rNyQzBmSanO2KVcexjch4WeSGRCcSBYzhSsnq7efOW2bGzVI9I44B2AIF0ShMS2gw0FjyH1R0aEJzEcJBbqVBG6CM0WGUiEJgoIUCYWDqklWAy3a02E6WBlgINBgKQeH18L3Dg/Lv/+Pe28iFcDMGDtzikZTOE30aPJDRJ9Ad9j+MX0QBghcCnjffv37e+YgwgGAhXq5UQIBERIWyQAAQphKmiYp+RUMgqTpX056GanBX32UrbjN8EgpMxDjmgXxi31JFC0jCIJSR2UsQWgszvCH+ILOSZcFiuz/veyx8tHO2olGMi7R6TMFvp2FtpO5ZzPmSHd4UIAARyh/rvkoj92TOnzfFvSMKYMOTGpkadMx5ee+2cnI0fmz8RoYHkKGCOIHEakQAIb0IWCxR2iuNmqt5xSBPRJ0Qe8L70KVcIGhdw+ulP3jWtJA6hkCqexxgiiqdOibEuXb5sYwjCwuKFd425gYiV93/xXiyvh4gcfUCyIxxEf/pXPwkfffSJokZ22UJiOTjspHNq83PCf3XsQLg1MCKCvnTLIRI1eTnhVHGekfmlz17+r54oaflYbakzEXRMauQqOKmJkAQ8mAbwWsZDOVUrPEKiIJkjmtyZ5MYmxkOjJnVi70mGQuE7E8eHH38sz3i9uFMT8kRWNjWpbZkk8uQdzU2YSLt7yDR4x0wYhBCibSBmGfUhpgEmWlZzmC+4HuGLonJAEzbZ+vZLqODBjwaD+iBIaAORAP/3v/u9aShYIT2QJgKTQsW+A7ZSWUw9aZVf4j9MUtSPkDwms1wJPnO4lMAbVMIcVsGEwiEcMXFM6blNLS22msRMwzUIEjzha6TBAEOEJarpbVHUFsYIYX04pZLsiMgIQi9pM3HrtBXCwOo6SYSrqalZfUw4o3JhJD0TMagwLAdvS9BoPEAyIRJghSBeq9bnZTiz4seDnpC+XRLqrJjpN0gKggynSsYZnvgU+p9xgYaLdhGZQD4Q6soYi7zjIRqM91MnT6kNnPNj9fjL6rbev1PHq9euGc5oRBi3+JA0igTznXe4qaXV+qD4WLElPoNkR33I77QZbQn9EpntLl3+1tpXXFIcCqUhhECgLSKrJnigQeLZkPxRYXei7rjhW6R5Bg1Djd6VZs0p4Ey+kRu3bhmh4H0DN4gAeSoKC/P1/FwjIfQLfXXr1m2LyCEKaCtgvN59ttb75ej9/O/OHVnrbdZ0vUcxrAm+lV2Mmns9oxh4cRHKTIi8cIQyYkpg0ozC4DiHSYEVNao/hB/n8kIzUXA9LyyfnMv3+JeVY9QbYY6A5FrCqVDD6yZ2DWSAwj34nXOjwjNZmUIaCKdcrHBN9Ayex/0hEmspvb19UqG2mBBg9RWb6KUK14SHpgLPfdpJYh+EG6skBBuE5YS0KEx+V658ZypczkMzc0Gk6ow0HWhMEr1gzoGIFUhbgOYJggBhACtIIVoXVo9kI0TTAiFtk6oYsog2iJh5MGNhg0qacDX6n1j906dPWi4ExpiX9UEAMou55PChQ3ZDcmUwLukvNGCjeverq6uMNPD+kewJ9T19gIkO0nNQv5Ooi6yqmdKWtUoTQfrxD95/33IrIMD/8R//aHkgfvHz9ywfB9ozklF9I60CBIP544svv/o+BLTcFgDkC+H9fvPN121McP8oyRpmBTQNZ8+etVwVf/8P/2iax7/6yTumyXz7wgUzYflYsW7dmP94mOPG4Lred11vgrDe9dtO94PMQDaYePhOib6jSo1Wt3xnQmWyjSYprsMsw2XIOPoNvwlUsazIovMSGS8cVNEQ0RY0PRSSbKFZAQvaiXNqTGsS81HguyH5PZ6wA3xdYug+M9U292Olvh0w2kr9a9gL9wjX+DHN+IScMY75ne5BM8LYxuTHAoIeZsxz7rXrN5WOWX49GuPsX4G5jfsx7rkGMws+Dc1Kr4wmjxU+1/FOcH97H0SgIQxcx8IEAsLvUcE3AeLPOOIcns21LFY4jjmP4/HvXXStf64zAmshCFKtqp9ir/g6V8tvtwABXqz11CAsuL3/6Qg4Ao7ASxGAHIr6Picbi11AJkMEOv/zkuAIrIEg/IXyJTgGXn1HwBFwBByBlyOwnKyQaIa8OAI+CnwMOAKOgCOwxRFA5Y/6HzMAjpj4y6Cqp2D+Iu8DIbxRwTeBvCQ4ZS6mIeYe3M+LI7AUAqmLDZ6lLvDfHAFHwBFwBDYXgUeP2hXR02U5EEgkNi1nUEKFsftDBiAL+AqwTwffP/r4UyMRhBS/8dp5y3nBPhnkMmHDrevyQ7hw4Q35E8xaWCv+BPgi4K+AX4AXRwAE3MTg48ARcAQcgS2OAImNEPws6EaU4IocH+QjwZeAiKWW1lZLVkRSK3arZEfKd999W1Eq+RZR0K8Nk4hkIkyVJGVs0PTlV1+bhgFNAvkUcEgkVNUJwhYfDJtYPaeKmwi2P8oRcAQcgdUgQFZTwlHHFGVCQjPyjhw9ciQc079Y0rHHFmJKQjMSog0rbwEJo8hBQJhhFbu2SoNAhsnq6iolU9ttuQ3IpcA22YQvkgApPhJhNfX0a7YXAq5B2F796a1xBByBbYiApUmXP8FXX39tGQvJ+EkWRPJSkPmRrJHskUJ4IdktyWjIufuUn4BcBLe1fTtbJ7+v/AZ3lfgKzcMv3nvPzA3kTSEpGHkwIAvkQvHiCICAJ0raxHHgYY6bCLY/yhFwBBwBR0AZ7IZCGLoYQsnvhIbylshMNS0NVIYyii5VHspXxU0MSyHkvzkCjoAj4Ag4AjsUAaXd9kQYO7TvvdmOgCPgCDgCjsALEfAwxxdC4z84Ao6AI7B1EGDDJKIRiDQgtfFShXwJhD+Sfnkpx8PrN24oPDK2jflC3wN2OCXHAlt7s7kTDo1edhYC7qS4s/rbW+sIOAIJigAbhl3VLpu/+fUHFoHAXgmHtfsmeyqwARmbKj2UUCeckS2Vr0n4nztzxiIYyrXjY5s26GK3xSjBEpEMn138PLzz9tvapfW2kQm2wS4vL7NkTPcfNNq56SIIbdqA6UR9vW297mGQCTqAVlFt3+55FaD5JY6AI+AIbCYC7JLJ9uXsMvrtd9dsQ6wSbdHcrPwHbPmMpqCtXbs0ZmTajors7rh3z56wV9EMRCmkKPyxTZkV2Ya5q6s77NKupU+HR7TrZp0lVIIs9GinxyZt3fzWm29q2+dubcI0qmt3hT/86cPw3s9+qmfEdkDdzHb7s14tAq5BeLX4+9MdAUfAEXgpAhABNAVHag+HQW3pTibFvvl+ZT5Ms/BFEiIVaRvuNP3NVt3syDigPAhj0iaQFwHPdUwNhEvyPTMzy3ZWxBSRqzDJIWVn5FzMCGwlTdgjW3xn6bzKysrA9unkUOBc91t7aXdtmxOSfDfHzetLD3PcPKz9SY7AdkKAHAekQcb3AE3CtWs3TJDX19eFmoPVJrxLZB7I1jbKyckptr1yv4Q8JVOCHtMB+zWgSSBzItsvz83NmwmhQCmam5qajICgdWhuabZ7FItwQEDSpZ1gTwfIRb5yKbiJIcFG1hrCHD0Pwib2tROETQTbH+UIbGMEOjq7wvDwUKhQIqRdMgP4qn4bd/Zam7YGguAmhrWC79c7Ao6AI7DJCOwjW6L+eXEENhIBT5S0kej6vR0BR8ARcAQcgQRFwAlCgnacV9sRcAQcAUfAEdhIBJwgbCS6fm9HwBFwBBwBRyBBEfBUywnacV5tR8ARcAQcAUdgIxGQk+Kzjby/33uNCChkOcwrHOmZ/nlfrRFMv9wRcAQcgZ2GwNxcSFGbV7PrkvZi2GloJVZ7SWoyMzsb5rU9pxOExOo7r60j4Ag4Aq8agSTJj5RVCnpPtfyqe+8lz09OTlJ2s3RlO9E/L46AI+AIOAKOwEoQmNMmW5Or0R+E4E6KKwHaz3UEHAFHwBFwBBIJgVVqD2iiE4RE6mivqyPgCDgCjoAjsEkIJGPj9uIIOAKOgCPgCDgCjkA8Aq5BiEfDvzsCjoAj4Ag4Ao6AIeAEwQeCI+AIOAKOgCPgCPwIAScIP4LED2xXBDCnuUltu/aut8sRcATWGwHfzXG9Ed2k+01OTobbd+6Gew33w/FjR0N6Wlpoa38cfv2rX9p+7Wwt3al944eGn4aTJ+rD/Py87QEfVQ9BOacEGqmpsSEQ/zffo/Pjv0fXJsLn4NCQ7XGfk5MTysvKQmNTs7UXj5v8vF3C7Jhtkcs2ubSRz5bW1vDnby6FwoKCcObMabuO35KTYzwazB+1tYfHHY/D3j17wtEjR+za6PeX4TI0NBy+/e670KZ7HD58KOzevTvkZGeHlNSU8FT9NKt45Vu374Rdql9lRYX9XVJSHFJTUlS3h6G7uyekp6eFU6dOhQP7K1/2uCV/p38ftbWFnp4nYXBwMMzp74PV1aF/oD9kZmSGtLTUcP9BY9hTvicUFRaEwsLCsGdPucZbQ7h+42bIysoKBcJpeHjYcMrPzw8N9x+EXbm54dzZM6GoqDAwBm/fvqu6t4R9+/aGqanp0NLSatilqR3DavO+fXvC6OiYte/okVrDHUyWU7qER0tLS6isrAjJScnhhuoFrtN6bld3d5hV7pA95eU6VhMYB5SRkRGrF3+np6c/3yaZOoyNjdrWydl6/vT0tOo7FTIyMux80sxkZmbqHXo1a6qR0VH101AoLi5S/2TYmGTMMmY0RO1dB/Nc4e9bPy9n9Pg5y0HACcJyUNqi5zApQw5u3rwVqqurbFKcmZkOT5+OhH/4xz+EJ729moD3afLoEnloC1VVVaG0pES/PzVhM61z37rwpu0pf+vOnXDj+s1QU3MwzIo4NIh4FBUV2fkPHz0Kp06eCK+/dj5hJh8m91sSTpCgM6dOhj99+JEJj8zMrNAuIvXkSZ9lFkNIIvjefuuC4cb5hw4dCr36/Y9/+ihkSSjslzBOlcBkJm5/3CFBMh56e/slTAfCYZ1bJkG/nDIxMWETe5Em+fbHj43clZXtNnLX0dEZSktL9ewam/S/uXTZBHe5fq+pqQmNjU0hTQLtwIEDIW/XruU8bslzBgYGbQz0PHkSBkQKSopLjOz0qV1pIpv1dcdDWenuMD4+JgE+EiYlMKkr7YUodXX1GBlAkFL35uaWUFJaEkZ07v0HD8Kbb7weRsfGQkdnR3j4qE2CNjOcOX1KdXpmfxdrbGVlZer+kxq71SaQEcKpKcufkvr7+8MNjX0EPUT3//kPfxcuvPlG6OvvC319/aqfiODxY6GiYp8RhFEJWUg1baZ9Byr3h46urjA3O2N9Maz3Ykak4rXz50J+fl748KOPNXZOxYiPSNuB/fuN0IEPRAOSQRtzcrLDpMZbkv63a1eukS6EeE5ujsbKmBFBSOdaBPcDkbWLF78Ih2sPGVGgfmBFWyFBENv3fvZTe0chNV4cgfVAwBMlrQeKr+AerGZYMbCie/fdt01osMIg6yKfOTm54dfnzobrEvpM6Ag1NAqsQln9sUp9otXj9PSMCaTx8Qmb7L78+s+2umay+ejjT7QySwo/efcdm0ARBoky+TCJl5YUh0cSTggFVl4pWol3dHSYcGa1zLGWhw9NUIEZ2gIEJ6vSVF3PyjRVq3uEECvTFK1SZ4QXwqFZ56SnXwjvvPXWsnuf+yMsIQdnT58W+ciSNqJTmKYb9nv37pUwKTWigsCjjpAKns+qGvzHJLBn58iqubbCfSFDkBu0FY+Fy1O1q6rqgK2YEd6SdyJPe+xv2j07OychFyTUJ4wsHDt6RBqRa/p73EgW2ogOjbFxjTWEMEISwYkAB3sEdIqEGgKtoCDfGsDqt6+vz8ZkZeU+w2K5LUPgxshBit1/f2WlsLppl9MmSgbPVh9SIM5oe6gX4wNN0MefXrR6FUpLAhGk/9HYZKRnqO/Twl0RZbQkrOCbm5t1lyR71+ifvLw8Ceh+azvaErRLaTq+T/3INRB0iOpbFy6E83oXIRKrLbtFHs+ePW1arsnJqYA2ivd/TinY6atTJ0/aeEmU93O1OPh1m4tAqumnNveZ/rR1QGBIKvQ//OFPoVWre1Zgu7SqZPJLTtLklpmhyemJrS4QAt1M1prwmGSYuHO1simQ9gFV92MJq5KS4vDw4SMjEiXFxTapfvrZRROGSVKpsjpBpc6kmjBFkocJdEirQgTQ8aNHTRDE1LA5msjTTOVNu0pKSrVizA/jE+OayM9oFfpmuHP3rrU7Py9fKvZC09JAysCK1W92dlZISU4xobBcdT9C8rA0BG9deEPko1Ir0/um+eG+aDLmJIDpU/oSMwgrX/r0zt17JnRRH9OfCOq1lnSREgQsRAFyNCyBg2CDACDUP1H/Q2R+8s47JuQglZAliBF1gMhAvNBM5UtQUqdktQ8he0bkp+rAfhOQ167fiJHKpGcm3EqkwUJLAnFtksDF/AVJRUDTFyspmNXQblGPg9VVYe/eGJlhdQ0JYax/8uln4UFjY/in/+RvTKBzf8gy9cIcgskGnLkGsjQ9FSPMkLBqkSVMPrwvmFiePOk1csAYaBWxnJHmAUza9R5NibyBC2MDLQoY0o+MnRIRUUw2aylZGm+DQ4Mad9k2Ze/ZU6S65Mp01qT3fMDIDxqVUmlxIE1eHIH1QCBpcmraEyGsB5LLuAerjOws7IexFc3CS1hhsiJg4jZb5/y4lmsNSmel1Vz28R+cju2R1c64JnhWJkxErFaYyLEvY9+dmJwwIoAQwC7LSg877bvSCLCKYlUEaUBwMWkOPx3WhJca7t27J6HUYBP5O2+/ZfZxJsVEmnjm5+dMXQymkT8FphNmV9oLxmhWsIvTZogD/TOn67DB851VIAKaSXlQAjRF3xHSqMk5zovD/bOF+XJKJNzpW+rAMyjUhTpyPyZ5q4/6c37+mQkg6jQ5MSmCE9MeYPrJ/d6mbjdYxX94Nv4rSdKK7JZQAa9ikUMK9URLMDIyYn+zEkZAQm4YYxQIxoTOwdcjJzsnZGoVS90xyXAubaJgzmLljgCGYPI8NCZoK7gelbwRW+G50vHFO4D/BGOX56PyxxeB9OT0C7/z/Hl9h/jyfPwqIAWYmug3qgnu1JvVt5kKdBDyEbsHWhOZPkQEeF+eqZ9SNF7Q5piGRGMoQ9eCJ+fzTl66fNmed1rmCc6FiEAo11oYj4wN+iVddWU8YuLg3bexrQfQJsaWF0fgOQKzQyEMXQyh5Hc6pHlL43R6ZlYLwaUXfA9FgpOmpmd0vnOE52Bu4BcmkfUiCCutJn3M8/kXOWwtdg/OQ3BCJnBC88lmMZS2xzGIAP2NCh77+WIF4sK/SIgvdk4iHaO9EXnZiHpzf8gDgtzfnY1A2O+5YgTWQBDWpvdacU39gleFAJMiK7SXrdI4Dy0E/7xsbwSWI8C2CzGIenIjyQHP4P7uBxCh7Z+JjoAThATtQVYpTU3NcrJ7FE7W15ktGPPEMdnazVFMGgAmKggBzlMnT9SZvbmjo8s0BEeOHJZKeMDs8rWHD5udG1srHv0djzvD66+fN9vwzVu3TH15ymzF07LnNsl0MWnRDo/0bLQRx44dCaMjo+btDbFAZc15hBeeVPRDJIhYXWkK1b/YKi76Gx+Ba9evmyoYOzS+EdhXcZBrbmmVNmPMwt+qq6oStLe82o6AI+AIJB4CqbFJOvEqvtNrPIJAftAox6xYiBMe4hVyfBuTox0OhwjuHjlVnRB5wM5789bt7+3DBSIFKXLAu2y2UTz5cbgqk9MZeQAo3T09Ztflk3C7o/JWH5AjG4Id7/PRjrHQ3dVtameuwT8BW3CrYvXx/Mf2SwggYWPFckrDZPHV11+bAxW23pbWR0YacO7Doe2xQgchEYcPHlQIYrvZiHPl4NUkcrBPjmfUg3DNtRT8MCBKSpUUjil/QXzBSe+RnN3AiTBC1MPY2rGpE/aG/wakq3x3WahVmBmr6kQvQ7Jn9/b2mb8BDqu0GR8U+gJ7PlEA7e2PDYeY82JSyFffE7aHBz22bsxV+BsQAjom/wiuxV+C0EJs/htdcNTFZyBPDp1Dg8NWb+zxCwsOoPfvN1p+i6NHa815cOE5i/2N82RXd5f5TxTkFyx2ih9zBLY1Aq5BSNDuRdBJm2mhcmgJjh07Kuel0fDdt1fNm/vgwWrz1MYhbkgCkN875JVeVFisFfpjhUXVm0DHAQ/hibNjxb6KWB4EeaTHHOpmTHAjvAlhwzOdZ6BGPXKk1jQYePLjwV5QUBgOHa4xAYIzFYIVRzdIBd7euYpJD8+SFGrZLSG833wcqDcOV9YOCRzIB0IZmzeaiFQJ4uysbBNGOI2tpCA8CA9sE+FAmMUE4FNLdtNGXL6eXa4kQKlpsdDHnp5eayvOiIdqDlrY37///f9rGhhyJJBI6GHbI0v4A5FI9AI5uCl8iALA833f3n0iDL2mQSL88rur14xA0r/ffnfVCN+hmhqRgyHLt1FVfSA0Pmi2awlP5H5EAaC1IiICb/6NVucTVTAgYkq9IKOQVQjC5NSkwlm7bDzV1R23sct4Jmqio6vT+pQ+xEmSaAUUWxUioJCmaREOokp6pdVCA8Z7AZElp0KkCUv0vvf6OwLLRcAJwnKR2mLn4cXOqpo8CKzCu5TwhVU8KzrCqxCwJGchux25D5j08B5vbGq0cKkQqpXIJddWfUz2X3/9jTID1lor0Sbgdc39SYxDRrqqqv2mVSCkLFP3IQSuW6QB7QHPIUQQQjA/90yhbvvNLEEWPlaSkAvMBnV1x8xUAGlh9YkgghTgXf61QikJS2NS7pJ2gnudOnVC3uTpRlZWCj/X42hJmCLaACZ36klBa9YnDUe3BAyJiLqVdQ9C81ArTbQfaF0gQhOKHChXuBzhc2hEduWWWsjbSuuyVc/HMx8yhHC/rURZZHbkX4WyHjKWiPMnxh4hzHhDQzT/bF4RH0XwPssN0a9EPXcV8QK2kDnORcNCPoXNEKhGQkSUMXFBGNAWQFDpf94FxjDkgBwgtA1NENEgjDtIAREYnRpvtwZuq6/LzMGwU+8SZGdM4wdT3jNFk3CPzWjPVh0rXq+diYCHOW5ivyMUNzKKAVU4YVZoBbDhR4XnEo7GxL0Zqt/ouXwysQ4rzG1GEy2Z+DarDEigQ0qS1GYSy6Qo9I32gwXZEHN35ZhWAW0KwoDEURAJQteqq6tMKBAGiD8FPhesqM+fP2vZAEmik+iF7IeYliAB5F8gxp5CBkJ8UchzQAZOSBIaHwgnJJTVNiGLaHmyFV4LgQNrxh6Cmf4m1XKNzEUbXdAOfXPpioUkYiozUwPmD41/2kEoJtkb0QZQT4gPfUrWRwgC5I+wxXvKR5G3K8/6H4IIsaD9mMYgFEdra21MOEHY6B71+28IAmuIYnCCsCE9svhNN5ogLP5UP/oiBCL/m4WqcI4vdiw6vvC3F90/EY/jQ0DBtICwx/zzorwdC9vH+XbtJsbhQ1ToF8hffL+8qG+pH9dwbnR+dC6/Rcf4jvYArRYkimRQXhyBhERgDQTBTQwJ2eNe6fVAIF4YxN9vseMcW+x4/HXb4TvEICorXTGv9PzoOWv5hBgsVpbqq4XXvOhcfGSilM2LPcOPOQLbHQHfi2G797C3zxHYpghgAmAvBMxCRO1g/sCJMopCEaOTSa3IsjbyI5oAdjfFBwZ/HPxM0BLkyheH3zCR4G9AZtJ0mZHQNJBEiv0VXkQitim03ixHwBDwMEcfCI6AI5CQCOCDQEgvu5Ii0PGlIB1ysdJmk3756chTi2CBAGBGIB0xPhU4VJJumZBNtAlEXhClgj8CqbeJXMAfBV8Ldn3E0RGS4MUR2GkILK6f22koeHsdAUcg4RBgrwocDclRQB6G2KZKBZazo6un2wR/srQF5Ur+ZRtyKaKFc3DIJLSX7bWrlPcCAkEeEbarJpIBUwkRHi0trXJ2HHhhGuqEA8wr7AisEAE3MawQMD/dEXAEtgYCROrcUAIwNtcimRcaAEJ6MSsQskvSLsIx2QKabdCJViEnByYJNinDLIGpAQ0C+46QpItwV3aGJHw3ttNpkbQM8tT04gjsQAR8s6ZN7HSPYthEsP1RjoAj4Ag4AiGsIYrBTQw+gBwBR8ARcAQcAUfgRwgkx8cA/+hXP+AIOAKOgCPgCDgCOxIB1yDsyG73RjsCjoAj4Ag4Aksj4ARhaXz8V0fAEXAEHAFHYEci4ARhR3a7N9oRcAQcAUfAEVgaAScIS+PjvzoCjoAj4Ag4AjsSgWRPIboj+90b7Qg4Ao6AI+AILImA8ocqk4iXLY0A+eH558URcAQcAUfAEVgRApIdqzUVaC+GFT3KT95kBEgnO6lc8/PJ03ry/CY/3R/nCDgCjoAjkMgIJM1Ohqxn86siCdIgkEbUWcJWHQCkec3OygghW/+8OAKOgCPgCDgCK0FgTovL6dXpEOSDsJIn+bmOgCPgCDgCjoAjkDAIrMFMsDpakTDIeEUdAUfAEXAEHAFHYDUIOEFYDWp+jSPgCDgCjoAjsM0R8L0YtnkHe/McAUfAEXAEHIHVIOAahNWg5tc4Ao6AI+AIOALbHAEnCNu8g715joAj4Ag4Ao7AahBQmKOXRERgeno6tLS0hvuNTaHu+NGQmpYWujq7wxuvnw/Jyclhbm4uDAwMhoHBwXCk9nAiNnFNdR4ZHQ0dHZ0hOzs7FBYWhE59n5yaCrOzsyE/Pz/UHDwYFkbwdHR2hhs3boWs7ExhejzsLi39QR2mlY+iq7sndHd3h9LSknCwqvoHv7/sj9HRsXDn7t3Q1dUVDh6sDsXFxSFN/ZaSkhImxsetz+413A/ZOTlhf0VFmJ+fD3n5eRaI3NHZFXp6evQ9KRw7djTs27f3ZY9b8ne2ee9SO/r7+8Pw8NMwMzMTqqoOhDHVMS09zZ7T+vCRtTM/Ly/sytsVSlTfppaWcP/+g5CjOubt2qVrh8Pu3btDQUF+eNDYqOO5oV7Y5ebmWHuadX5b++NQXrY7TExMhscdHWHvnj0hNTU1PH361K4dGRkJnWrfwZrqcLS2NmRmZi5Z9+jHgYGB0NnVbf1ERtjWhw/Dvr17wqzGfn//gPV1UVFRqBBW0T0ZA/P6PT093eoQ3Yv3aXJy0s7jN96fOeFP3zzTJ6HgKSmpGjNbL+xranJKGLeHMY0h+nFUY7+8rCxUV1c9b3fUTv90BFaCgBOElaC1hc5F0E1pUiuS8Lv4+Rdh7969obXlYTh75pRNFJ98+llo18TMZNyhSRnBVi0BwIQ5MjIanjx5EsY1oZw/f9bOaZBgutPQEGoPHw7TmkTv3GsIezTJFBYVioi0hNOnT4UTdXVbCIGlq8Ik+dXXfzYScOb06fAPf/ijSEF1yJVga2trM8GIAO6SgCmTgDt37oww6Q29fb3hzddfD/19A8L1y5CZkRGqDuwPScpHgcB4JKE5LMHWJYE2NDgk4bPPhNzStYn9OjLy1ATq9MxsuHX7bkAo7d9fGTIkkFtbH4ZdErh5EsZz6tsPP/4kDA0NSeDtFZmoCnfVH+npmRKgh0V6spbzuCXPGdS929rajazwvVRkCAJz+/adkJml5xw5YkISMtOpf4yjYo0dxkRPzxMjScRII/QhDBMSrhAxyEaKCOpr58+FpxL8D0Rgm5qaRYAmwtGjtcK3L9y+czcUiKQhbOfm5kNFxb4AORuQUF9JRBbk4PMvvrRnpYhw/M//6/8WfvLO26F/oF/36wo52Tmhru64PQuCMK463L5zx8b+8ePHwoH9+41EQwbu3L0X+vr7jFyf0VjPysoKX3zxVThxoi40NjaLIOXq/dH4EfFJS03TOzRi/TA+MREyNEYQzBDzHBFSyEl6RrrdY0K/FxYW2vElO+QlP/K8L778WmNwzsYbY5hxOT09Y3WH+AxpMUAftLU9Dr/59QdGEF5yW//ZEVgSgVReUlYTXhILAVbGTHCXLl8J58+dC3vKy7UCmgozEi59moSZsN55+y2boCECTPSTkxO2okjVqojJbHRs1FZbTJCc80QTP4KKVdz5s2fCZxc/D2VlpaFexKCpqSXUHjpkk2EiIJWhVWBJcVFof9xhAgxiwGqw/fFjEaYu06wwcV+9ft00LJX7K+w9eNLbFxoeNCo5VWbYJWGQKmHwzaXLoaamRpjFBCKrbIQcbw3kY7mF87ulBXj4sC0cO3okIGCvXbtuq1km+hIJ6SNHakUMhsPDR20mlKc08d++c09CKVVC6Wl4IgKzr2Jt2gPqSxsgmaW7S0ORcOrujhFG6jWtscOKn3GEYGV+gMwwtrI07sDxwP4D4bg0Gd9cumTkoEzno+Ho6uoJY2PjoUdkK1uaGAQkbUhOSbZ2FogAsQZHe8J9jOjq99KSUlvpZwn35ZYkjeEMCWK0EampKSJ6peH6zZt2T0gffUf9+Z2CtuPZM2WU03N5NloLiDSED8EPyUYrwXuE1gSNQoPID8SxfyDNxhFTJSQAQoImqre3N+yvrDCy/lhjjfpwfFwYcN/RsbHw1ptvhHN6n3hnV1uo07wefv3GTXvXIbcQRcj+qZMnjLSNiMzTf3v3tmm8HkyYd3W1mPh1G49Aqt6YjX+KP2HdEWDy+eiTT0Jzc0v425p/qsljXquxWRM6qK0HtbpFnY2w6ejUxJWeoRVgsU365eVloaSkxITTAwlDVMX3WAVqMo8mvyvfXhXJmLXhwTmolKOJdt0bswE3ZAK1CbyvX8L2Uag7diyMiyBlZWWHPXvKtXpNNlKEIGR1zOp9TJP5a+fOhrffuqAV/m3hc8OOZ2RkhtvCEm3CrtxcMwFUSnMwNztnGoi9Umsvp2AegMidqK8zwoHwqZVGgNVqU3OThMxU+PiTT02QpKsPD2iFSL/eunXH6soqHzU/v621pKbF1OUIfkq0SGCFyjigHgjQd999x55N36MZaG1tNW0AdWu4f9+IFip5BH22sMX0UV933MgrghUBBnlgIUI7ikVGWL3fu3ff+uWoBBqakoL8ghWbTVLUhxDaFmnOKiWk96gf0FgUFBSYVqhXZO9zadcwL/36V78MGZkZVo9JaT0Y0+l6J9AK7RaxgBBgnsCUEDPRzUu7sz/c1DiAXObl5YskDJg2olTvDiv4afVXmnBsbmm1lfyMsMzUWIFwY44C0yKRUMYhhGQtBWLbLjMCOJsWUO9/p0yKlPsPHthYjJGhNCNLtGErmkPWgoFfu/kIJE1OTTtD2CTcWdWTNjk5efHJggkFlSsvdopWXGF+PITxhhCStarKPv6DWrIqQ0WMGhfVL0KKyRgVI5MIKltUxtiHUbcjCFi53bh5K1zQigY7Mypd7M6oSPskSFkNQQQQqKiamXTffustUwuzSkKIJkoBa1aAYDErQU4bI2HIalMgGyFA7YzgR7ChpuU6hEVM69Jtvh2ow8GTVXyRVmm8MKmyR9NfTMT58hNYTmFlPqU6gT1qatTTkAY0EwgV9t3AlpwpQVZeVm63RFWNyefp05EwpBUw7amo2Gd9vpxnvugcxg9qdQoEkXZj7qBgusJUgH8C5GVQqmuE0rFjR8Koxhjki7EA+cT8wJhDiD6WIGYljtklEohoTCAKrOij1X6uSBZmisi0kaqxDgFh7K2k0L+PpGkZGBo0ggExQCvDs7W9mWkueDb9dLC6yojXXbWZ9wstAu1mHOj/IUf1xiTBu4KGjXbjyzBJH6mPGT/49KCBSE9LV9+NGyGCVHIu5I7nMG6uXPnOSAEre55VXFJsY2otApux+0ikhPECTgODA2YWShZJQnOTKxNIjggaWgq0DfQDxM2LIxBmh0IYuhhCye8ERrKNU8ycmDaXKg/l05M0NT2jce0cYSmg1us3JuH1IggrrRN9jL2YCQ0HuxcVBBWqWCZ/NA1rUYu+6Bl+fGsgAElgXNjKWoJnsYKQZNxCiFgtJ3qBYKE9MgK+AY0BK/wFMkUasmTeWAsp2IDq+S13IgJrIAiJ/8bvxA5fRZuZqLBZvszBjdUXq0X+edneCLAqfllhNc2/7VI22kyGec/fne0yWrwdThASdAzEzAhdoV1mBrzDUYFPTU2HQzUHzVaKSjIKoSPcD/UwnuRPZEZAk3DoUI3ZfjFDVFdXyVO7SarLbFMFcw62cWy12MmxbR6R42Lk7EhIJepnVp8cR83e3NpiKlps5Nip8XEglO9lKyjU13cb7puKebc0G6jYsUcTNod/BRM6znDcz4sj4AgsjgCaHnxEXva+LX61H3UEFkcg1c0LiwOz1Y8SQ/7d1asWFkeYI/bpqgOKY5cNFD8DNAE4GR6VVzy29W8uXTFbO/bvGXnM44SWlZlltuTx8btmZ21oeCA/BELEOsyOzNhADU0kANuCT8ru2iKnsIPKIYC9l+fgwEd0BHbQDBEJnMbwYcCJD+c0iMtNOaeVSfhDLLCj4hxWWbnPoiUam5rNpFG+u8zCySanJmVHTraoC2yt2FPXw/cBwtSj0E5MKOAUX/DdoP6YU8rKd2uijXnX443P+VOqE175+HpUVOzbFpMwfgR43YPJHjlpYrNGwNDn3fIPIIKBiAIiPXB4xU+jQn4o3QqXJZoCj39s8UTCYMtnvEFaIZfgiW8LZHEjCxECMbNdliIGpNaXvwZhogsLIb0PNe7y5Wi4v7LS2rXwnMX+pj1ENTAOV+ofsdj91noMPxT8ZyDs5PlAA4R2hz5pbFI+FDmHLszdsdZn+vU7GwHXICRo/+PQhiAjoc4t+QscUhgemoGrCpvDwQ1Nws1bt8zfACFNYiCEIPHthNbxiQMZzo2QDRzHsDMfqT1kkxD3xxyBw54kYqiu2m/e7Tk6D6HNSgXHxf0KD3yo3ABFipDQIbsnmgu873HCQ8imyAmvVxoHQutK5LDFMbQTCBK8xqvkLY5XfHJTkmlBSkQmmhVWidc+PhPLUYUv7EbuTXw+bacdOK3hsJYt23AsHC3DtCXkNyBPRHt7h028B6urjQQQFvof/r//aA6lZ06fNMc9JmKI0a5duQsfl3B/Q+JIYjQrEgkuhCEi1CFSwxpP+KHgnIdjHlENEAXIHcmCZhUtA144wd1Tfgb664AcHMlxwDiCaEAuGDuMhY0qnepbyAuaKjRR2P4hJUQQ4AQJcanRe0DIKESIMUUbEPY4VTK2IIA4HpaX77GwxFnzE8oSUe4z50IcKSEVODmiKXtVhXp8+tlF09wRFUG/HDly2PrqkbSIYE5bvTgC64mAE4T1RHMT74XndL7U8H/+5pLFQSOAmaALvxdgTN5MzmgOSO7DSgOhfuXb7+T5/cgcEJkc8epGOH/40cfhpLyuOZanrHk4pJFc6RPlQqiVOSImzIM5XqFVYHLFvICAJ7EOwmZXriZkEZEGmQyMcMg8wHloHWoPH7IYf+qNwLFJWsKksLAofP3nPyvM8r55wxMyhjbhxIl6c5tbrYYLYQEBQuCxykUgEKKoBbIJAqIX8IAn5BETDBEGTc3N0rZgfjlo55CFMiYcqi1aBPwww2yHQvsL8wst98D9xkbTGOAhz/+IyuDfqIgc+STQ4BDXjxYFz3xC927duWN9i0YFfAl5JO9AlfIjkDQJgsHqfiMJAv2A5oJ/TxV1gfDHLEW/8XxIDeMQbYkRBo1rQgIxlWHGIryV9wRtCSGDRBsQGYH5jPdornfetCJkXkSb8CqjAmgPpB1yiyYEbVePclfQtl+8956ySLa+UgKzHd4Jb8OPEfAwxx9jsmFHYurQ9QlzpJIITyYuW7FromDiI1Y7NyfX4s05hwmESY9VYrrMC+WKw+cYwo4VUSydbLLSz87bcWz+/Ebh/pzL51LOXfzOPwrXEqqJlzjtJXQS+yiCNrqvnRj3H0gJz+EZ8XWLO2XFXyFLLS2temayhapRH1bEmFc6lWKYREj8jVaAbJQIQfwxECh1dceMxFy9et3U76BBQqULF94Ip0+dNNX6iiu0xS5AKF69fkOagMe2AieEE/MQKvqTJ+ut/bR7Qtqi27fvGD5ofwh/JMQO4ZopExVjC8LQ86THviOsGYP19fVGJtYjZ8OLoGuRr8vlK98a2dylMQ9RxSRABAG5Fch5QV4LUkoz1tEOoVWDsOLjslfkkPEBSUZLhZaJ9ylPRBfNGmSxp6fXfHyqq6qWfAdeVMf1On6vocEWA+CPpmDQTB8iP3rveMfQkn3wy/etX9brmX6fbYLAGqIYnCBs4hhYb4KwiVVPuEf9hbQg5v5CXjhOSrvqZwAAIBhJREFUPyAwKHxPl3Agfh4CE12HoIsKQgNByDHsvy8iOtH5ifKJdsXar1U0bUOzAy5oeRA8VvSJtgGCxXFwgMRFOIBXPB7cg2OcG2G8UXjwHMxqEEwEfBSGSX2oJ5/xq37+ZhWOBoz2cj6JoSCN+MdAkqVAsXwX0T1IUITvCZkfX3WJ+gcijZYGvxByquAjwzH+UW8vjsAPEHCC8AM4tuwfThC2bNd4xRwBR8AR2J4IrIEg+F4M23NIeKscgW2PAJodMh+iJUALRBmXzwuraLJn8kl0BitvVAOo4fGJQbNBqmkcZdlfgpU4Nn2catFK8De/o21gQY4zsBdHYCci4GGOO7HXvc2OwDZAgOgEnA4xDeBYCykg3Bf/AiJmCIPkO2GzmEUwKRBBQ3QD2SNjjn/z5neCHw/kgTTTkIRnIge5ilY5LAdd/C1Q32/lQiQSkUMT47FdNTEBeXEE1orA1h71a22dX+8IOALbFgE2JyP8cEiOe93a+pkMhkSqEMFCGCChlnxn8ygcZ20vC32SQwCHxDJtXc35RGGQ64PkYWzARSTEyOiI9paQ/4EcMCEIr7qw2+cDRZvg9Ik/xGOF5hZrXxD2lHjwoEnOtt32r0zp0X/+3s/MR+RV19mfn/gIuIkh8fvQW+AI7EgESNJ1Q9sfE51DTg5MBz0yE7ARFjkC2J4cV0sSerHzYpnCZ9l8CfMBuQSIXMGcQCE8lxBCHDfZg+Tk7nojCkREbAXHvzGRGKI2HjxoNI0H5hUyqPb29pl2hCyqOFqSF4UdWb04AuuBgGsQ1gNFv4cj4AhsOgJVyt8BMUCAR0I8thuq9qz7PkqFSv38Zz+1unGMiAfOjf/dftR/SOkdfy9Iw1Yp7JRJUqjhp8OWBh3zycPWR6ZBOKp8JISZEslRouRi8ZEbW6X+Xo/ERMAJQmL2m9faEXAEhMBCQU845sISf058+OpS5y387VX/XaocFEVFBeF07inLO0EGzJr6KtOQoFkosTTgFUoAJZ+LOHL0quvtz09sBNxJMbH7z2vvCDgCOwABEpz97re/XbSlb77x+qLH/aAjsFYEfky313pHv94RcAQcAUfAEXAEEh4BJwgJ34XeAEfAEXAEHAFHYP0RcIKw/pj6HR0BR8AR2BAE2GW0s7PLoi14ALkbvrl02aIZ4h+IQyObkcWSRAXbgfPSlSvae6PdHDXjz/XvjsCLEHAnxRch48cdAUfAEdgiCLAfxldffR2u3bihrdprlcxJO6tanodR7eT40EI02Xys7vhR24DsusI/9+3da5tvsekUkQ2Xvrkc/snf/LU2otq7RVrl1djqCLgGYav3kNfPEXAEdjwC9+43KJ10uiVzYgfK6Zlp28p9ZnYmnD59SjtPTllSqMbGZssgWVt72NJHzyqZ1M1bt0Of8iWc0C6de7RL5VKRHDseaAfgBwh4oqQfwOF/OAKOgCOw9RDIUcKmx9pZku2n2b2RfA4kf2KfiFRlUzywvzLcuXNPvz8xIsHGcKSMJgUzO1uScZF00R4CufX6divXyMMct3LveN0cAUfAERACR44ckXBPCRX7KkJpaUkYGho2ArB7d6myQWYaEWBjqv2VlUqmNBL6+/uVObLUtuoeGx9XWundIUNmBjJIenEElouA+yAsFyk/zxFwBByBV4QAGR4xG0QFIhBfCgsLwgFllqSwVwN7VHhxBNaKQHKUonStN/LrHQFHwBFwBBwBR2D7IOAahO3Tl94SR8AR2KEI4G9AwTfBtrfW1s84I/oCcIcOiHVqthOEdQLSb+MIOAKOwEYiMM5OlBL6adq1ke/4FEAC2NGxuaVFmzkNWvhjn/wPjslnob6+TpEMWRtZJb/3NkfAnRS3eQd78xwBRyDxEcAp8ZPPPjPnxMLCwtDX1xtqDx8yh8TW1ofmsEjSpLKystDW1h4OH6oJKakpid9wb8ErRcA1CK8Ufn+4I+AIOAIvR2BkdFSmg6TQpuyImZmZ0iKkh96+/kA44y/eey+0KwRyWCGNdXXHLGLhwP79pmF4+Z39DEfgxQh4oqQXY+O/OAKOgCOwJRB4+nRYWoP+kKNQxhyZDfA5mJ2dtc+LX3weerq7RQjSlBch2bImJi+y7fWWaIhXIqEQcA1CQnWXV9YRcAR2IgJ1x49bjgMSHZHwiNTLOTnZlvhobGzcSEGqTAr8fvjQIc+WuBMHyQa02QnCBoDqt3QEHAFHYL0R2LVr1/NbZmRkPP+en5/3/Lt/cQTWEwHPg7CeaPq9HAFHwBFwBByBbYKAfBBi8bPbpD3eDEfAEXAEdgQCT0eePt/2mQaztXNvL3s1TO2I9nsjNx4BhTlu/EP8CY6AI+AIOAKrR4AESI8UwYCPQV5eXnjc0RHu3bsXTtTX2xKPVMsXP//CHvDz934WdpeWrv5hfqUj8D0CvpujDwVHwBFwBLY4Ai2treHDjz4Je/aUhyntzjg//ywMDAwYUSDEEeKA42J9nZIjZWVv8dZ49RIFAQ9zTJSe8no6Ao7AjkWgRBswVWkzpq7OLst/cOzY0VCq3RpJioRpYVJmBbQIe0UgMjLSdyxO3vD1RcCjGNYXT7+bI+AIOALrjgAmhnntr8COjWzZfPdeQ0hTuGNFRUXo6+8LRYVFoaAgP+Tm5mr/BV/3rXsH7NAbeqrlHdrx3mxHwBFIHARKSkrCX//mN88r/M7bz7/6F0dgwxBwqrlh0PqNHQFHwBFwBByBxEXACULi9p3X3BFwBBwBR8AR2DAEnCBsGLR+Y0fAEXAEHAFHIHERcIKQuH3nNXcEHAFHwBFwBDYMAScIGwat39gRcAQcAUfAEUhcBHwvhsTtO6+5I+AIOAKOgCOwYQikakPxDbu533jtCJAxjSQo84H86vNrv6HfwRFwBBwBR2DnIDA7EbKVQ2M15oJUpwdbe5wkJycpdaq2ds3+y/auW7vGXjtHwBFwBByBLYPArBaX06uhByG4iWHL9KJXxBFwBBwBR8AR2DoIrI5WbJ36e00cAUfAEXAEHAFHYAMQcIKwAaD6LR0BR8ARcAQcgURHIPmZOykmeh96/R0BR8ARcAQcgXVHwDUI6w6p39ARcAQcAUfAEUh8BJwgJH4fegscAUfAEXAEHIF1RyB13e/oN9wUBNgfvre3L7S1t4WagwfD/Px8aH34KBw8WB1KioutDrOzs2FoeDgkJydrv/jCTanXVnnIlHJHDD99GtLT0xUmmhWGhcPY+HiYnp4OebvyQnl52Y+qOjQ0LAwfhhThtf/A/lCQn/+Dc2Zn58LQ0FAYHBoMeXl5oWz37h/8/rI/qNPjjo4wODgU9uwpD7t25YakpCSFEqUE+mr+2Vx49KgtZGZmhvKycqUombfv9C116x8YCPT7/sqKUPx9H7/smUv9Tj1GR0fC2FgMlz179mgczdl4mZubDz09T0J+fl7Izs4KmcIwNycndHV3h87OrpCTkx1ysnPC05GnobCgUHjsCm1t7SFL5+3fXxnS0tLs0dyjt683FBQUhMnJqdDf3x9KS0sN43H1R54wHh0dNVzBZE95+fNrl6o7v01MTIaHjx7pngP2zPT0tPBQ70BxcZH1D/UE3+qqA2pHrC/BErMqOKakpNg/7jXHceUcSU5JJrSLQ88LfcN9OH+xwpji+nS1+UXnxF9HHbgf/9ardKtf5tWup8NPw759ezW2dj2/Ne/B7MyM+qFP/ZZj45b3wosj8DIEnCC8DKEt+vvExERoam4OAwOD4V7Dg3D4UE3o0wTQ3NIa/vk/+89twr34+RfhyZPeUHf8mAmglNRUmxyKi4o0yXeawERovXb+XNBsFe7euxeeajI5duRoaNS9xzRxQz5G9DkowfjGa6+ZINiikPygWgMSpn/800dGEE6dPBH++OFHobJin02cJJ+qqTlomAwODoZCkaejR2olbB6Gq9euhfPnzgrL/nD9+k0Jq1QTPgiUGQmKlpaW8KS3N5SWlBo2hYUFzwnZDyqwyB/U6e7de9ZPDx40BvqjRoQuIyMjPGhsDKn6e2Z6JqTr72++uSzhOxIOSNhWVlSEm7du2/mH1B/r4TfEvRubmkJHR6f1eUlJsZHMazduhl25uaHqwAEbXwh8MNi3b1+oqztuwhOh3z/QH4o0jqgv9ZmemZaAjAmd0bGxAOaMme+uXgstrS1qx/6wd+8efW8NN27esmeA5+7dpYbfnbt3NZYHAmMzIheLQPiDQ49EDv7dv/+9+jgjnD17OtwSRiNqF2SE9wNCSD/+4ufvhV/98v0wOjZq5Obx4w67T13dMcOWvr3/4EHo7OoO4FslQgGp5t+9hvvhzp07Ij7Z4ZyekSvBm6n+mdU18yJRkLYbYCaCdOzoEZGp7CBA7P6QrNzcnOeEhH6GqN6+czcc0vu6V4RsuQUy9O1339kY2FNWpr5pMZJJXW4LO95zCB/j8ZDGNm06fuxo6BBJunb9huqfaW35QDiUlpQs97F+3g5HwAlCgg6AXE3ip0+dCtc1ObE6YkLm+668mTCpyfG+BBCTd6EmS1ZqAxKEra2PbELML8gLgyIWTKDlmmympqZt5dPd/STcun073BfhKNREzQr304uf2yqybHdZuPLtt+Hn7/0sIRBDyOaq/gizZgklJkxWWO3tj03z0ishv0tagGsiBGhdWAFDHAY0ybbpHFbxQ/qenpEu4d1kJIGVJZPw5MRUuHTpcpianAy//tUHK8IDQjYobcDu3RlhQsTrjx9+LMFKQtNn4eSJ+vDauXNG7i5rpY3mAy0RwiFJwgoy09XTHSr3V6zomYudDBGc0aqyoCAfbmircFbvjKNpjZujx46EmbnZMCchTrsn1Va+o2UoL+8KpRLsR2oPh6+//sYIZH5evhEC6suKG61AZmaGtBOj1oaqA1VGEviNPinTuIMIUAe0MbW1tSa4WOEutyQpiRhjF81Ea+tD03T86oP39ZwD4Q9//FO4fOVb4aoMcjqPArGbmZ1R+6Z0bk7o7u6xd2NIq27eB367LTKAlod3ipU4pPu8CHRJcYn91iFijaB/+nREGod505igEUiR5uGjjz+1d2VkRIRafUX7IAFgDckuKytVe+dMiwJZWkmZmJwwjRjkinHCOIRUoQk4VFNjYyVNBJPvs2rH1WvXbeGAViYPUqPxzG8HKiuNUK3k2X7uzkUgFTXXeqxIdi6Er6blCPdvLl/Wqr8h/M1f/zZcunzFVlD//J/9rVWIKRGBiGoR08OwJkFWEaW7i3XenfDTv/qJrdhYiXR0dkidXqDV7d0QXTcvgTqqic7UoLYg0n+QJAlSmLwRfggjVpa1hw/HVn3ChEaOi0SlpKbYKvhA5X5NsNk22Z6oPx4uvPGGrSgHJKSTk5JN4KE+f76y1T1QJZMCG/X8ctW1PBotQb1W4idPnDBzBtqdHK067zY0WJ2u3bihc1LM3HCwpjpMSwDeun3HhFKlJndWhQjjtRZ778MzaxMCFcFHexAyCNAvv/o6dHV1hTeFBQKOOYJrMIEgnPZJwKHCB0OIAL+h1kbg79Fvu8t2h4H+QRNGx9VG2n352+9MWB06dMg0WN3qG8wlLS2tRka550oKwhYNxIn6ulAhLcvf/6f/FP7wpw/tGayoEfJoKXqePIm1QWNCin3TBpSWlpjGBA0K5Dlmbki1FXiTtETcM1/EBbNDRCQwj0BmhqUZYWxB4Lh/loQv75eZptRHkCOEMpqMJz099nyuGx0VIZdpa0baFnuvVtBYcAdvSClaqAxpTdDagKtUFtY/mXq/9c20f9SB8Qp5wfyB6QRTUYb6KiJMK3i8n7pDEUh1cpCgPa8JG/UiK4InmgBZ1WA3ZzJkEjoilTmTROr3q5gOrYpQF0MSujq7bTWHED19+mQ4WF1tq+efvPuOrVaLigpNk9D7pC+ckiArkNqSCfDc2TMJA1ZObm6oP14XDlZV2+o3XxM6mhTNnyHte/sr6miEH9oD/jFxoqJFsNQcrDENDLZ3VtWYACAC0covNjGHMCVhutyCwHjzzTdMDY1QYQWcJAKSKrJRJLs5k/m9e/fNvv/B+780opCZmRWOHz9uq05U8O3t7aa2RruzloJ/RVpqmmlW0Gqwcj8swY3ggnz2POmRpmTSVOLghs8DAofxc1zahRKpqfFHgEBhhgK/ZpHNSq26j0rVzlibq5oLjY3N5idQXVUlP4YMu57VOCQIDDE9sPpmhYtWbCVl797y8Mv3fyGfhhLTPiQl/VZarqtGXt66cMHqA2E5q3HLSpq+wuSAer9C9YSw3ZG6H2KDPwkkYUr+BIz14sIi66c6EUZMDFNTGeGkxgFCer/eOTRz9Ne8NBQQg5mZWSML9DGknGeBV41I3tGBI0a+MONwfY6wwJSyknKwusrG7zG91/l6BpoN6g3xYEwcljYH3yP6AbMGZhLGPj4zfSI2/J2q/mZse3EElotA0uTUtF4TL5uBAJMV+yokJy/u7ARZw27JJM2kGeYl0MYblBA7U3sxHF9zFaf1fFTATGzY419UxmRDbmpqtsnv+LFjRj5edK4fT1wEEISsOBEaL9IN4YDHeIAcrUT9vxVRwcyEqSRNzoyRv8TCeuLUy/uBH8ZzjdHCk/xvRyCREJgdCmHoYgglv1Otk03bNC1Cm6H3YKnyUA7bbmJYCqFt9hte1stR4yIITp06uc1a781ZiAARCi8rEAP+bYeChuBlJGdh5Mp2aLe3wRFYLQLupLha5F7xdaxyCF/C1lopOy5Od6iE9+7bEybGJ2OqT02ImCGwk6N6xEkLBzRWjLkKU8PujLPY+PiEqdqxB8ecyzJNvYpqkigJTBB4suNchzkDdTOqy1k5sUE4sqQGJ4QKBzRUtdj9WX1F6viloEIV2yXv8Sk5mmFPRsOBCYCJGhU2vhCYTFBpe3EEHAFHwBHYPAScIGwe1uv6JGznn3/+pTkgEe6ITZJwOOySX39zyZyZsKkXy+6JAMZ/IGbfzjHhTiw6ntY4LeFQRfhVw/37ChMbNUc4PLi/+PIrs1PjRHZA/g3YogmPJPwLUnL3bkPo7uox5yfi0SEKrNAgEdhiiUvHXEKoWJYcpIij7+jokl9EqtlgCc18+LBNYVjXw27Vp0GhZjwfHwhCyDIUQQDZ+FX5+2vGDtMNPgeQGGzB8QUbPL9BarDpUueYuUeRDyJiqNnxWif2f7vYcDF30W76knbTXhzuyLcAGSRvBuQQEhgzQSTZeeDHtYwt/CfoY2yU4MR44j7YwjdD64C5oEdOgNjWS+SHkLEGTQd9TPu5R+RfEj9G/LsjsBMRcCfFBO11JmrNz+HcqdPh0pUrFpePJoCohhI5vB2qORQa5Bl/8mS98hmMWZjV2TOnbRJ81NZmEzvOd22PHytcrTbclxNejTQFxMdjq8UcgZc2q3hiu6tEEGaUKAhBgDYCoYEAOXvmVCCuHAGPo919kYGDB6tMC0DIIAKD5DV4feOgReghE/vU945eeMwTc39e4X2EqnV2dRoZgVSQcAfSsRrtAaFvkBm0IDjAIQxpN9EK1A8bNA6JCDccOB88aDJyQOge7eiVZoawNZzQIEfY6wukkn/n7bdeqqZOhCHVrj67regIEuyQ4wBNUvvjdoUyzlkf0c8QAZzvIBGE2dUqTI6kRIyZCvmw4FkPUdwrB0DGAFEzqPHJKUFIHURrIwv9+e1315QcaDi89tp5c3JEwPPcyalJqz/9PYnDoBwiSZBlToWqI+cQxgpxRauGRgwSWFt7SFqxvRtZbb+3I5AwCLgGIWG66ocVZYWWmpIaLn7xZSBTHPHgqPlR2eMxnpaeahEMTIQkdSHDGh7nn372eXj77QvmlPaNYvlJdvPJZ5/ZJMmKPhXnSBVWUXjQs7pEgLe1PTYB23D/gXIh/DR0ShNQrrh5yARJaVjp94swEIqHsEXIHrxQZWYMksmgNdgrrQSrS5ze0DCwUs3NybXEOURfIFy6pe3A0xzBk5mRaeFZVqEV/mdgcCDcVE4HSAwkBS0Jq17q2qA8D6wYCQsrVzgewo2/yQFBkh9i6QlpQzNTLuGHdz+5JfiNaJHtUDDdMAiINmiXwAd/IiMgjWiiYsl1pPWRsx6kk5BXcmvg5Q9hgEBwPmGCfTILoTmqFblCMDMW+Z3+3MhCyCKRODzrjpJ8MbYgNZipEPKEASL8IXaEZtLHOCGadkPMcPjpsJFfxviZ06fNMZhzvDgCjkAMAY9i2MSRwOS1nlEMrIpZ8RMyhfBCPUz2Q1b32O0R3kzmTP5oAo4fPWqrJLy4mdBHdS0CANMBdSNLHCswBCrXcZzVPj4HHEOwkz8Av4ZYhr2YCYE4a8611adCrPB54HpC4joVS89KnmgINBHcJ7p/iqI5NL2b8GFipt74QHAtBIKJnzYwga+0dEv1DFHhXhMT498LK9Toc0YaCLMjxn1kdMSEPpoKwgjRVrz55uvm2/HZxS9Mc0JI2y2Ful248EY4WV+/LVTQhCQi+NHsYK7qkcaEfAwQQwvVU7KdCfW9jVkdR6iyYodwRpn4IF1ExkAOSaZEfzMO6Wu0VWC/kYUEVmhBEPRohKijqiFSmaIQvyrTFjB+SYSEjwtapTmZTAjjpN0cIzcA78KxY0fNFFcmwojPjRdHYNsgsIYoBicImzgK1psgbGLVE+5R7JtAQhoKqm9Wmwg3Muvh54B/A4IE3wv8NsgJwO8kSuATYcM9CDeF/GCqQJCwSt3olbFVeoP/w1iElCHESflsZExmK9IjQxLMB0E+BZA+tExoX8CDsMgYShLEuhbyhjYCH49BaW2Q0JibVkPqVtpk6s8+D+peI7EQXuoEeaWPIKJ8oj3gEzKA2sRMaCLJOPlSOB8zHI6+aMUW+qjYSf4fRyBREXCCkBg95wQhMfrJa7nzEIAgQQxjJHHntd9bvI0RWANB8DwI23hceNMcge2MABoCtAFkpMRcRTHnXQl6fkPYozmIHZOmRNqg6Hc0DXxn/w3MTdF5HOefF0fAEZAvmuWedSQcAUfAEUgwBNhUiw2LEPykb2YzKUxB+NVgRsJHB5PB2PiYmUHwccFJkcgG/CWIyMBMQVgt/hQxJ99pMzkQ9YCTbEWFHGvll+Khjwk2OLy664KAwhzX5T5+E0fAEXAENhWBSYVeEsGDE2K7yALEgOkMJ1mcd9EQEIlCKC7zHPk5ZkQIxvQHviiEA7NvAee3Ko8HUTxE/DTKuZUolmdytiDSBYLgxRHYiQhIgxC5HO3E5nubHQFHIFERwBRA2C2FzbiIriGvBpEpJLUimgIzQ7NIAhEZOB9OKewR7QKbZRGySpIlHFJxrHz0qN3COElBXVNzUAm+GmzjJfdLSNQR4vVeKwLyQZCRwbUIK8IxZttULLg8t5mkWHV4cQQcgc1FgHBEUnuTYwNzAI6GhFkSQQEBiHwJEP68s2QNJSIF80EsnwVOicx/sbBewngpJNbCJ+HkiXr7O7qP/eH/cQR2EAKeKGmFnc2EMjgolWbnk1B9YG9oaHoUTtcftkmHicaLI+AIbA4CCHFSY0cFQb7YZkvxW2Pnx50fXRd9YqKIL645iEfDv+9EBNxddwW9jvjv6R0KH37+nRIGTYU/fnpJds5YWmInBysA0k91BBwBR8AR2PIIJLtgW34fERLV86Rf6WSnlL0wT2RhMNQfPbj8G/iZjoAj4Ag4Ao5AgiDgGoQVdFRqSlI4WnsgHK6uCA/bu8Pbr58IH1389nls9Qpu5ac6Ao6AI+AIOAJbGgH3QVhB9+BigIPTm+frFFs9qY2GMsMhkQWKa2JWAKSf6gg4Ao6AI7DlEdAeK4Q5elkpArk5WRb9wad7Oa8UPT/fEXAEHAFHYKsj4CaGVfZQpDGIPld5G7/MEXAEHAFHwBHYkggk37j7wGJ+t2TtvFKOgCPgCDgCjoAjsHoE1mAlSP2f/q+/C//Lf38sPJtPsm1xV18Lv3IjECBygqiJ+TCl289vxCP8no6AI+AIOALbFIGk2fGQpdTiqzEXpP69Yvr/99//Q/gXf/ubMCdhxO5oXrYOAsnaqS4rMz08y0qPVYpkDLiNxOdkiv87+h59ctXC7xyL7hP/feExflt4bfTc6DiflIXHObbYOdExfqfE/x19jz4X+51jC+sZnc8nZam68Hv8+dG58cfjv0fnxh/jO2Wx3xY7tti5HIvaEX1GxxY7P6pndP/ok3Mp8X9H36PPxX7nWPxz+ZsSfyz6vvDZnBfdm0/Kcs+Jrotd9Zf78Hf0W/QZfyz6zufCZ0Xn80lZ+DvHonPivy/n/Phz4u8Rf5/47/HnLPzOedRtsXvGH4u/34u+L+f8hc+PcFnqntE5L7o2/rnROfHHXnTv+OPRdRyjxP8dfY8+F/6+8O/ovOjzRb+/6DjXUZbT7qjvonO5brHnLnYsOpfP6ProvOgzOmfh7y86znWUl50/q6yi09HJsUuW+9/UVKUo/W/+h/8jXLp6J/yr/+K34WTdkUWvjWztODWy0UlSUrJ57r/IyfEZ+6srsxm1x/s/dl1sC9aFD/jhvTmHM/6yZevS58fqwkPAabH6cP/YLVde9+9v+sK2/rjusY6wZy5Q7fBn1Je0KTonusfCdhoGIUVt0la2drHaIcJg1+kzKvF/R9+jT85Z+J1j0X3ivy88xm8Lr+Wc+OP8Tll4/EXnxN8v/pz47/HnLPzOeQvrGZ3DZ/Q7n9HxF32P/30556zl/Phr+U6J2hF9Rsf4XHj+Qnzjf//h+d+/b3r1eIzdm1G34DsvhL2TPxiRPzz2/HfO/f59ZBkS/z26XNOByg/HZlTHxdrL2ZTonPjvix2LfufzRVjEPyc6f+G58ceXc378OfH1ir9P/Pf4cxZ+5zzrj3Xq/+h+8c+P/77w+REW8efEf3/R+QuPc03UjugzOhZ/vxd9j7/fcs5Zy/nx1y72nWOUCJvFzomvY/zv8cfjv8efs/A75y181sJzFv4ef+/471xHWep8OwM5nKRFJufaFX/5/P7P2HsoGWN1+V5u8f7//7C9TI1FBhEEAAAAAElFTkSuQmCC;" vertex="1" parent="1">
          <mxGeometry x="160" y="240" width="425.45" height="315" as="geometry" />
        </mxCell>
        <mxCell id="bQUlo2BlX72oAqUSooij-7" style="edgeStyle=orthogonalEdgeStyle;rounded=0;orthogonalLoop=1;jettySize=auto;html=1;entryX=0.707;entryY=0.003;entryDx=0;entryDy=0;entryPerimeter=0;" edge="1" parent="1" source="bQUlo2BlX72oAqUSooij-3" target="bQUlo2BlX72oAqUSooij-2">
          <mxGeometry relative="1" as="geometry" />
        </mxCell>
        <mxCell id="bQUlo2BlX72oAqUSooij-3" value="TaskRouter JavaScript SDK v&lt;span style=&quot;color: rgb(0 , 128 , 0) ; font-weight: bold ; background-color: rgb(239 , 239 , 239) ; font-family: &amp;#34;jetbrains mono&amp;#34; , monospace ; font-size: 9.8pt&quot;&gt;1.21.0&lt;/span&gt;" style="whiteSpace=wrap;html=1;aspect=fixed;" vertex="1" parent="1">
          <mxGeometry x="420" y="90" width="80" height="80" as="geometry" />
        </mxCell>
        <mxCell id="bQUlo2BlX72oAqUSooij-5" style="edgeStyle=orthogonalEdgeStyle;rounded=0;orthogonalLoop=1;jettySize=auto;html=1;entryX=0.874;entryY=0.003;entryDx=0;entryDy=0;entryPerimeter=0;" edge="1" parent="1" source="bQUlo2BlX72oAqUSooij-4" target="bQUlo2BlX72oAqUSooij-2">
          <mxGeometry relative="1" as="geometry" />
        </mxCell>
        <mxCell id="bQUlo2BlX72oAqUSooij-9" value="WEBRTC" style="edgeLabel;html=1;align=center;verticalAlign=middle;resizable=0;points=[];" vertex="1" connectable="0" parent="bQUlo2BlX72oAqUSooij-5">
          <mxGeometry x="-0.3429" y="2" relative="1" as="geometry">
            <mxPoint y="-12" as="offset" />
          </mxGeometry>
        </mxCell>
        <mxCell id="bQUlo2BlX72oAqUSooij-6" style="edgeStyle=orthogonalEdgeStyle;rounded=0;orthogonalLoop=1;jettySize=auto;html=1;entryX=1.001;entryY=0.083;entryDx=0;entryDy=0;entryPerimeter=0;" edge="1" parent="1" source="bQUlo2BlX72oAqUSooij-4" target="bQUlo2BlX72oAqUSooij-2">
          <mxGeometry relative="1" as="geometry">
            <Array as="points">
              <mxPoint x="680" y="266" />
            </Array>
          </mxGeometry>
        </mxCell>
        <mxCell id="bQUlo2BlX72oAqUSooij-8" value="Call Controls" style="edgeLabel;html=1;align=center;verticalAlign=middle;resizable=0;points=[];" vertex="1" connectable="0" parent="bQUlo2BlX72oAqUSooij-6">
          <mxGeometry x="0.0331" relative="1" as="geometry">
            <mxPoint x="-4" y="14" as="offset" />
          </mxGeometry>
        </mxCell>
        <mxCell id="bQUlo2BlX72oAqUSooij-4" value="Twilio Client&lt;br&gt;JavaScript SDK v&lt;span style=&quot;color: rgb(0 , 128 , 0) ; font-weight: bold ; font-family: &amp;#34;jetbrains mono&amp;#34; , monospace ; font-size: 9.8pt ; background-color: rgb(255 , 255 , 255)&quot;&gt;1.14.0&lt;/span&gt;" style="whiteSpace=wrap;html=1;aspect=fixed;" vertex="1" parent="1">
          <mxGeometry x="640" y="160" width="80" height="80" as="geometry" />
        </mxCell>
        <mxCell id="bQUlo2BlX72oAqUSooij-12" style="edgeStyle=orthogonalEdgeStyle;rounded=0;orthogonalLoop=1;jettySize=auto;html=1;entryX=0.25;entryY=1;entryDx=0;entryDy=0;" edge="1" parent="1" source="bQUlo2BlX72oAqUSooij-11" target="bQUlo2BlX72oAqUSooij-2">
          <mxGeometry relative="1" as="geometry" />
        </mxCell>
        <mxCell id="bQUlo2BlX72oAqUSooij-11" value="Twilio Chat JavaScript SDK v&lt;span style=&quot;color: rgb(0 , 128 , 0) ; font-weight: bold ; font-family: &amp;#34;jetbrains mono&amp;#34; , monospace ; font-size: 9.8pt ; background-color: rgb(255 , 255 , 255)&quot;&gt;4.1.0&lt;/span&gt;" style="whiteSpace=wrap;html=1;aspect=fixed;" vertex="1" parent="1">
          <mxGeometry x="227" y="640" width="80" height="80" as="geometry" />
        </mxCell>
        <mxCell id="bQUlo2BlX72oAqUSooij-13" value="" style="whiteSpace=wrap;html=1;" vertex="1" parent="1">
          <mxGeometry x="240" y="340" width="120" height="190" as="geometry" />
        </mxCell>
        <mxCell id="bQUlo2BlX72oAqUSooij-14" value="" style="whiteSpace=wrap;html=1;" vertex="1" parent="1">
          <mxGeometry x="240" y="535" width="70" height="20" as="geometry" />
        </mxCell>
        <mxCell id="bQUlo2BlX72oAqUSooij-15" value="" style="whiteSpace=wrap;html=1;fillColor=#dae8fc;strokeColor=#6c8ebf;" vertex="1" parent="1">
          <mxGeometry x="320" y="535" width="40" height="20" as="geometry" />
        </mxCell>
      </root>
    </mxGraphModel>
  </diagram>
  <diagram id="SPZwrQ2I1Lc_6ioWjtDF" name="Inbound Voice">
    <mxGraphModel dx="1095" dy="1075" grid="1" gridSize="10" guides="1" tooltips="1" connect="1" arrows="1" fold="1" page="1" pageScale="1" pageWidth="850" pageHeight="1100" math="0" shadow="0">
      <root>
        <mxCell id="pW41UgXeK4RCqUa0SFca-0" />
        <mxCell id="pW41UgXeK4RCqUa0SFca-1" parent="pW41UgXeK4RCqUa0SFca-0" />
        <mxCell id="7JHRYQWm0ySC0aXUygmZ-2" style="edgeStyle=orthogonalEdgeStyle;rounded=0;orthogonalLoop=1;jettySize=auto;html=1;entryX=0;entryY=0.5;entryDx=0;entryDy=0;" edge="1" parent="pW41UgXeK4RCqUa0SFca-1" source="pW41UgXeK4RCqUa0SFca-2" target="7JHRYQWm0ySC0aXUygmZ-1">
          <mxGeometry relative="1" as="geometry">
            <Array as="points">
              <mxPoint x="330" y="290" />
            </Array>
          </mxGeometry>
        </mxCell>
        <mxCell id="7JHRYQWm0ySC0aXUygmZ-7" style="edgeStyle=orthogonalEdgeStyle;rounded=0;orthogonalLoop=1;jettySize=auto;html=1;entryX=0.5;entryY=0;entryDx=0;entryDy=0;" edge="1" parent="pW41UgXeK4RCqUa0SFca-1" source="pW41UgXeK4RCqUa0SFca-2" target="7JHRYQWm0ySC0aXUygmZ-5">
          <mxGeometry relative="1" as="geometry" />
        </mxCell>
        <mxCell id="pW41UgXeK4RCqUa0SFca-2" value="Studio" style="whiteSpace=wrap;html=1;aspect=fixed;" vertex="1" parent="pW41UgXeK4RCqUa0SFca-1">
          <mxGeometry x="290" y="170" width="80" height="80" as="geometry" />
        </mxCell>
        <mxCell id="7JHRYQWm0ySC0aXUygmZ-6" style="edgeStyle=orthogonalEdgeStyle;rounded=0;orthogonalLoop=1;jettySize=auto;html=1;" edge="1" parent="pW41UgXeK4RCqUa0SFca-1" source="VbPn5fbj-55XyYlumsDw-0" target="pW41UgXeK4RCqUa0SFca-2">
          <mxGeometry relative="1" as="geometry" />
        </mxCell>
        <mxCell id="VbPn5fbj-55XyYlumsDw-0" value="" style="shape=image;verticalLabelPosition=bottom;labelBackgroundColor=#ffffff;verticalAlign=top;aspect=fixed;imageAspect=0;image=data:image/png,iVBORw0KGgoAAAANSUhEUgAAAEwAAABOCAYAAACKX/AgAAAK5WlDQ1BJQ0MgUHJvZmlsZQAASImVlwdUk1kWx9/3pTdaIBQpoTdBOgGkhB66dBCVkIQklBBSULGhMjiCY0FFBJQRHWkKjo6AjAWxYEWw9wEZVNR1sIAFlf2AJczMnt09e895eb/c3Hffvd95L+f/AUBJYYvFWbAKANkimSQ6yJeemJRMxw0CDNABGoAINNgcqZgZFRUGEJue/2qjtwE0Md+wmcj177//V1Pj8qQcAKAUhNO4Uk42wh3I+MYRS2QAoBAGxotl4gn+HWF1CVIgwh8nmD/JaPIEp00xfTImNtoPYScA8GQ2W8IHgOyD+Ol5HD6Sh5yKsJ2IKxQhvBlhL46AzUW4B+HZ2dk5E/wFYQskXgwAxQRhRtqfcvL/kj9NkZ/N5it4qq9Jw/sLpeIs9tL/89H8b8vOkk/vYYYMskASHD3F0N3MnFAFi9IiIqdZyJ2Oh+4K5MFx08yR+iVPM5ftH6pYmxURNs3pwkCWIo+MFTvNPGlAzDRLcqIVe6VL/JjTzJbM7CvPjFP4BTyWIn++IDZhmvOE8RHTLM2MCZ2J8VP4JfJoRf08UZDvzL6Bit6zpX/qV8hSrJUJYoMVvbNn6ueJmDM5pYmK2rg8/4CZmDhFvFjmq9hLnBWliOdlBSn80rwYxVoZcjhn1kYpnmEGOyRqmkEsEAA5EAEu4AEJSAM5IAvIAB34AyGQAjHyjQ2Q4yTjLZFNNOeXI14qEfIFMjoTuYE8OkvEsZ1Nd7BzsAdg4j5PHZF3tMl7CtEuzfhyOwBwK0ac/Bkf2xiAY08BoI7O+IzfTt2VEz0cuSRvyoee+MAg/xHKQB1oA31gDCyADXAALsAD+IAAEAIikU6SwELAQfrJRjpZDJaD1aAIlIDNYDuoANVgL6gDB8Fh0AqOg9PgPLgMesAt8AD0gUHwEgyDUTAGQRAOokBUSBsygEwha8gBYkBeUAAUBkVDSVAqxIdEkBxaDq2FSqBSqALaA9VDP0PHoNPQRagXugf1Q0PQW+gzjILJsDqsB5vBc2AGzIRD4Vh4AcyHc+F8uBDeCJfDNfABuAU+DV+Gb8F98Et4BAVQJBQNZYiyQTFQfqhIVDIqHSVBrUQVo8pQNagmVDuqC3UD1Yd6hfqExqKpaDraBu2BDkbHoTnoXPRK9AZ0BboO3YI+i76B7kcPo79hKBhdjDXGHcPCJGL4mMWYIkwZZj/mKOYc5hZmEDOKxWJpWHOsKzYYm4TNwC7DbsDuwjZjO7C92AHsCA6H08ZZ4zxxkTg2ToYrwu3EHcCdwl3HDeI+4kl4A7wDPhCfjBfh1+DL8A34k/jr+Gf4MYIKwZTgTogkcAlLCZsI+wjthGuEQcIYUZVoTvQkxhIziKuJ5cQm4jniQ+I7EolkRHIjzSMJSQWkctIh0gVSP+kTWY1sRfYjp5Dl5I3kWnIH+R75HYVCMaP4UJIpMspGSj3lDOUx5aMSVclWiaXEVVqlVKnUonRd6bUyQdlUmam8UDlfuUz5iPI15VcqBBUzFT8VtspKlUqVYyp3VEZUqar2qpGq2aobVBtUL6o+V8OpmakFqHHVCtX2qp1RG6CiqMZUPyqHupa6j3qOOqiOVTdXZ6lnqJeoH1TvVh/WUNNw0ojXWKJRqXFCo4+GopnRWLQs2ibaYdpt2mdNPU2mJk9zvWaT5nXND1qztHy0eFrFWs1at7Q+a9O1A7Qztbdot2o/0kHrWOnM01mss1vnnM6rWeqzPGZxZhXPOjzrvi6sa6UbrbtMd6/uFd0RPX29ID2x3k69M3qv9Gn6PvoZ+tv0T+oPGVANvAyEBtsMThm8oGvQmfQsejn9LH3YUNcw2FBuuMew23DMyNwozmiNUbPRI2OiMcM43XibcafxsImBSbjJcpNGk/umBFOGqcB0h2mX6Qczc7MEs3VmrWbPzbXMWeb55o3mDy0oFt4WuRY1FjctsZYMy0zLXZY9VrCVs5XAqtLqmjVs7WIttN5l3TsbM9tttmh2zew7NmQbpk2eTaNNvy3NNsx2jW2r7es5JnOS52yZ0zXnm52zXZbdPrsH9mr2IfZr7Nvt3zpYOXAcKh1uOlIcAx1XObY5vnGyduI57Xa660x1Dnde59zp/NXF1UXi0uQy5Grimupa5XqHoc6IYmxgXHDDuPm6rXI77vbJ3cVd5n7Y/Q8PG49MjwaP53PN5/Lm7ps74Gnkyfbc49nnRfdK9frRq8/b0JvtXeP9xMfYh+uz3+cZ05KZwTzAfO1r5yvxPer7wc/db4Vfhz/KP8i/2L87QC0gLqAi4HGgUSA/sDFwOMg5aFlQRzAmODR4S/Adlh6Lw6pnDYe4hqwIORtKDo0JrQh9EmYVJglrD4fDQ8K3hj+MMI0QRbRGgkhW5NbIR1HmUblRv87DzouaVznvabR99PLorhhqzKKYhpjRWN/YTbEP4izi5HGd8crxKfH18R8S/BNKE/oS5ySuSLycpJMkTGpLxiXHJ+9PHpkfMH/7/MEU55SilNsLzBcsWXBxoc7CrIUnFikvYi86kopJTUhtSP3CjmTXsEfSWGlVacMcP84OzkuuD3cbd4jnySvlPUv3TC9Nf8735G/lDwm8BWWCV0I/YYXwTUZwRnXGh8zIzNrM8ayErOZsfHZq9jGRmihTdDZHP2dJTq/YWlwk7st1z92eOywJleyXQtIF0jaZOiKcrsgt5N/J+/O88irzPi6OX3xkieoS0ZIrS62Wrl/6LD8w/6dl6GWcZZ3LDZevXt6/grliz0poZdrKzlXGqwpXDRYEFdStJq7OXH11jd2a0jXv1yasbS/UKywoHPgu6LvGIqUiSdGddR7rqr9Hfy/8vnu94/qd678Vc4svldiVlJV82cDZcOkH+x/KfxjfmL6xe5PLpt2bsZtFm29v8d5SV6paml86sDV8a8s2+rbibe+3L9p+scyprHoHcYd8R195WHnbTpOdm3d+qRBU3Kr0rWyu0q1aX/VhF3fX9d0+u5uq9apLqj//KPzx7p6gPS01ZjVle7F78/Y+3Re/r+snxk/1+3X2l+z/Wiuq7auLrjtb71pf36DbsKkRbpQ3Dh1IOdBz0P9gW5NN055mWnPJIXBIfujFz6k/3z4cerjzCONI0y+mv1QdpR4tboFalrYMtwpa+9qS2nqPhRzrbPdoP/qr7a+1xw2PV57QOLHpJPFk4cnxU/mnRjrEHa9O808PdC7qfHAm8czNs/POdp8LPXfhfOD5M13MrlMXPC8cv+h+8dglxqXWyy6XW644Xzl61fnq0W6X7pZrrtfaetx62nvn9p687n399A3/G+dvsm5evhVxq/d23O27d1Lu9N3l3n1+L+vem/t598ceFDzEPCx+pPKo7LHu45rfLH9r7nPpO9Hv33/lScyTBwOcgZe/S3//Mlj4lPK07JnBs/rnDs+PDwUO9byY/2Lwpfjl2Kuif6j+o+q1xetf/vD548pw4vDgG8mb8bcb3mm/q33v9L5zJGrk8Wj26NiH4o/aH+s+MT51fU74/Gxs8Rfcl/Kvll/bv4V+eziePT4uZkvYk1IAhQw4PR2At7WIXk5CtAOipYnzp/T2pEFT7wiTBP4TT2nySXMBoNYHgLgCAMIQjbIbGaYIk5F5QibF+gDY0VEx/mXSdEeHqVxkRG1iPo6Pv9MDANcOwFfJ+PjYrvHxr/uQYu8B0JE7pfMnDIu8/ZSaa2qTRq8OxhSAv9nUO8Cfevz7DCYqcAJ/n/8J4KkjUcyhKGMAAABWZVhJZk1NACoAAAAIAAGHaQAEAAAAAQAAABoAAAAAAAOShgAHAAAAEgAAAESgAgAEAAAAAQAAAEygAwAEAAAAAQAAAE4AAAAAQVNDSUkAAABTY3JlZW5zaG90N39fQAAAAdRpVFh0WE1MOmNvbS5hZG9iZS54bXAAAAAAADx4OnhtcG1ldGEgeG1sbnM6eD0iYWRvYmU6bnM6bWV0YS8iIHg6eG1wdGs9IlhNUCBDb3JlIDYuMC4wIj4KICAgPHJkZjpSREYgeG1sbnM6cmRmPSJodHRwOi8vd3d3LnczLm9yZy8xOTk5LzAyLzIyLXJkZi1zeW50YXgtbnMjIj4KICAgICAgPHJkZjpEZXNjcmlwdGlvbiByZGY6YWJvdXQ9IiIKICAgICAgICAgICAgeG1sbnM6ZXhpZj0iaHR0cDovL25zLmFkb2JlLmNvbS9leGlmLzEuMC8iPgogICAgICAgICA8ZXhpZjpQaXhlbFlEaW1lbnNpb24+Nzg8L2V4aWY6UGl4ZWxZRGltZW5zaW9uPgogICAgICAgICA8ZXhpZjpQaXhlbFhEaW1lbnNpb24+NzY8L2V4aWY6UGl4ZWxYRGltZW5zaW9uPgogICAgICAgICA8ZXhpZjpVc2VyQ29tbWVudD5TY3JlZW5zaG90PC9leGlmOlVzZXJDb21tZW50PgogICAgICA8L3JkZjpEZXNjcmlwdGlvbj4KICAgPC9yZGY6UkRGPgo8L3g6eG1wbWV0YT4KzVNB0wAADydJREFUeAHtXAd4FMUXfxQV1JBAKAklQBLAEEqAQOg1CFIFpYkEA1IEDFX+0sVKAJGiFEFBEARFqkAEKVIFBAwBwUIJLXRCJwjMf34TZ927273bvdtL9Pvyvu++3Z15M/Pmt1PevPduszFOlEWGEchumDOLUSCQBZjJgZAFWBZgJhEwyZ41wkwCltMkv2Xsx44n04HEw5SScpFSzl+k8ymXxFXcX7hEjz2WkwIKFaDAgIIUwH+BAen3RYsGUtXIilSoYH7LZDFTUbaMUivupaXRtm17KGH9j7Ru/RY6cybFjJwOvOXCS1PTZ+vzXz2KrFKBsmfPmMnidcCOnzhF02ctoMVfr6IbN245dFwm5MyZg3x981Aen6fF9dHDh5R64yZdv36Dbt68TY8ePZKsDteiRQLolZh21KNbJ8qb19ch38oErwF26tRZiv9wJn21ZCU9ePDQRuYnn8xN1aMqUZ1a1ahi+TAqUzqYMNWyZctmwycfUP7EyVP02+/Had/+JNq2Yy8d+OUQ/fXXA8kirj4c7L69u1C/17pSnjw+NnlWPVgO2A0+KiZM+pRmfvolpd2/r8gJkJo1aUBt2zSl6Ea1KdcTTyh57tykpt6g1Wt+oG9XrKOt23bbvJR8+fxo2NC+1K1re7EWulO/bhmsYVbR0uVrWWhYXebjX1b5FS9Vk02YNItxIK1qxqGe02dS2OCh77D8gRFKu5Chep3n2e49Bxz4PUkgTwrLsleuXGMvv9LfRthCxaqwt9+b4lWgZPvyevr0Odar7zDmW6CcIgvuR731IUtLuy/ZPLp6DBhfS1hYxUaKgHizXWIHMLz1zCLIVL9xBxuZGjzbkZ09d95jkTwCbMMP21jBopUVwYLL1GZ8XfFYKCsqePjwIZv6yVxWoHAlRb5nyjdgfOPwqHq3Adu0ZafNmtGkeRd2/sIlj4TxRuHEg7+ycpWfVUDDGstVHbebcguww7/+zgqXqKYIEfvqEMvWCLd74qTgpctXWJ2G7RR5K1Vrxq5eTXVSQj/LNGBY4NVvrGv3QezBgwf6LfxLcrgawmrWbaOA1uL5WMb1ONPSmQIM60LrF19VGm3crDO7e++e6UYzq8CZs+dZ6fD6ivzDRsWbFsUUYPETZyiNhVVoyC5eumK6wcwuwE8KykaQJ384W7NukymRDAP2876DLG+h8gIw/8CKDM//VZo3/xvlxZcoXcvUZmUIMG5pYJE1WiiNTJs+77+KlSI3Nip5Iun4cj8l3dWNIcDej/9EqbxZq64Ma5k3acasBYwf2tnmH3exo78d88qmcu3adVamXAOlXytXbzDUJZeAcasDK1gkXfnD1RMdxpBEnAkKpnz7uGLavPb6CLY2YbOlm8x3azcq7ZSNiGZ37t51KaJLwF7t/T+l0g/GT3dZoVUMFy5eZj9s3M4+mjqHdev5Bqtas6VYQ0uVrcdmf/4Vu3//L0uaatfpNaV/k6bMcVmnU8BwjJAHWQzfO3dcvwGXLXrAAIX5hQ69RQcB4K6f9ntQW3rR3/84rmxmsKzcvHnLaZ1O7bqTp32mWDqHDOpJuXPn0jUTZURG2bBStHTxDFq1LF2upi1jaDw3UvIeut18qdCS1LF9K1Gea/80b8FS53XpwXn58lXlrBjyTB1L1w69Ns2kQ2HuP+gtMdriBo5h3IRtprgNL0aZnEk4xTjb1HSn5MfTv1Dm9rsfTLVpwOgD9wCxZSsS2PKV35vSdWbOXsiwax1MOspu3brttLkPJ88WcvKR5pTPVWbbDr2U/sKwoEe6gNWLbi8qgDacnHxGr7xuOkBGWRzSYQnFPdQTI1Qxsqngxw6JNw896ZfEw7pFB//vXcG3cdMOXR5XGStWrVcA6xM3UpddEzAY2tBBCNywSSfdwnoZOKPBDjVn7mKxm+Hgi2mD+mD9NEIok7B+i+CvUr25kKffgNGaVgYconGuxQ4K44A7hCkeEBQpZCxZurbutNQEbOFXKxS0zQ51mKUBFoyL9jRi9ARToMnysIYA/KDQGiy8UmOGNceeMAsCi1dlzkaHfRn7505dXlf6rTeiNQF7nb9JjAb8ftpt3ImwfedeMTWcHWglaKPHGhtp6k7BZh9Vu7XQ0M+lXFBniXsc2TCFE5OOOOQZScAJQ/Yb66gWaQJWt1G6sQ2HbTPmm1Ztu7OYbgO12rFJGz5qvBBs/YatNulGHmAhgVYOC6+9HQ6ODozAzl37G6nKgQceJglY3/6jHPKRoAkYhjYKwjJplLCO5AuoIHZFV2WwbVer1UrY1rR434//mA0c8rY4T2q9MHQMLxM7uT1xfyjzK1iOwfZlluAKlIA1bRGjWdxBcYUjlm/lQnkrVqywcyVOlQtXPjzUjz/+mCpV+xZxEAgoSU4+q8ng75+P+PSmXn2HU/3oDvTHnyds+KpVjaDusR1p3MTpPJTgpk0elNCcOXLS8pUJNulGHuA59/PLI1j5xqdZxAEwfopXGP25B9koAajy4WWITzOXRe7evUebNu+g8LKlNXl7du9Ee3asoo0Ji4iPRmreOpb4VLThHTKwJ927m0YLFi2zSff19aFatSJpI6/fHfLPl1cUS+UxHVrkANi9tH/c+2aPQn16x9DCxStEDIRWY0hDPET3XkOJe5hoyMAeemwiHVE5a1d9gWWD+GZhw4twpyY8cocrxTbpeIiqWonHXhx2SDeSkCtXeggDP9xrsjsAlj37PwEheLtmqGP7lhRRMZziBo1RzqD25YePHk/crEKD+vcQvPb59s8F8uejNwb3pqXL1hDXsWyy69WNIr79k33nSoWWIJwL+UHaht/Ig4wSypEjhya7BmAOSZoFtRKxNk37aCzt339IhDhp8cTysKSnn36KFixcRmfPXdBicUiLbliLT81HdPDQUZu84BJBYsRe4KNVTXn90kOerjsJr1Lzq+8xmkE6gUTkgA6mjCQ9lGW+1jXsmVAaNSKOxr4zmQ4mHXFggcVh7uwJfE26TO069eYxY7aLtkMBnlA8qAgl/pzAp1qETXZwcBD169OVcj9pa0UJCios0n34izFLiFMD2YdoKfXY751/HjupbK0w3LlDUBvgjsOZEEccLfps3hLRDrZvI5ZOrTq8kQZVCqpFsZDqmtU7jDB1INrVa6kKsGZuMDXnzIzna8t9scBrrYWI3Ro1PI527PqZuKJpE0tmpi2rea9cTV8n/Xg0pBY5AAZVQupS/CiiVcZQWn6uSy2aP5VHC+6hkW9N1CzzxqBeNHhAD+KmaHopJo4QB5uZBP1TqlWBgQW1RdEad5WjmothCc0dLjZPCGYTnO+mz5yvW82YtyeJ9lq26ebS/qVbiQUZ8LVKTR9OFy3SPBrhPCgLWuGwxaEWoMF1pkdwsKBNxHXB2qsmWFNdGRLV/O7ez5qzSOk3ZNYiTcBw6peAGfGkaFVsn/beuGni/AcLrB7hHAhgI6o+x3gcv3C6wGpQnpuNkQ4PjzNrqF69RtMRCCj7jZACLdIEDOYRWRBWAato5JiJAjTEwurRt8vXCXsafJGItkGQ3psjxzHsqtHPvSTkMmqE1GtDKx2WjiIl00O4YHezt4TIMpqAYQrIMEy8WXdO/rIB+yvsYLAmfLlouX2W8rxz1z7hvMVaCr+AmqQ9zWrQYMOTgwS+WD3SBAzMUjBUgqgdK2nchBnC5Dzl4891q4XH3R4sySxlsxI0+A0kYDCN65EuYEeO/qlUANe9VZ5mKQi81xhpQ4d/oGs/l7xaVwnap58t0so2lXby5GkhCwCDwxq2PT3SBQwFEKUnUZ//5bd6dbidjgBiBBV36NzXrV2Q624M3motI6MZoQYMHqv005UPwylgiG2QgMH066lOptWJ/QcOiajAGnWfZ3jTZgiOFsiHwF936QRvE/FuqAeWZlexrw6avlq9bcStBFHV0g+8+O8Q103U2ZbcV4oIp80bFvPTxeNUr3EH2rxlp+F6k0+nW2yldcJwQRUjV5oV81CfXl1c/7nL1ZtBwIf0UcJv560/LGBawUWGdQ2bAg7wzgijEX5InA7cJTh+5QxCOISRv/c4nZJSEFgtZMVwqUPt8BYhnBJxaLB2IORJiwAW1B7E3EPBdYcQpaOOBuf2OUPVGAIMgkOZk6DBqepNQkwFdDAAgiA6NeFsip0MeYhOdJcwmmV/EFVpdBAYAgxCLflmtdIARkDSod/cldVQOZwd8UcrdArTBScOTEE8o4OeREJ+vfQ7pS9YZszUZer/knxqctv6WrFkBpcMoi0blihuKdU6auktNps9+xIpKekohYaUoJo1qlBIcHG32+BBedSo6UvEgwNFHZ9MeYe6dG5rvD5Dr/tvJiyK0iKJNw1Pt9UKrRl5zPLCa65et5wdgfTqNjwlZQW/HvlD6Cty/sNuZHT+yzoy43r79h2GvwBKuWvVa+tWCKppwNBZLMTY/mXjCEPSO91nBjj2bfI/2os1UMqLDQOBLe6QW4ChIdiupAC4tmnf06WW7I6AnpZBaJT6TxlY5PVsXUbachswVM6Dhm1Ag260ZetPRtrNEJ65XKeTgTV4qYiG5E4Xj9r2CDC0DLOz+l+vOBVAx7E3M3skpcnCCJdXGw4AFs7CVqhCHgOGvuDwi7BK9RSFXw8j0FNLghms8EfSIW++pxympTyILHQ3lNO+fUsAQ6VwxsKgJ//xJoWFVg67vDeBw2iG50k9/dA+zNzOHC/2YBh5NqW4GtHuoBgOGxlPfC2zYccnXlq3aEwvvtCcateM9PhbOfBhfr9+qwhSwVXt04S7PzamPY14sx/hox9WkuWASeG4rYp4gDBxh4pMUq7+/nkFaHVqR1Fk5fIUFhZKuXPZxkcozH/fIHAu6fBR2rM3kbZu30089lbR1iUvPkXTqkU0jRwWJz5PI9OtvHoNMAjJhzhx5wJNnvY57+gvunKjoz4+T/Fjli/58W/mIAoQwSDXeaBKaup1usY/GyOPMlqVYES1bB4tvOgV+Ld8vEleBUwtOMIuV6/ZKL6Xw62sAkx1vtn7J2BwrFudA9WImj3XkBBHlhGUYYCpO3Pp8lXazr/QtJcfqo8dSyZ8fA3xruqPG6n5EU8Wwg/7ISHFCcFyNaKqiK9D4QNIGU2ZAphWJzF9EQyCIDjEjCE2DfGqvnyKmg0d1arfqrR/DWBWdcjb9Th1gni78f9i/VmAmXxrWYBlAWYSAZPs/wdewMt6lcKnPgAAAABJRU5ErkJggg==;" vertex="1" parent="pW41UgXeK4RCqUa0SFca-1">
          <mxGeometry x="292" y="30" width="76" height="78" as="geometry" />
        </mxCell>
        <mxCell id="7JHRYQWm0ySC0aXUygmZ-3" style="edgeStyle=orthogonalEdgeStyle;rounded=0;orthogonalLoop=1;jettySize=auto;html=1;exitX=0.5;exitY=0;exitDx=0;exitDy=0;entryX=1;entryY=0.5;entryDx=0;entryDy=0;" edge="1" parent="pW41UgXeK4RCqUa0SFca-1" source="7JHRYQWm0ySC0aXUygmZ-1" target="pW41UgXeK4RCqUa0SFca-2">
          <mxGeometry relative="1" as="geometry" />
        </mxCell>
        <mxCell id="7JHRYQWm0ySC0aXUygmZ-1" value="Auto Pilot" style="whiteSpace=wrap;html=1;aspect=fixed;" vertex="1" parent="pW41UgXeK4RCqUa0SFca-1">
          <mxGeometry x="410" y="250" width="80" height="80" as="geometry" />
        </mxCell>
        <mxCell id="7JHRYQWm0ySC0aXUygmZ-14" value="" style="edgeStyle=orthogonalEdgeStyle;rounded=0;orthogonalLoop=1;jettySize=auto;html=1;" edge="1" parent="pW41UgXeK4RCqUa0SFca-1" source="7JHRYQWm0ySC0aXUygmZ-5" target="7JHRYQWm0ySC0aXUygmZ-13">
          <mxGeometry relative="1" as="geometry" />
        </mxCell>
        <mxCell id="7JHRYQWm0ySC0aXUygmZ-5" value="TaskRouter" style="whiteSpace=wrap;html=1;aspect=fixed;" vertex="1" parent="pW41UgXeK4RCqUa0SFca-1">
          <mxGeometry x="290" y="370" width="80" height="80" as="geometry" />
        </mxCell>
        <mxCell id="7JHRYQWm0ySC0aXUygmZ-15" value="OL Workspace" style="swimlane;horizontal=0;" vertex="1" parent="pW41UgXeK4RCqUa0SFca-1">
          <mxGeometry x="100" y="660" width="460" height="420" as="geometry" />
        </mxCell>
        <mxCell id="7JHRYQWm0ySC0aXUygmZ-29" style="edgeStyle=orthogonalEdgeStyle;rounded=0;orthogonalLoop=1;jettySize=auto;html=1;dashed=1;" edge="1" parent="7JHRYQWm0ySC0aXUygmZ-15" source="7JHRYQWm0ySC0aXUygmZ-18" target="7JHRYQWm0ySC0aXUygmZ-27">
          <mxGeometry relative="1" as="geometry" />
        </mxCell>
        <mxCell id="7JHRYQWm0ySC0aXUygmZ-30" value="Conference" style="edgeLabel;html=1;align=center;verticalAlign=middle;resizable=0;points=[];" vertex="1" connectable="0" parent="7JHRYQWm0ySC0aXUygmZ-29">
          <mxGeometry x="-0.2787" y="-1" relative="1" as="geometry">
            <mxPoint as="offset" />
          </mxGeometry>
        </mxCell>
        <mxCell id="7JHRYQWm0ySC0aXUygmZ-18" value="Reservation Accepted" style="whiteSpace=wrap;html=1;aspect=fixed;" vertex="1" parent="7JHRYQWm0ySC0aXUygmZ-15">
          <mxGeometry x="118" y="40" width="80" height="80" as="geometry" />
        </mxCell>
        <mxCell id="7JHRYQWm0ySC0aXUygmZ-23" style="edgeStyle=orthogonalEdgeStyle;rounded=0;orthogonalLoop=1;jettySize=auto;html=1;" edge="1" parent="7JHRYQWm0ySC0aXUygmZ-15" source="7JHRYQWm0ySC0aXUygmZ-19" target="7JHRYQWm0ySC0aXUygmZ-22">
          <mxGeometry relative="1" as="geometry" />
        </mxCell>
        <mxCell id="7JHRYQWm0ySC0aXUygmZ-24" value="Agent Clicks Complete" style="edgeLabel;html=1;align=center;verticalAlign=middle;resizable=0;points=[];" vertex="1" connectable="0" parent="7JHRYQWm0ySC0aXUygmZ-23">
          <mxGeometry x="-0.05" y="1" relative="1" as="geometry">
            <mxPoint as="offset" />
          </mxGeometry>
        </mxCell>
        <mxCell id="7JHRYQWm0ySC0aXUygmZ-34" style="edgeStyle=orthogonalEdgeStyle;rounded=0;orthogonalLoop=1;jettySize=auto;html=1;dashed=1;" edge="1" parent="7JHRYQWm0ySC0aXUygmZ-15" source="7JHRYQWm0ySC0aXUygmZ-19" target="7JHRYQWm0ySC0aXUygmZ-25">
          <mxGeometry relative="1" as="geometry">
            <Array as="points">
              <mxPoint x="254" y="230" />
              <mxPoint x="254" y="270" />
            </Array>
          </mxGeometry>
        </mxCell>
        <mxCell id="7JHRYQWm0ySC0aXUygmZ-19" value="Reservation Wrapping" style="whiteSpace=wrap;html=1;aspect=fixed;" vertex="1" parent="7JHRYQWm0ySC0aXUygmZ-15">
          <mxGeometry x="118" y="170" width="80" height="80" as="geometry" />
        </mxCell>
        <mxCell id="7JHRYQWm0ySC0aXUygmZ-20" value="" style="edgeStyle=orthogonalEdgeStyle;rounded=0;orthogonalLoop=1;jettySize=auto;html=1;" edge="1" parent="7JHRYQWm0ySC0aXUygmZ-15" source="7JHRYQWm0ySC0aXUygmZ-18" target="7JHRYQWm0ySC0aXUygmZ-19">
          <mxGeometry relative="1" as="geometry" />
        </mxCell>
        <mxCell id="7JHRYQWm0ySC0aXUygmZ-21" value="Agent Ends call" style="edgeLabel;html=1;align=center;verticalAlign=middle;resizable=0;points=[];" vertex="1" connectable="0" parent="7JHRYQWm0ySC0aXUygmZ-20">
          <mxGeometry x="-0.12" y="-1" relative="1" as="geometry">
            <mxPoint as="offset" />
          </mxGeometry>
        </mxCell>
        <mxCell id="7JHRYQWm0ySC0aXUygmZ-22" value="Reservation Completed" style="whiteSpace=wrap;html=1;aspect=fixed;" vertex="1" parent="7JHRYQWm0ySC0aXUygmZ-15">
          <mxGeometry x="118" y="290" width="80" height="80" as="geometry" />
        </mxCell>
        <mxCell id="7JHRYQWm0ySC0aXUygmZ-32" style="edgeStyle=orthogonalEdgeStyle;rounded=0;orthogonalLoop=1;jettySize=auto;html=1;dashed=1;" edge="1" parent="7JHRYQWm0ySC0aXUygmZ-15" source="7JHRYQWm0ySC0aXUygmZ-27" target="7JHRYQWm0ySC0aXUygmZ-19">
          <mxGeometry relative="1" as="geometry">
            <Array as="points">
              <mxPoint x="360" y="210" />
            </Array>
          </mxGeometry>
        </mxCell>
        <mxCell id="7JHRYQWm0ySC0aXUygmZ-33" value="" style="group" vertex="1" connectable="0" parent="7JHRYQWm0ySC0aXUygmZ-15">
          <mxGeometry x="290" y="220" width="100" height="100" as="geometry" />
        </mxCell>
        <mxCell id="7JHRYQWm0ySC0aXUygmZ-25" value="TaskRouter JS SDK" style="whiteSpace=wrap;html=1;aspect=fixed;" vertex="1" parent="7JHRYQWm0ySC0aXUygmZ-33">
          <mxGeometry x="20" y="20" width="80" height="80" as="geometry" />
        </mxCell>
        <mxCell id="7JHRYQWm0ySC0aXUygmZ-35" style="edgeStyle=orthogonalEdgeStyle;rounded=0;orthogonalLoop=1;jettySize=auto;html=1;entryX=1;entryY=0.5;entryDx=0;entryDy=0;dashed=1;" edge="1" parent="7JHRYQWm0ySC0aXUygmZ-15" source="7JHRYQWm0ySC0aXUygmZ-25" target="7JHRYQWm0ySC0aXUygmZ-22">
          <mxGeometry relative="1" as="geometry">
            <Array as="points">
              <mxPoint x="254" y="300" />
              <mxPoint x="254" y="330" />
            </Array>
          </mxGeometry>
        </mxCell>
        <mxCell id="7JHRYQWm0ySC0aXUygmZ-36" value="Hang Up" style="edgeStyle=orthogonalEdgeStyle;rounded=0;orthogonalLoop=1;jettySize=auto;html=1;exitX=0;exitY=0.75;exitDx=0;exitDy=0;entryX=1;entryY=0.25;entryDx=0;entryDy=0;dashed=1;" edge="1" parent="7JHRYQWm0ySC0aXUygmZ-15" source="7JHRYQWm0ySC0aXUygmZ-27" target="7JHRYQWm0ySC0aXUygmZ-19">
          <mxGeometry relative="1" as="geometry" />
        </mxCell>
        <mxCell id="7JHRYQWm0ySC0aXUygmZ-27" value="Voice Client JS SDK" style="whiteSpace=wrap;html=1;aspect=fixed;" vertex="1" parent="7JHRYQWm0ySC0aXUygmZ-15">
          <mxGeometry x="320" y="90" width="80" height="80" as="geometry" />
        </mxCell>
        <mxCell id="7JHRYQWm0ySC0aXUygmZ-16" style="edgeStyle=orthogonalEdgeStyle;rounded=0;orthogonalLoop=1;jettySize=auto;html=1;entryX=0.5;entryY=0;entryDx=0;entryDy=0;" edge="1" parent="pW41UgXeK4RCqUa0SFca-1" source="7JHRYQWm0ySC0aXUygmZ-13" target="7JHRYQWm0ySC0aXUygmZ-15">
          <mxGeometry relative="1" as="geometry" />
        </mxCell>
        <mxCell id="7JHRYQWm0ySC0aXUygmZ-13" value="Reservation Created" style="whiteSpace=wrap;html=1;aspect=fixed;" vertex="1" parent="pW41UgXeK4RCqUa0SFca-1">
          <mxGeometry x="290" y="520" width="80" height="80" as="geometry" />
        </mxCell>
      </root>
    </mxGraphModel>
  </diagram>
  <diagram id="w-M11VDwYFE5r2SbobE9" name="Page-3">
    <mxGraphModel dx="1095" dy="1075" grid="1" gridSize="10" guides="1" tooltips="1" connect="1" arrows="1" fold="1" page="1" pageScale="1" pageWidth="850" pageHeight="1100" math="0" shadow="0">
      <root>
        <mxCell id="dSRszyKCxqisfx1SrOaN-0" />
        <mxCell id="dSRszyKCxqisfx1SrOaN-1" parent="dSRszyKCxqisfx1SrOaN-0" />
      </root>
    </mxGraphModel>
  </diagram>
</mxfile>
